<svg id="Capa_1" enable-background="new 0 0 512 512" height="512" viewBox="0 0 512 512" width="512" xmlns="http://www.w3.org/2000/svg"><g><g><path d="m267.624 364.68h97.056v108.972h-97.056z" fill="#46cc8d" transform="matrix(0 1 -1 0 735.319 103.014)"/><path d="m302.86 334.484h19.307v91.616h-19.307z" fill="#00c27a" transform="matrix(0 1 -1 0 692.805 67.778)"/></g><g><path d="m330.569 445.497c12.097 3.661 24.768-3.674 27.618-15.987l.261 62.808c0 10.869 8.811 19.68 19.68 19.68 10.869 0 19.68-8.811 19.68-19.68l-.013-6.987c1.385 9.513 9.553 16.827 19.45 16.827 10.869 0 19.68-8.811 19.68-19.68l-.038-16.76c1.125 9.8 9.438 17.414 19.54 17.414 10.869 0 19.68-8.811 19.68-19.68v-21.592c0 9.911 8.035 17.946 17.946 17.946s17.946-8.035 17.946-17.946v-84.931c0-10.227-4.433-19.951-12.153-26.659l-19.997-17.373c-7.72-6.707-12.154-16.432-12.154-26.659v-53.238h-97.056v52.814c0 11.777-5.87 22.778-15.653 29.335l-15.931 10.677c-8.583 5.753-14.216 14.976-15.415 25.239l-7.99 68.418c-2.701 11.254 3.842 22.662 14.919 26.014z" fill="#fed2a4"/><path d="m358.191 429.509c-2.85 12.31-15.52 19.65-27.62 15.99-4.07-1.23-7.52-3.54-10.13-6.54 9.68-.24 18.43-6.94 20.74-16.92l4.008-46.262c.402-4.643 4.288-8.207 8.948-8.207 5.292 0 9.437 4.552 8.943 9.821z" fill="#ffbd86"/><path d="m512 356.929v84.93c0 .442-.016.883-.048 1.324-.342 4.684-2.567 9.113-6.102 12.201-3.95 3.451-9.848 5.264-15.03 4.125-2.167-.476-4.302-1.143-6.18-2.37-.03-.02-.06-.03-.08-.05-.03-.01-.06-.03-.08-.06 5.01-3.18 8.36-8.78 8.36-15.17v-73.68c0-10.22-4.44-19.95-12.16-26.65l-20-17.38c-7.72-6.71-12.15-16.42-12.15-26.66v-64.489h19.17v53.24c0 1.28.07 2.55.2 3.812.647 6.267 3.193 12.697 7.08 17.658 1.495 1.909 3.054 3.601 4.87 5.18l20 17.38c7.72 6.71 12.15 16.43 12.15 26.659z" fill="#ffbd86"/><path d="m370.639 153.679h97.056v91.616h-97.056z" fill="#fe4fb7"/><path d="m448.388 153.679h19.307v91.616h-19.307z" fill="#fe2aa8"/><g fill="#ffbd86"><path d="m397.811 492.319c0 5.44-2.2 10.36-5.76 13.92-3.57 3.56-8.49 5.76-13.92 5.76-3.44 0-6.67-.88-9.48-2.43-.12-.08-.24-.16-.36-.23 1.5-.84 2.85-1.89 4.07-3.1 3.56-3.57 5.76-8.49 5.76-13.92l.11-64.93c.01-5.4 4.39-9.77 9.78-9.77h.13c5.42 0 9.8 4.39 9.79 9.8z"/><path d="m436.92 482.479c0 10.83-8.75 19.62-19.57 19.68h-.11c-.22 0-.44 0-.66-.01-.18-.01-.36-.02-.53-.03h-.06c-3.07-.22-5.96-1.15-8.49-2.62 5.87-3.38 9.83-9.74 9.83-17.02l.1-55.15c.01-5.4 4.39-9.76 9.79-9.76h.12c5.42 0 9.8 4.39 9.79 9.81z"/><path d="m476.15 427.349-.04 36.1c0 5.43-2.2 10.35-5.76 13.92-3.57 3.56-8.49 5.76-13.92 5.76-3.43 0-6.65-.87-9.45-2.42-.01 0-.02 0-.03-.01 0-.01-.01-.01-.01-.01-.02-.01-.03-.01-.04-.03-.1-.06-.19-.12-.29-.18 5.88-3.4 9.83-9.75 9.83-17.02v-36.11c0-5.4 4.38-9.78 9.79-9.78h.13c5.41 0 9.79 4.38 9.79 9.78z"/></g></g><path d="m445.498 181.432c3.661-12.097-3.674-24.768-15.987-27.618l62.808-.261c10.869 0 19.68-8.811 19.68-19.68 0-10.869-8.811-19.68-19.68-19.68l-6.987.013c9.513-1.385 16.827-9.553 16.827-19.45 0-10.869-8.811-19.68-19.68-19.68l-16.76.038c9.8-1.125 17.414-9.438 17.414-19.54 0-10.869-8.811-19.68-19.68-19.68h-21.592c9.911 0 17.946-8.035 17.946-17.946s-8.035-17.946-17.946-17.946h-84.931c-10.227 0-19.951 4.433-26.659 12.153l-17.373 19.997c-6.707 7.72-16.432 12.154-26.659 12.154h-50.572v97.056h50.148c11.777 0 22.778 5.87 29.335 15.653l10.677 15.931c5.753 8.583 14.976 14.216 25.239 15.415l68.418 7.99c11.254 2.7 22.661-3.842 26.014-14.919z" fill="#d88a55"/><g fill="#c57a44"><path d="m512 133.87c0 10.87-8.81 19.68-19.68 19.68l-15.04.06-47.45.07c-5.25.01-9.52-4.25-9.52-9.51v-.12c0-5.25 4.25-9.5 9.49-9.51l63.08-.1c5.28 0 10.06-2.14 13.52-5.6.98-.98 2.6-2.37 3.59-3.65 1.29 2.62 2.01 5.57 2.01 8.68z"/><path d="m502.16 94.76c0 8.87-5.89 16.36-13.97 18.81-1.5.38-3.07.58-4.68.58l-53.53.1c-5.26.01-9.53-4.25-9.53-9.51v-.12c0-5.24 4.25-9.5 9.49-9.51l53.57-.1c6.99 0 13.11-3.75 16.42-9.36 1.43 2.72 2.23 5.82 2.23 9.11z"/><path d="m483.13 55.57c0 9.45-6.65 17.33-15.53 19.23-.02.01-.05.01-.07.02-1.12.2-2.28.3-3.45.3h-34.61c-5.25 0-9.5-4.25-9.5-9.5v-.14c0-5.25 4.25-9.51 9.5-9.51h35.07c6.99 0 13.11-3.76 16.43-9.37 1.38 2.69 2.16 5.74 2.16 8.97z"/><path d="m459.81 17.95c0 9.56-7.49 17.38-16.92 17.91l-13.28.03c-5.3.08-9.64-4.2-9.64-9.5 0-5.26 4.26-9.51 9.51-9.51h13.74c5.92 0 11.21-2.69 14.71-6.93 1.2 2.41 1.88 5.13 1.88 8z"/><path d="m419.486 196.348-68.423-7.983c-10.259-1.205-19.487-6.839-25.234-15.424l-10.677-15.924c-6.564-9.789-17.557-15.659-29.337-15.659h-50.148v-19.303h62.76c11.78 0 22.784 5.869 29.337 15.649l10.677 15.934c5.757 8.585 19.267 14.219 29.526 15.414l51.519 7.993c10.075 2.409 20.273-2.583 24.703-11.606 2.358 4.787 2.981 10.453 1.306 15.996-3.348 11.074-14.76 17.618-26.009 14.913z"/></g><g><path d="" style="fill:none;stroke:#000;stroke-width:15;stroke-linecap:round;stroke-linejoin:round;stroke-miterlimit:10"/></g><path d="m147.393 43.459h97.056v98.749h-97.056z" fill="#5f99d7" transform="matrix(0 -1 1 0 103.087 288.755)"/><path d="m186.268 82.334h19.307v98.749h-19.307z" fill="#3c87d0" transform="matrix(0 -1 1 0 64.213 327.63)"/><path d="m181.432 66.503c-12.097-3.661-24.768 3.674-27.618 15.987l-.261-62.808c0-10.869-8.811-19.68-19.68-19.68-10.869 0-19.68 8.811-19.68 19.68l.013 6.987c-1.385-9.513-9.553-16.827-19.45-16.827-10.869 0-19.68 8.811-19.68 19.68l.038 16.76c-1.125-9.8-9.438-17.414-19.54-17.414-10.869 0-19.68 8.811-19.68 19.68v21.592c0-9.911-8.035-17.946-17.946-17.946s-17.946 8.035-17.946 17.946v84.931c0 10.227 4.433 19.951 12.153 26.659l19.997 17.373c7.72 6.707 12.154 16.432 12.154 26.659v51.905h97.056v-51.481c0-11.777 5.87-22.778 15.653-29.335l15.931-10.677c8.583-5.753 14.216-14.976 15.415-25.239l7.99-68.418c2.7-11.254-3.842-22.662-14.919-26.014z" fill="#ffcebf"/><path d="m196.348 92.515-7.983 68.423c-1.205 10.259-6.839 19.487-15.424 25.234l-15.924 10.677c-9.789 6.564-15.659 17.557-15.659 29.337v51.481h-19.303v-64.092c0-11.78 5.869-22.784 15.649-29.337l15.934-10.677c8.585-5.757 14.219-19.267 15.414-29.526l7.993-51.519c2.409-10.075-2.583-20.273-11.606-24.703 4.787-2.358 10.453-2.981 15.996-1.306 11.075 3.346 17.618 14.759 14.913 26.008z" fill="#ffb09e"/><path d="m44.306 266.705h97.056v106.46h-97.056z" fill="#fec165" transform="matrix(-1 0 0 -1 185.668 639.871)"/><path d="m122.056 266.705h19.307v106.46h-19.307z" fill="#fea613" transform="matrix(-1 0 0 -1 263.418 639.871)"/><g><path d="m66.503 330.568c-3.661 12.097 3.674 24.768 15.987 27.618l-62.808.261c-10.869 0-19.68 8.811-19.68 19.68 0 10.869 8.811 19.68 19.68 19.68l6.987-.013c-9.513 1.385-16.827 9.553-16.827 19.45 0 10.869 8.811 19.68 19.68 19.68l16.76-.038c-9.8 1.125-17.414 9.438-17.414 19.54 0 10.869 8.811 19.68 19.68 19.68h21.592c-9.911 0-17.946 8.035-17.946 17.946s8.035 17.946 17.946 17.946h84.931c10.227 0 19.951-4.433 26.659-12.153l17.373-19.997c6.707-7.72 16.432-12.154 26.659-12.154h40.944v-97.056h-40.519c-11.777 0-22.778-5.87-29.335-15.653l-10.677-15.931c-5.753-8.583-14.976-14.216-25.239-15.415l-68.418-7.99c-11.255-2.7-22.662 3.842-26.015 14.919z" fill="#f6a96c"/><g fill="#ea9b58"><path d="m92.515 315.652 68.423 7.983c10.259 1.204 19.487 6.839 25.234 15.424l10.677 15.924c6.564 9.789 17.557 15.659 29.337 15.659h40.521v19.303h-53.133c-11.78 0-22.784-5.87-29.337-15.649l-10.677-15.934c-5.757-8.585-19.267-14.219-29.526-15.414l-51.519-7.993c-10.075-2.409-20.273 2.583-24.703 11.606-2.358-4.787-2.981-10.453-1.306-15.996 3.348-11.074 14.76-17.618 26.009-14.913z"/><path d="m94.381 368.263c0 5.398-4.37 9.776-9.768 9.787l-64.932.104c-5.435 0-10.355 2.203-13.917 5.764-1.215 1.215-2.265 2.573-3.109 4.066-1.687-2.902-2.655-6.268-2.655-9.86 0-5.435 2.203-10.355 5.764-13.917 3.562-3.562 8.482-5.765 13.917-5.765l64.895-.096c5.412-.01 9.805 4.375 9.805 9.787z"/><path d="m94.433 407.254v.128c0 5.396-4.368 9.774-9.764 9.787l-55.146.101c-7.278 0-13.639 3.953-17.026 9.83-1.688-2.903-2.656-6.269-2.656-9.851 0-10.87 8.811-19.681 19.681-19.681l55.101-.101c5.414-.012 9.81 4.373 9.81 9.787z"/><path d="m94.433 446.532v.139c0 5.405-4.382 9.787-9.787 9.787h-36.101c-7.278 0-13.629 3.953-17.026 9.83-1.819-3.148-2.804-6.84-2.625-10.775.481-10.586 9.534-18.768 20.131-18.768h35.62c5.406 0 9.788 4.382 9.788 9.787z"/><path d="m94.474 485.859c0 5.405-4.382 9.787-9.787 9.787h-14.145c-6.413 0-12.105 3.067-15.687 7.823-1.678-2.738-2.656-5.96-2.656-9.419 0-9.913 8.029-17.942 17.942-17.942l14.409-.035c5.458-.077 9.924 4.327 9.924 9.786z"/></g></g><g fill="#ffb09e"><path d="m143.758 94.382c-5.398 0-9.776-4.37-9.787-9.768l-.104-64.932c0-5.435-2.203-10.355-5.765-13.917-1.215-1.215-2.573-2.265-4.066-3.109 2.903-1.688 6.269-2.656 9.861-2.656 5.435 0 10.355 2.203 13.917 5.764 3.562 3.562 5.765 8.482 5.765 13.917l.096 64.895c.01 5.412-4.375 9.805-9.787 9.805h-.13z"/><path d="m104.767 94.434h-.128c-5.396 0-9.774-4.368-9.787-9.764l-.101-55.146c0-7.278-3.953-13.639-9.83-17.026 2.903-1.688 6.269-2.656 9.851-2.656 10.87 0 19.681 8.811 19.681 19.681l.101 55.101c.013 5.414-4.373 9.81-9.787 9.81z"/><path d="m65.489 94.434h-.139c-5.405 0-9.787-4.382-9.787-9.787v-36.101c0-7.278-3.953-13.629-9.83-17.026 3.148-1.819 6.84-2.804 10.775-2.625 10.586.481 18.768 9.534 18.768 20.131v35.62c0 5.406-4.382 9.788-9.787 9.788z"/><path d="m26.163 94.475c-5.405 0-9.787-4.382-9.787-9.787v-14.145c0-6.413-3.067-12.105-7.823-15.687 2.738-1.678 5.96-2.656 9.419-2.656 9.913 0 17.942 8.029 17.942 17.942l.035 14.409c.076 5.458-4.327 9.924-9.786 9.924z"/></g></g></svg>