<svg id="Capa_1" enable-background="new 0 0 512 512" height="512" viewBox="0 0 512 512" width="512" xmlns="http://www.w3.org/2000/svg"><g><g><g><path d="m7.5 237.209c49.699 0 49.699 20 99.398 20 49.698 0 49.698-20 99.396-20 49.7 0 49.7 20 99.399 20 49.702 0 49.702-20 99.404-20s49.702 20 99.404 20v240.117h-497.001z" fill="#b1e4f9"/></g><g><path d="m323.368 121.163c-42.594-14.197-87.416-49.721-132.618-18.003-30.141 21.15-55.312 72.313-35.93 126.87" fill="#cbe2ff"/><path d="m461.436 198.801c-4.193 22.443-12.328 43.966-23.962 63.494-21.586 36.284-55.18 65.747-97.765 81.755-54.795 20.597-113.071 14.62-160.662-11.489-8.844 17.683-24.025 43.136-48.445 71.154-14.691 16.858-42.268 5.362-40.812-16.948 1.498-22.861.571-47.472-6.573-66.474-7.143-19.003-22.654-38.12-38.839-54.333-15.791-15.826-2.605-42.645 19.543-39.635 36.829 4.994 65.017 14.145 83.32 21.624 4.368-11.982 9.914-23.51 16.556-34.406 21.626-35.516 54.837-64.312 96.756-80.069 65.522-24.63 136.016-11.274 187.275 29.095-5.196 5.872-7.046 14.357-4.095 22.207 2.951 7.849 9.932 13.015 17.703 14.025z" fill="#ecf4ff"/><path d="m437.473 262.296c-21.586 36.284-55.18 65.747-97.765 81.755-54.795 20.597-113.071 14.62-160.662-11.489-8.844 17.683-24.025 43.136-48.445 71.154-14.691 16.858-42.268 5.362-40.812-16.948 1.498-22.861.571-47.472-6.573-66.474-7.143-19.003-22.654-38.12-38.839-54.333-15.791-15.826-2.605-42.645 19.543-39.635 36.829 4.994 65.017 14.145 83.32 21.624 4.368-11.982 9.914-23.51 16.556-34.406 48.924 54.81 142.159 109.96 273.677 48.752z" fill="#ddeafb"/></g><path d="m504.5 428.856c-49.702 0-49.702-20-99.404-20s-49.702 20-99.404 20c-49.7 0-49.7-20-99.399-20-49.698 0-49.698 20-99.396 20-49.699 0-49.699-20-99.398-20v-95.824c49.699 0 49.699 20 99.398 20 49.698 0 49.698-20 99.396-20 49.7 0 49.7 20 99.399 20 49.702 0 49.702-20 99.404-20s49.702 20 99.404 20" fill="#95d6a4"/><g><g fill="#ffe07d"><path d="m446.713 109.447-1.235-1.523c-4.354-5.37-3.807-13.195 1.253-17.906l15.563-14.492c5.574-5.191 14.379-4.575 19.176 1.342l3.068 3.783c4.797 5.917 3.58 14.658-2.651 19.04l-17.396 12.231c-5.655 3.977-13.424 2.895-17.778-2.475z"/><path d="m399.1 81.583-1.83-.701c-6.456-2.474-9.894-9.523-7.868-16.133l6.232-20.332c2.232-7.283 10.165-11.152 17.278-8.426l4.548 1.743c7.113 2.725 10.43 10.905 7.224 17.814l-8.949 19.291c-2.91 6.27-10.179 9.218-16.635 6.744z"/><path d="m345.164 69.49-1.936.308c-6.828 1.086-13.33-3.301-14.881-10.038l-4.769-20.724c-1.708-7.423 3.228-14.74 10.75-15.936l4.81-.765c7.522-1.196 14.485 4.229 15.163 11.815l1.895 21.181c.617 6.886-4.204 13.073-11.032 14.159z"/></g></g></g><g><path d="m392.745 174.361c-3.771-1.711-8.218-.04-9.928 3.732l-10.055 22.166-22.166-10.054c-3.772-1.712-8.218-.041-9.928 3.732-1.711 3.772-.04 8.217 3.732 9.928l22.166 10.054-10.054 22.166c-1.711 3.772-.04 8.217 3.732 9.928 1.005.456 2.058.672 3.094.672 2.853 0 5.58-1.637 6.834-4.404l10.055-22.166 22.166 10.054c1.005.456 2.058.672 3.094.672 2.853 0 5.58-1.637 6.834-4.404 1.711-3.772.04-8.217-3.732-9.928l-22.166-10.054 10.054-22.166c1.711-3.772.04-8.217-3.732-9.928z"/><path d="m307.924 161.515c-3.771-1.711-8.217-.04-9.928 3.732-22.408 49.401-.448 107.822 48.953 130.23 1.005.456 2.058.672 3.094.672 2.853 0 5.58-1.637 6.834-4.404 1.711-3.772.041-8.217-3.732-9.928-41.869-18.992-60.48-68.505-41.489-110.374 1.711-3.772.04-8.217-3.732-9.928z"/><path d="m504.5 421.357c-23.398 0-34.814-4.594-46.9-9.458-12.879-5.183-26.197-10.542-52.5-10.542-26.309 0-39.628 5.36-52.51 10.543-12.087 4.863-23.503 9.457-46.9 9.457s-34.813-4.594-46.9-9.458c-12.879-5.183-26.197-10.542-52.5-10.542-26.296 0-39.612 5.359-52.489 10.542-12.086 4.864-23.502 9.458-46.901 9.458-.384 0-.755 0-1.129-.008-4.108-.077-7.574 3.187-7.668 7.328s3.187 7.574 7.328 7.668c.486.011.973.012 1.47.012 26.304 0 39.622-5.36 52.501-10.543 12.084-4.863 23.498-9.457 46.889-9.457 23.397 0 34.814 4.594 46.9 9.458 12.879 5.183 26.197 10.542 52.5 10.542 26.301 0 39.62-5.359 52.499-10.542 12.089-4.864 23.507-9.458 46.911-9.458 23.397 0 34.813 4.594 46.9 9.458 12.879 5.183 26.197 10.542 52.5 10.542 4.142 0 7.5-3.358 7.5-7.5s-3.359-7.5-7.501-7.5z"/><path d="m77.867 418.124c-6.646-1.708-12.092-3.901-17.858-6.222-12.88-5.184-26.198-10.545-52.509-10.545-4.142 0-7.5 3.358-7.5 7.5s3.358 7.5 7.5 7.5c23.405 0 34.821 4.595 46.908 9.46 5.961 2.399 12.126 4.881 19.725 6.834.626.161 1.254.238 1.873.238 3.341 0 6.388-2.25 7.258-5.635 1.031-4.011-1.385-8.099-5.397-9.13z"/><path d="m504.5 325.536c-9.653 0-18.004-.789-25.532-2.412-8.286-1.783-14.642-4.34-21.371-7.047-11.513-4.632-23.384-9.402-44.558-10.363 15.327-15.236 28.05-32.832 37.72-52.049.426.171.841.334 1.274.509 7.008 2.818 14.254 5.731 23.777 7.784 8.577 1.85 17.962 2.749 28.691 2.749 4.142 0 7.5-3.358 7.5-7.5s-3.358-7.5-7.5-7.5c-9.653 0-18.004-.789-25.53-2.412-8.273-1.783-14.622-4.335-21.342-7.038-.205-.083-.421-.167-.627-.25 5.264-12.75 9.246-26.086 11.812-39.822.378-2.025-.093-4.116-1.303-5.783s-3.052-2.763-5.094-3.031c-5.317-.697-9.786-4.234-11.665-9.232-1.879-5-.846-10.596 2.698-14.603 1.367-1.545 2.037-3.586 1.852-5.641s-1.208-3.943-2.829-5.22c-17.115-13.479-36.201-24.031-56.729-31.361-3.9-1.393-8.192.64-9.585 4.541s.64 8.192 4.541 9.585c16.842 6.014 32.635 14.372 47.038 24.883-3.441 7.131-3.898 15.451-1.026 23.092 2.869 7.633 8.692 13.596 15.981 16.706-8.997 39.99-30.974 75.947-62.454 102.066-16.972 1.578-27.45 5.789-37.647 9.892-12.087 4.863-23.503 9.457-46.9 9.457s-34.814-4.594-46.901-9.457c-12.798-5.149-26.031-10.475-52.029-10.543h-.47c-26.296 0-39.612 5.359-52.489 10.542-12.086 4.864-23.502 9.458-46.901 9.458-5.342 0-10.054-.242-14.298-.669-.718-2.506-1.502-4.926-2.361-7.208-6.555-17.444-20.2-36.622-40.553-57-5.958-5.97-5.464-13.374-3.015-18.312 2.426-4.891 7.968-9.715 16.238-8.599 36.78 4.994 64.618 14.253 81.495 21.143 1.887.771 4.006.739 5.87-.085 1.863-.825 3.312-2.373 4.01-4.288 18.566-50.878 58.259-90.979 108.904-110.021 31.919-12 66.405-14.985 99.726-8.633 4.067.78 7.996-1.894 8.772-5.962.776-4.069-1.894-7.996-5.962-8.772-13.606-2.594-27.39-3.747-41.135-3.481-9.153-3.131-18.382-7.219-28.131-11.547-33.664-14.945-71.817-31.886-110.017-5.082-17.227 12.088-31.559 31.993-39.322 54.611-6.116 17.819-11.008 45.604-.378 77.947-1.321 2.843-2.587 5.719-3.778 8.635-17.944-6.766-44.455-14.77-78.037-19.329-11.966-1.619-23.221 3.573-29.697 13.375-8.33-1.709-17.417-2.554-27.73-2.554-4.142 0-7.5 3.358-7.5 7.5s3.358 7.5 7.5 7.5c8.411 0 15.845.608 22.609 1.836-.89 8.957 2.207 17.946 8.964 24.716 18.34 18.363 30.646 35.324 36.637 50.454-5.732-1.622-10.664-3.605-15.709-5.635-6.812-2.742-13.855-5.577-22.998-7.62-8.805-1.965-18.456-2.92-29.503-2.92-4.142 0-7.5 3.358-7.5 7.5s3.358 7.5 7.5 7.5c9.936 0 18.518.837 26.234 2.559 7.946 1.776 14.125 4.263 20.666 6.896 12.879 5.184 26.196 10.545 52.5 10.545s39.622-5.36 52.501-10.543c12.084-4.863 23.498-9.457 46.889-9.457h.45c23.094.061 34.438 4.626 46.45 9.458 12.88 5.183 26.198 10.542 52.5 10.542 26.301 0 39.62-5.359 52.499-10.542 12.089-4.864 23.507-9.458 46.911-9.458 23.396 0 34.812 4.593 46.898 9.456 7.018 2.824 14.275 5.744 23.811 7.795 8.577 1.85 17.962 2.749 28.691 2.749 4.142 0 7.5-3.358 7.5-7.5s-3.361-7.5-7.503-7.5zm-309.442-216.236c31.251-21.928 62.368-8.114 95.313 6.513.772.343 1.55.687 2.326 1.031-11.8 2.145-23.444 5.349-34.787 9.614-42.34 15.919-77.594 45.458-100.681 83.468-7.62-42.927 12.143-82.603 37.829-100.626z"/><path d="m149.502 267.086c-37.86-7.664-69.052-8.136-70.361-8.153-4.182-.067-7.539 3.263-7.592 7.404s3.262 7.541 7.403 7.595c.308.004 31.165.485 67.575 7.856.502.102 1.002.15 1.496.15 3.495 0 6.623-2.456 7.343-6.014.822-4.059-1.804-8.016-5.864-8.838z"/><path d="m147.063 289.835-39.667 5.075c-4.109.526-7.013 4.283-6.488 8.391.484 3.786 3.712 6.549 7.43 6.549.317 0 .638-.021.961-.062l39.667-5.075c4.109-.526 7.013-4.283 6.488-8.391-.526-4.107-4.281-7.007-8.391-6.487z"/><path d="m440.887 114.171c4.051 4.997 10.032 7.625 16.076 7.625 4.115 0 8.259-1.219 11.842-3.738l17.395-12.231c4.664-3.279 7.79-8.398 8.576-14.045.787-5.647-.822-11.425-4.413-15.854l-3.067-3.783c-3.591-4.428-8.912-7.196-14.599-7.594-5.691-.399-11.342 1.602-15.515 5.487l-15.562 14.491c-7.913 7.369-8.777 19.72-1.966 28.12zm10.955-18.664 15.562-14.492c1.059-.985 2.409-1.516 3.838-1.516.135 0 .271.004.408.014 1.579.11 2.998.849 3.995 2.078l3.067 3.783c.997 1.229 1.426 2.77 1.208 4.338-.218 1.567-1.052 2.932-2.347 3.843l-17.396 12.231c-2.419 1.702-5.774 1.235-7.639-1.063 0 0 0 0-.001-.001l-1.234-1.521c-1.863-2.298-1.626-5.678.539-7.694z"/><path d="m394.585 87.884 1.831.702c2.405.922 4.888 1.359 7.337 1.359 7.833 0 15.317-4.48 18.784-11.952l8.949-19.291c2.399-5.172 2.546-11.168.404-16.452-2.143-5.283-6.425-9.483-11.748-11.522l-4.549-1.743c-5.324-2.04-11.316-1.777-16.44.723-5.124 2.499-9.021 7.059-10.691 12.509l-6.232 20.333c-3.168 10.338 2.259 21.467 12.355 25.334zm1.987-20.938 6.232-20.332c.464-1.513 1.502-2.729 2.925-3.423 1.422-.694 3.02-.764 4.498-.198l4.549 1.743c1.478.566 2.619 1.686 3.214 3.153s.556 3.066-.111 4.502l-8.949 19.291c-1.246 2.683-4.385 3.957-7.147 2.898l-1.831-.702c-2.762-1.058-4.247-4.103-3.38-6.932z"/><path d="m321.038 61.442c2.18 9.469 10.687 16.019 20.138 16.019 1.067 0 2.147-.083 3.23-.256l1.935-.308c10.678-1.698 18.288-11.464 17.325-22.234l-1.895-21.181c-.508-5.678-3.378-10.945-7.875-14.449-4.497-3.503-10.303-4.998-15.935-4.105l-4.811.765c-5.631.895-10.688 4.12-13.876 8.846-3.188 4.727-4.284 10.624-3.005 16.179zm10.671-28.515c.885-1.312 2.234-2.172 3.796-2.42l4.811-.765c.304-.048.606-.072.907-.072 1.247 0 2.447.411 3.454 1.195 1.249.973 2.014 2.377 2.155 3.954l1.895 21.18c.264 2.947-1.818 5.619-4.74 6.083 0 0 0 0-.001 0l-1.936.308c-2.918.459-5.73-1.43-6.394-4.313l-4.769-20.724c-.355-1.542-.063-3.114.822-4.426z"/></g></g></svg>