<svg height="512" viewBox="0 0 41 58" width="512" xmlns="http://www.w3.org/2000/svg"><g id="Page-1" fill="none" fill-rule="evenodd"><g id="002---Temperature" fill-rule="nonzero" transform="translate(-1)"><path id="Shape" d="m25 46c-.0037345 5.8225537-4.1867428 10.8022616-9.9212718 11.8108862-5.73452893 1.0086246-11.36565159-2.2449129-13.35591374-7.7167502-1.99026214-5.4718372.23470573-11.5828573 5.27718554-14.494136v-29.6c0-3.3137085 2.6862915-6 6-6s6 2.6862915 6 6v29.6c3.7151949 2.1449676 6.0027505 6.110064 6 10.4z" fill="#9fc9d3"/><path id="Shape" d="m13 54c-3.6269657.0069369-6.80479848-2.4270464-7.74301215-5.9305708-.93821368-3.5035244.59796713-7.19988 3.74301215-9.0064292l2-1.155v-31.908c0-1.1045695.8954305-2 2-2s2 .8954305 2 2v31.908l2 1.155c3.145045 1.8065492 4.6812258 5.5029048 3.7430122 9.0064292-.9382137 3.5035244-4.1160465 5.9375077-7.7430122 5.9305708z" fill="#ff5364"/><path id="Shape" d="m13 51c-.8732468.004112-1.7321321-.2221646-2.49-.656-1.54987377-.8983728-2.50569219-2.5525861-2.51-4.344 0-.5522847.44771525-1 1-1s1 .4477153 1 1c.0037277 1.0778349.5793807 2.0726638 1.512 2.613.4533971.2574613.9666175.39094 1.488.387.5522847 0 1 .4477153 1 1s-.4477153 1-1 1z" fill="#fff"/><g fill="#84b5cb"><path id="Shape" d="m41 3h-10c-.5522847 0-1-.44771525-1-1s.4477153-1 1-1h10c.5522847 0 1 .44771525 1 1s-.4477153 1-1 1z"/><path id="Shape" d="m41 11h-10c-.5522847 0-1-.4477153-1-1 0-.55228475.4477153-1 1-1h10c.5522847 0 1 .44771525 1 1 0 .5522847-.4477153 1-1 1z"/><path id="Shape" d="m41 19h-10c-.5522847 0-1-.4477153-1-1s.4477153-1 1-1h10c.5522847 0 1 .4477153 1 1s-.4477153 1-1 1z"/><path id="Shape" d="m41 27h-10c-.5522847 0-1-.4477153-1-1s.4477153-1 1-1h10c.5522847 0 1 .4477153 1 1s-.4477153 1-1 1z"/><path id="Shape" d="m41 35h-10c-.5522847 0-1-.4477153-1-1s.4477153-1 1-1h10c.5522847 0 1 .4477153 1 1s-.4477153 1-1 1z"/><path id="Shape" d="m41 44h-10c-.5522847 0-1-.4477153-1-1s.4477153-1 1-1h10c.5522847 0 1 .4477153 1 1s-.4477153 1-1 1z"/><path id="Shape" d="m41 53h-10c-.5522847 0-1-.4477153-1-1s.4477153-1 1-1h10c.5522847 0 1 .4477153 1 1s-.4477153 1-1 1z"/></g><path id="Shape" d="m34 7h-3c-.5522847 0-1-.44771525-1-1s.4477153-1 1-1h3c.5522847 0 1 .44771525 1 1s-.4477153 1-1 1z" fill="#3b97d3"/><path id="Shape" d="m34 15h-3c-.5522847 0-1-.4477153-1-1s.4477153-1 1-1h3c.5522847 0 1 .4477153 1 1s-.4477153 1-1 1z" fill="#3b97d3"/><path id="Shape" d="m34 23h-3c-.5522847 0-1-.4477153-1-1s.4477153-1 1-1h3c.5522847 0 1 .4477153 1 1s-.4477153 1-1 1z" fill="#3b97d3"/><path id="Shape" d="m34 31h-3c-.5522847 0-1-.4477153-1-1s.4477153-1 1-1h3c.5522847 0 1 .4477153 1 1s-.4477153 1-1 1z" fill="#3b97d3"/><path id="Shape" d="m34 39h-3c-.5522847 0-1-.4477153-1-1s.4477153-1 1-1h3c.5522847 0 1 .4477153 1 1s-.4477153 1-1 1z" fill="#3b97d3"/><path id="Shape" d="m34 48h-3c-.5522847 0-1-.4477153-1-1s.4477153-1 1-1h3c.5522847 0 1 .4477153 1 1s-.4477153 1-1 1z" fill="#3b97d3"/><path id="Shape" d="m34 57h-3c-.5522847 0-1-.4477153-1-1s.4477153-1 1-1h3c.5522847 0 1 .4477153 1 1s-.4477153 1-1 1z" fill="#3b97d3"/></g></g></svg>