<svg id="Capa_1" enable-background="new 0 0 512 512" height="512" viewBox="0 0 512 512" width="512" xmlns="http://www.w3.org/2000/svg"><g clip-rule="evenodd" fill-rule="evenodd"><path d="m105.907 145.134v13.754c0 16.412 17.407 33.144 32.268 32.94l22.825-23.858-24.668-35.802h-18.518c-6.553.001-11.907 5.841-11.907 12.966z" fill="#ffbc85"/><path d="m176.119 296.781c5.12 26.632 38.792 68.421 79.866 68.421s75.156-41.496 79.866-68.421l-19.425-26.515-59.329-26.136-63.045 28.18z" fill="#fed1a3"/><path d="m114.537 323.179c-48.914 34.196-75.683 93.125-75.537 155.676l.029 19.157c.001 12.294 10.357 13.988 16.676 13.988h12.433 37.154 9.245l34.755-96.922z" fill="#f0eef0"/><path d="m389.769 318.157-42.04 104.251 42.04 89.592h16.909 37.154 12.433c6.348 0 16.675-1.694 16.675-13.988l.06-19.156c.117-65.734-29.46-127.467-83.231-160.699z" fill="#f0eef0"/><path d="m114.537 323.179v188.821h141.448 133.783v-193.843c-15.885-9.841-33.936-17.171-53.917-21.376-4.71 26.924-38.851 47.191-79.925 47.191-41.045 0-74.688-20.558-79.808-47.191-23.257 4.906-43.881 14.046-61.581 26.398z" fill="#00c0fa"/><path d="m325.145 322.099c19.747 5.87 37.095 15.448 51.811 27.83 4.535 3.796 8.806 7.855 12.814 12.148v-43.92c-15.885-9.841-33.936-17.171-53.917-21.376-1.404 7.972-5.354 15.331-11.322 21.785-.819.876-1.668 1.752-2.574 2.599 1.081.291 2.134.613 3.188.934z" fill="#08a9f1"/><path d="m389.769 362.077c29.752 31.743 45.726 76.393 45.638 123.262l-.029 17.492c0 4.351-1.375 7.242-3.394 9.169h11.848 12.433c6.348 0 16.675-1.694 16.675-13.988l.06-19.156c.117-65.734-29.46-127.467-83.231-160.699z" fill="#d7d0d6"/><path d="m212.746 307.819c25.13 9.315 54.385 14.513 79.603 2.395 2.838-1.343 5.441-2.628 6.582-3.212 1.082-.555 1.141-.759 2.223-.088.556.38 1.814 1.197 2.867 1.869l17.933 12.382c.907-.847 1.755-1.723 2.574-2.599 5.968-6.454 9.918-13.813 11.322-21.785l-19.425-26.515c-10.151 7.826-21.268 14.251-33 18.602-21.356 7.943-37.417 7.972-58.773.058-4.856-1.811-9.625-3.942-14.276-6.424-5.646-2.979-11.117-6.395-16.324-10.192l-10.912 14.893c9.391 6.833 18.694 16.557 29.606 20.616z" fill="#ffbc85"/><path d="m136.332 175.3c0 32.998 24.106 72.596 57.72 97.009 9.537 6.921 19.864 12.644 30.601 16.616 21.356 7.914 37.417 7.885 58.773-.058 11.731-4.351 22.848-10.776 33-18.602 26.476-20.441 46.194-50.432 52.045-78.437 1.17-5.636 1.785-11.184 1.785-16.528v-43.131-8.001l-115.733-7.534-118.191 8.089z" fill="#ffe5c1"/><path d="m136.332 124.722c.293 13.17 11.175 23.858 24.457 23.858h185.009c13.457 0 24.457-10.98 24.457-24.413v-24.383l-116.902-19.332-117.02 19.332v24.384c-.001.174-.001.379-.001.554z" fill="#99e6fc"/><path d="m136.332 49.877v49.906h233.924v-49.906c0-27.392-22.409-49.79-49.821-49.877h-.146-133.96-.176c-27.411.088-49.821 22.486-49.821 49.877z" fill="#00c0fa"/><path d="m370.256 132.169-17.756 24.831c0 5.344 15.971 34.828 15.971 34.828 14.862.204 33.556-16.528 33.556-32.94v-13.754c0-7.125-5.354-12.966-11.878-12.966h-19.893z" fill="#ffbc85"/><path d="m329.211 49.877v43.102 6.804h41.045v-49.906c0-27.392-22.409-49.79-49.821-49.877h-.146-40.899c27.412.088 49.821 22.486 49.821 49.877z" fill="#08a9f1"/><path d="m329.211 121.51v2.657c0 13.433-11 24.413-24.457 24.413h41.045c13.457 0 24.457-10.98 24.457-24.413v-24.383h-41.045z" fill="#01d0fb"/><path d="m344.862 179.797c-11.468 54.988-78.989 108.077-134.486 102.704 4.652 2.482 9.42 4.614 14.276 6.424 21.356 7.914 37.417 7.885 58.773-.058 11.731-4.351 22.848-10.776 33-18.602 26.476-20.441 46.194-50.432 52.045-78.437 1.17-5.636 1.785-11.184 1.785-16.528v-43.131-8.001c0 13.433-11 24.413-24.457 24.413h-12.667-28.377-143.965c-13.282 0-24.165-10.688-24.457-23.858v7.447 24.559c4.359 6.746 11.965 11.243 20.566 11.243h180.592c11.059-.002 10.005-.732 7.372 11.825z" fill="#fed1a3"/></g><path d="m339.216 433.639h-28.114c-4.27 0-7.732-3.459-7.732-7.726s3.462-7.726 7.732-7.726h28.114c4.27 0 7.732 3.459 7.732 7.726s-3.462 7.726-7.732 7.726z" fill="#7b6f78"/><path d="m339.216 471.952h-28.114c-4.27 0-7.732-3.459-7.732-7.726s3.462-7.726 7.732-7.726h28.114c4.27 0 7.732 3.459 7.732 7.726s-3.462 7.726-7.732 7.726z" fill="#7b6f78"/><path d="m210.347 201.453c-4.27 0-7.732-3.459-7.732-7.726v-7.037c0-4.268 3.462-7.726 7.732-7.726s7.732 3.459 7.732 7.726v7.037c0 4.267-3.462 7.726-7.732 7.726z" fill="#7b6f78"/><path d="m302.998 201.453c-4.27 0-7.732-3.459-7.732-7.726v-7.037c0-4.268 3.462-7.726 7.732-7.726s7.732 3.459 7.732 7.726v7.037c0 4.267-3.462 7.726-7.732 7.726z" fill="#7b6f78"/><path d="m187.938 397.424h-17.085c-4.27 0-7.732 3.459-7.732 7.726v30.516 22.807c0 4.268 3.462 7.726 7.732 7.726s7.732-3.459 7.732-7.726v-15.08h9.353c12.7 0 23.032-10.304 23.032-22.97 0-12.683-10.332-22.999-23.032-22.999zm0 30.516h-9.353v-15.063h9.353c4.173 0 7.568 3.385 7.568 7.546.001 4.144-3.394 7.517-7.568 7.517z" fill="#f0eef0"/><path d="m257.565 259.828c-.048 0-.097 0-.145-.001-8.07-.152-16.17-3.393-24.074-9.635-3.35-2.646-3.92-7.505-1.272-10.853 2.647-3.347 7.51-3.917 10.859-1.272 5.138 4.057 10.06 6.178 14.633 6.306 4.592-.128 9.523-2.248 14.66-6.305 3.351-2.647 8.212-2.076 10.86 1.271 2.648 3.348 2.078 8.207-1.272 10.852-7.904 6.243-16.014 9.485-24.104 9.636-.048.001-.096.001-.145.001z" fill="#7b6f78"/></svg>