<svg id="Layer_1" enable-background="new 0 0 512 512" height="512" viewBox="0 0 512 512" width="512" xmlns="http://www.w3.org/2000/svg"><g fill="#8bc4ff"><path d="m237 170h38v33h-38z"/><path d="m162 248h-40v39h-40v39h-40v39h-34v39h216c0-64.838 0-129.786 0-195h-62z"/><path d="m470 365v-39h-40v-39h-40v-39h-40v-39h-62v195h216v-39z"/><path d="m192 108h128v34.828h-128z"/></g><path d="m504 357h-26v-31c0-4.418-3.582-8-8-8h-32v-31c0-4.418-3.582-8-8-8-16.056 0-117.821 0-134 0v-23h86v3c0 4.418 3.582 8 8 8s8-3.582 8-8v-11c0-4.418-3.582-8-8-8h-32v-31c0-4.418-3.582-8-8-8h-22c0-10.436 0-82.725 0-93 0-4.418-3.582-8-8-8h-128c-4.418 0-8 3.582-8 8v34.828c0 4.418 3.582 8 8 8h120v49.172h-29v-30c0-4.418-3.582-8-8-8h-38c-4.418 0-8 3.582-8 8v30h-29v-30c0-4.418-3.582-8-8-8s-8 3.582-8 8v31h-22c-4.418 0-8 3.582-8 8v31h-32c-4.418 0-8 3.582-8 8v31h-32c-4.418 0-8 3.582-8 8s3.582 8 8 8h134v23h-126v-7c0-4.418-3.582-8-8-8s-8 3.582-8 8v7h-32c-4.418 0-8 3.582-8 8v31h-26c-4.418 0-8 3.582-8 8v39c0 4.418 3.582 8 8 8h317.667c4.418 0 8-3.582 8-8s-3.582-8-8-8h-29.667v-23h200v23h-113c-4.418 0-8 3.582-8 8s3.582 8 8 8h121c4.418 0 8-3.582 8-8v-39c0-4.418-3.582-8-8-8zm-259-179h22v21.75h-22zm97 62h-46v-23h46zm-142-105.172v-18.828h112v18.828zm-30 82.172h46v23h-46zm-120 117h166v23h-166zm-34 39h200v23h-200zm216-86c0-4.418-3.582-8-8-8h-94v-23h86v7.667c0 4.418 3.582 8 8 8s8-3.582 8-8v-47.667h48v180h-48zm64 70c0-7.53 0-54.443 0-62h126v23h-109c-4.418 0-8 3.582-8 8s3.582 8 8 8h149v23z" fill="#2e58ff"/><path d="m355.667 396h-7.334c-4.418 0-8 3.582-8 8s3.582 8 8 8h7.334c4.418 0 8-3.582 8-8s-3.582-8-8-8z" fill="#2e58ff"/></svg>