<svg xmlns="http://www.w3.org/2000/svg" viewBox="0 0 609.51 504.39"><defs><style>.cls-1,.cls-13,.cls-4{fill:none;}.cls-1,.cls-10,.cls-12,.cls-13,.cls-2,.cls-4,.cls-7,.cls-8{stroke:#000;}.cls-1,.cls-10,.cls-12,.cls-13,.cls-2,.cls-4,.cls-7,.cls-8,.cls-9{stroke-miterlimit:10;}.cls-1{stroke-width:7px;}.cls-3{fill:#3a3a3a;}.cls-10,.cls-12,.cls-4,.cls-8,.cls-9{stroke-width:2px;}.cls-5{fill:#1661a9;}.cls-6,.cls-8{fill:#3b3224;}.cls-7{fill:#663e01;}.cls-9{stroke:#fff;}.cls-10{fill:#fac789;}.cls-11{fill:#010001;}.cls-12{fill:#cbcbcb;}</style></defs><title>Recurso 1</title><g id="Capa_2" data-name="Capa 2"><g id="Capa_1-2" data-name="Capa 1"><line class="cls-1" x1="378.08" y1="233.54" x2="296.09" y2="149.4"/><path class="cls-2" d="M276.6,140.34c0,8.14,9.2,16.29,16.42,16.29v0c.23,0,.47,0,.71,0a8.14,8.14,0,0,0,0-16.28c-.24,0-.48,0-.71,0v0Z"/><line class="cls-1" x1="521.8" y1="222.37" x2="588.31" y2="319.83"/><path class="cls-2" d="M609,335c0-8.14-9.2-16.29-16.42-16.29v.05c-.23,0-.47,0-.71,0a8.14,8.14,0,0,0,0,16.28c.24,0,.48,0,.71,0v0Z"/><rect class="cls-3" x="370.86" y="204.94" width="158.11" height="191.15" rx="14.17"/><rect class="cls-4" x="370.86" y="204.94" width="158.11" height="191.15" rx="14.17"/><path d="M526.47,389.69c-1.37,3-8.88,5.4-16.67,5.4H389.51c-7.79,0-15.29-2.43-16.67-5.4s3.88-5.41,11.67-5.41H514.8C522.59,384.28,527.85,386.71,526.47,389.69Z"/><path class="cls-4" d="M526.47,389.69c-1.37,3-8.88,5.4-16.67,5.4H389.51c-7.79,0-15.29-2.43-16.67-5.4s3.88-5.41,11.67-5.41H514.8C522.59,384.28,527.85,386.71,526.47,389.69Z"/><polygon class="cls-5" points="470.97 256.84 449.81 278 427.83 256.84 427.83 222.69 470.97 222.69 470.97 256.84"/><path class="cls-6" d="M510.64,205.13a38.84,38.84,0,0,0-18.41,5.21s-14.09,9-21.5,10.55-18,13.41-20.26,20.38a11.28,11.28,0,0,0-.59,2.67c-.22,5.49-.64,5.5-.95,0a12.3,12.3,0,0,0-.61-2.68c-2.22-7-13-18.9-20.26-20.38-7.41-1.51-21.5-10.55-21.5-10.55a38.84,38.84,0,0,0-18.41-5.21l-7.81.14c-5.5.1-6.5,3-2.21,6.46,0,0,15,12.07,20,16.41,6.26,5.38,23.13,6.31,27.93,13.13,2.09,3,.39,11.38,2,14.69,1.31,2.73,14.48,15.17,14.48,15.17,4,3.78,7.3,6.87,7.35,6.87h0c.05,0,3.28-3.17,7.18-7.05,0,0,12.36-12.26,13.66-15,1.59-3.31-.11-11.73,2-14.69,4.8-6.82,21.68-7.75,27.94-13.13,5-4.34,20-16.41,20-16.41,4.28-3.45,3.28-6.36-2.22-6.46Z"/><path class="cls-4" d="M510.64,205.13a38.84,38.84,0,0,0-18.41,5.21s-14.09,9-21.5,10.55-18,13.41-20.26,20.38a11.28,11.28,0,0,0-.59,2.67c-.22,5.49-.64,5.5-.95,0a12.3,12.3,0,0,0-.61-2.68c-2.22-7-13-18.9-20.26-20.38-7.41-1.51-21.5-10.55-21.5-10.55a38.84,38.84,0,0,0-18.41-5.21l-7.81.14c-5.5.1-6.5,3-2.21,6.46,0,0,15,12.07,20,16.41,6.26,5.38,23.13,6.31,27.93,13.13,2.09,3,.39,11.38,2,14.69,1.31,2.73,14.48,15.17,14.48,15.17,4,3.78,7.3,6.87,7.35,6.87h0c.05,0,3.28-3.17,7.18-7.05,0,0,12.36-12.26,13.66-15,1.59-3.31-.11-11.73,2-14.69,4.8-6.82,21.68-7.75,27.94-13.13,5-4.34,20-16.41,20-16.41,4.28-3.45,3.28-6.36-2.22-6.46Z"/><line class="cls-1" x1="407.84" y1="396.09" x2="407.84" y2="503.89"/><line class="cls-1" x1="490.95" y1="396.09" x2="490.95" y2="503.89"/><path class="cls-2" d="M491,503.89h25.66c0-10.36-11.49-18.76-25.66-18.76Z"/><path class="cls-2" d="M407.84,503.89H382.18c0-10.36,11.49-18.76,25.66-18.76Z"/><ellipse class="cls-7" cx="448.88" cy="304.34" rx="8.58" ry="8.8"/><path class="cls-7" d="M457.45,334.44a8.58,8.58,0,1,1-8.57-8.81A8.69,8.69,0,0,1,457.45,334.44Z"/><ellipse class="cls-7" cx="448.88" cy="365.67" rx="8.58" ry="8.8"/><polygon class="cls-8" points="508.86 274.21 496.01 281.35 482.92 274.21 482.92 253.69 508.86 253.69 508.86 274.21"/><rect class="cls-9" x="435.55" y="385.28" width="27.7" height="10.81"/><ellipse class="cls-10" cx="449.92" cy="136.53" rx="83.5" ry="85.68"/><path class="cls-2" d="M436.07,120.81a13.86,13.86,0,1,1-13.85-14.21A14,14,0,0,1,436.07,120.81Z"/><path class="cls-2" d="M491.47,120.81a13.85,13.85,0,1,1-13.85-14.21A14,14,0,0,1,491.47,120.81Z"/><path class="cls-4" d="M463.88,95s.6-4,14.3-4,15,4.53,15,4.53"/><path class="cls-4" d="M433.23,96.91s-.61-4-14.31-4-15,4.53-15,4.53"/><path class="cls-11" d="M407.18,160.35s25.43,3.34,33.86,3.34c10,0,32.4-3.34,32.4-3.34s-3.84,8.24-3.84,15.51,2.59,10.48,2.59,10.48a167.94,167.94,0,0,1-50.71,1.78C404.88,186.09,407.18,160.35,407.18,160.35Z"/><path class="cls-12" d="M580.33,188c1.42-8.86,9.72-11.67,9.72-27.77s-15.62-20.81-15.82-30c-.24-10.92,8.26-20.3,8.26-36.68s-13-20.2-17.3-28c-5.28-9.53,3.72-20.43.32-28.91-4-10-20.38-17.12-27.17-20.28-6.11-2.85-10.89-2.95-17.4-4S494.52,2.23,488,1.1c-5.57-1-13.41,5.57-19,5.08-4.74-.42-18.59-1.38-19.06,2.32-.48-3.7-14.33-2.74-19.07-2.32-5.61.49-13.46-6-19-5.08-6.51,1.13-26.41,10.12-32.93,11.19s-11.29,1.17-17.39,4c-6.8,3.16-23.18,10.3-27.18,20.28-3.4,8.48,5.6,19.38.32,28.91-4.32,7.82-17.29,11.65-17.29,28s8.49,25.76,8.26,36.68c-.2,9.17-15.83,13.87-15.83,30s8.31,18.91,9.73,27.77-5.13,20.3-5.13,39.4,27.83,50,34.86,43.91c1.69-1.49,2.36-4.41,2.4-8,1.79,5.05,9,8.56,11.87,8,6.65-1.36-5.2-23.68-4.95-31.56C358.81,232,369,220.81,371,213.43c2.15-8,.93-27.56,1.48-35.9.38-5.9-1.44-18,0-23.67,2.1-8.33,11.59-22.47,16.77-28.7,3.51-4.21,12.93-10.3,15-15.64,1.8-4.55,4.89-20,5.11-25,.32-7.46,3.07-20.12,6.32-26.55a92,92,0,0,0-5.44,20.75c-.79,7.65,0,25.77,0,25.77,6.53,3.12,14.54-8.38,17.24-14.22,2.07-4.48-3.62-18.2-.64-21,3.4-3.19,22.56-2.33,23-6.37.48,4,19.63,3.18,23,6.37,3,2.8-2.7,16.52-.63,21,2.69,5.84,10.71,17.34,17.24,14.22,0,0,.78-18.12,0-25.77a93.07,93.07,0,0,0-5.44-20.75c3.25,6.43,6,19.09,6.31,26.55.22,5,3.31,20.49,5.11,25,2.12,5.34,11.53,11.43,15,15.64,5.19,6.23,14.67,20.37,16.78,28.7,1.43,5.68-.39,17.77,0,23.67.54,8.34-.68,27.92,1.47,35.9,2,7.38,12.19,18.54,12.44,26.27.25,7.88-11.6,30.2-4.94,31.56,2.86.58,10.07-2.93,11.87-8,0,3.57.7,6.49,2.4,8,7,6.14,34.85-24.81,34.85-43.91S578.9,196.82,580.33,188ZM378.52,88.82c.1-.41.19-.86.27-1.34-.21,3-.53,6.31-1,9.57A24.33,24.33,0,0,1,378.52,88.82Zm-29.28,113c1.64-7.76,5.09-12.48,9.32-24.3,1.76-4.89-7.5-17.27-8.16-22.42-.59-4.69,4.35-13.82,10.1-22.85-3.58,6.15-9.4,16.92-9.11,22.85s7.93,16.34,8.16,22.42C359.81,184.18,350.83,195.44,349.24,201.83Zm32.84-143.9c-1.52,4.24-2.31,12.54-2.7,18.89.1-7.22.09-15.18,1.71-18.89,3.29-7.55,16.52-19,16.52-19S384.32,51.69,382.08,57.93ZM522,97.05c-.45-3.26-.76-6.6-1-9.57.08.48.17.93.27,1.34A23.82,23.82,0,0,1,522,97.05ZM502.22,39s13.23,11.42,16.53,19c1.61,3.71,1.61,11.67,1.71,18.89-.4-6.35-1.18-14.65-2.7-18.89C515.52,51.69,502.22,39,502.22,39Zm38.06,138.57c.24-6.08,7.86-16.34,8.16-22.42s-5.53-16.7-9.11-22.85c5.75,9,10.7,18.16,10.1,22.85-.66,5.15-9.91,17.53-8.16,22.42,4.23,11.82,7.68,16.54,9.33,24.3C549,195.44,540,184.18,540.28,177.53Z"/><path class="cls-13" d="M255,113.64a4.27,4.27,0,0,1-4.26,4.25h-14a10,10,0,0,0-6.89,3.33l-12.33,15.57a3.43,3.43,0,0,1-5.45.14l-14-15.85a10.78,10.78,0,0,0-7.06-3.19H4.75A4.26,4.26,0,0,1,.5,113.64V9.42A4.26,4.26,0,0,1,4.75,5.17h246A4.27,4.27,0,0,1,255,9.42Z"/></g></g></svg>