<svg xmlns="http://www.w3.org/2000/svg" viewBox="0 0 575.46 493.73"><defs><style>.cls-1,.cls-2,.cls-4,.cls-8{fill:none;}.cls-1,.cls-10,.cls-11,.cls-13,.cls-2,.cls-3,.cls-4,.cls-5,.cls-8,.cls-9{stroke:#000;}.cls-1,.cls-10,.cls-11,.cls-13,.cls-14,.cls-2,.cls-3,.cls-4,.cls-5,.cls-8,.cls-9{stroke-miterlimit:10;}.cls-2{stroke-width:8px;}.cls-4{stroke-width:10px;}.cls-5{fill:#3a3a3a;stroke-width:6px;}.cls-6{fill:#1661a9;}.cls-10,.cls-7{fill:#3b3224;}.cls-10,.cls-14,.cls-8{stroke-width:2px;}.cls-9{fill:#663e01;}.cls-11{fill:#fac789;stroke-width:5px;}.cls-12{fill:#010001;}.cls-13{fill:#cbcbcb;stroke-width:3px;}.cls-14{stroke:#fff;}</style></defs><title>Recurso 4</title><g id="Capa_2" data-name="Capa 2"><g id="Capa_1-2" data-name="Capa 1"><path class="cls-1" d="M255,119a4.27,4.27,0,0,1-4.26,4.25h-14a10,10,0,0,0-6.89,3.33l-12.33,15.57a3.43,3.43,0,0,1-5.45.14l-14-15.85a10.78,10.78,0,0,0-7.06-3.19H4.75A4.26,4.26,0,0,1,.5,119V14.81a4.26,4.26,0,0,1,4.25-4.25h246A4.27,4.27,0,0,1,255,14.81Z"/><line class="cls-2" x1="365.1" y1="234.04" x2="283.1" y2="149.9"/><path class="cls-3" d="M263.61,140.84c0,8.14,9.2,16.29,16.42,16.29v0c.24,0,.47,0,.72,0a8.14,8.14,0,0,0,0-16.28c-.25,0-.48,0-.72,0v0Z"/><line class="cls-2" x1="487.74" y1="222.87" x2="554.25" y2="320.33"/><path class="cls-3" d="M575,335.5c0-8.14-9.21-16.29-16.42-16.29v.05c-.24,0-.48,0-.72,0a8.14,8.14,0,0,0,0,16.28l.72,0v0Z"/><line class="cls-4" x1="388.6" y1="385.78" x2="388.6" y2="493.58"/><line class="cls-4" x1="471.7" y1="385.78" x2="471.7" y2="493.58"/><ellipse class="cls-5" cx="430.67" cy="301.02" rx="79.32" ry="95.58"/><polygon class="cls-6" points="451.72 257.34 430.56 278.5 408.58 257.34 408.58 223.19 451.72 223.19 451.72 257.34"/><path class="cls-7" d="M474,212.87c-6.89.48-15.07,7-22.49,8.52-7.26,1.48-18,13.41-20.25,20.38a11.08,11.08,0,0,0-.6,2.67c-.22,5.49-.64,5.5-.94,0a12.87,12.87,0,0,0-.62-2.68c-2.21-7-13-18.9-20.26-20.38s-15.4-7.89-22.3-8.34c-5.16-.33-10.25,4-10.25,4-4.2,3.55-5.28,6.82-2.41,7.27l5,4.34C385.16,234,402,235,406.84,241.77c2.08,3,.38,11.38,2,14.69,1.31,2.73,14.48,15.17,14.48,15.17,4,3.78,7.31,6.87,7.35,6.87h0c.05,0,3.28-3.17,7.18-7.05,0,0,12.36-12.26,13.66-15,1.59-3.31-.1-11.73,2-14.69,4.8-6.82,21.68-7.75,27.94-13.13l5-4.34c3.09-.66,2.14-4.06-2.11-7.55C484.33,216.75,479.16,212.5,474,212.87Z"/><path class="cls-8" d="M474,212.87c-6.89.48-15.07,7-22.49,8.52-7.26,1.48-18,13.41-20.25,20.38a11.08,11.08,0,0,0-.6,2.67c-.22,5.49-.64,5.5-.94,0a12.87,12.87,0,0,0-.62-2.68c-2.21-7-13-18.9-20.26-20.38s-15.4-7.89-22.3-8.34c-5.16-.33-10.25,4-10.25,4-4.2,3.55-5.28,6.82-2.41,7.27l5,4.34C385.16,234,402,235,406.84,241.77c2.08,3,.38,11.38,2,14.69,1.31,2.73,14.48,15.17,14.48,15.17,4,3.78,7.31,6.87,7.35,6.87h0c.05,0,3.28-3.17,7.18-7.05,0,0,12.36-12.26,13.66-15,1.59-3.31-.1-11.73,2-14.69,4.8-6.82,21.68-7.75,27.94-13.13l5-4.34c3.09-.66,2.14-4.06-2.11-7.55C484.33,216.75,479.16,212.5,474,212.87Z"/><path class="cls-3" d="M471.39,493.23h25.67c0-10.36-11.49-18.76-25.67-18.76Z"/><path class="cls-3" d="M388.6,493.23H362.93c0-10.36,11.49-18.76,25.67-18.76Z"/><ellipse class="cls-9" cx="429.63" cy="304.84" rx="8.58" ry="8.8"/><path class="cls-9" d="M438.21,334.94a8.58,8.58,0,1,1-8.58-8.81A8.69,8.69,0,0,1,438.21,334.94Z"/><polygon class="cls-10" points="489.61 274.71 476.76 281.85 463.68 274.71 463.68 254.19 489.61 254.19 489.61 274.71"/><path class="cls-10" d="M492.06,379.94s-40.34-.55-61.91-.55H369.77l-9-11.76H500.6Z"/><ellipse class="cls-11" cx="430.67" cy="137.03" rx="83.5" ry="85.68"/><path class="cls-3" d="M416.82,121.31A13.85,13.85,0,1,1,403,107.1,14,14,0,0,1,416.82,121.31Z"/><path class="cls-3" d="M472.22,121.31a13.85,13.85,0,1,1-13.85-14.21A14,14,0,0,1,472.22,121.31Z"/><path class="cls-8" d="M444.63,95.54s.61-4,14.3-4,15,4.53,15,4.53"/><path class="cls-8" d="M414,97.41s-.61-4-14.31-4-15,4.53-15,4.53"/><path class="cls-12" d="M387.93,160.85s25.44,3.34,33.87,3.34c10,0,32.39-3.34,32.39-3.34s-3.84,8.24-3.84,15.51,2.6,10.48,2.6,10.48a168,168,0,0,1-50.72,1.78C385.63,186.59,387.93,160.85,387.93,160.85Z"/><path class="cls-13" d="M561.08,188.45c1.42-8.86,9.73-11.67,9.73-27.77s-15.63-20.81-15.83-30c-.24-10.92,8.26-20.3,8.26-36.68s-13-20.2-17.3-28c-5.27-9.53,3.72-20.43.33-28.91-4-10-20.38-17.12-27.18-20.28-6.1-2.85-10.89-2.95-17.4-4S475.28,2.73,468.76,1.6c-5.57-1-13.41,5.57-19,5.08C445,6.26,431.15,5.3,430.67,9c-.48-3.7-14.33-2.74-19.06-2.32-5.62.49-13.46-6-19-5.08-6.52,1.13-26.41,10.12-32.94,11.19s-11.29,1.17-17.39,4c-6.8,3.16-23.18,10.3-27.18,20.28-3.39,8.48,5.6,19.38.33,28.91-4.33,7.82-17.3,11.65-17.3,28s8.49,25.76,8.26,36.68c-.2,9.17-15.83,13.87-15.83,30s8.31,18.91,9.73,27.77-5.13,20.3-5.13,39.4S323,277.9,330,271.76c1.7-1.49,2.36-4.41,2.4-8,1.8,5.05,9,8.56,11.87,8,6.65-1.36-5.19-23.68-4.94-31.56.24-7.73,10.45-18.89,12.44-26.27,2.15-8,.92-27.56,1.47-35.9.39-5.9-1.43-18,0-23.67,2.1-8.33,11.59-22.47,16.78-28.7,3.5-4.21,12.92-10.3,15-15.64,1.81-4.55,4.9-20,5.11-25,.33-7.46,3.07-20.12,6.32-26.55A92.53,92.53,0,0,0,391,79.18c-.78,7.65,0,25.77,0,25.77,6.53,3.12,14.55-8.38,17.24-14.22,2.07-4.48-3.62-18.2-.63-21,3.39-3.19,22.55-2.33,23-6.37.48,4,19.64,3.18,23,6.37,3,2.8-2.7,16.52-.63,21,2.69,5.84,10.71,17.34,17.24,14.22,0,0,.78-18.12,0-25.77a92.53,92.53,0,0,0-5.44-20.75c3.25,6.43,6,19.09,6.32,26.55.21,5,3.3,20.49,5.11,25,2.11,5.34,11.53,11.43,15,15.64,5.19,6.23,14.67,20.37,16.78,28.7,1.43,5.68-.39,17.77,0,23.67.54,8.34-.68,27.92,1.47,35.9,2,7.38,12.2,18.54,12.44,26.27.25,7.88-11.59,30.2-4.94,31.56,2.87.58,10.07-2.93,11.87-8,0,3.57.7,6.49,2.4,8,7,6.14,34.86-24.81,34.86-43.91S559.65,197.32,561.08,188.45ZM359.27,89.32c.11-.41.2-.86.28-1.34-.22,3-.53,6.31-1,9.57A24,24,0,0,1,359.27,89.32ZM330,202.33c1.65-7.76,5.09-12.48,9.33-24.3,1.75-4.89-7.5-17.27-8.16-22.42-.6-4.69,4.35-13.82,10.1-22.85-3.59,6.15-9.41,16.92-9.11,22.85S340.07,172,340.31,178C340.56,184.68,331.58,195.94,330,202.33Zm32.84-143.9c-1.52,4.24-2.3,12.54-2.7,18.89.1-7.22.09-15.18,1.71-18.89,3.3-7.55,16.52-19,16.52-19S365.07,52.19,362.83,58.43ZM502.77,97.55c-.45-3.26-.76-6.6-1-9.57.08.48.17.93.28,1.34A24,24,0,0,1,502.77,97.55ZM483,39.46s13.22,11.42,16.52,19c1.62,3.71,1.61,11.67,1.71,18.89-.4-6.35-1.18-14.65-2.7-18.89C496.27,52.19,483,39.46,483,39.46ZM521,178c.24-6.08,7.86-16.34,8.16-22.42s-5.52-16.7-9.11-22.85c5.75,9,10.7,18.16,10.1,22.85-.66,5.15-9.91,17.53-8.16,22.42,4.24,11.82,7.68,16.54,9.33,24.3C529.76,195.94,520.78,184.68,521,178Z"/><rect class="cls-14" x="416.3" y="368.38" width="27.7" height="10.81"/></g></g></svg>