<svg xmlns="http://www.w3.org/2000/svg" viewBox="0 0 547.5 486.96"><defs><style>.cls-1,.cls-12,.cls-14,.cls-2,.cls-5{fill:none;}.cls-1,.cls-11,.cls-14,.cls-2,.cls-3,.cls-4,.cls-5,.cls-6,.cls-7,.cls-9{stroke:#000;}.cls-1,.cls-10,.cls-11,.cls-12,.cls-13,.cls-14,.cls-2,.cls-3,.cls-4,.cls-5,.cls-6,.cls-7,.cls-8,.cls-9{stroke-miterlimit:10;}.cls-2{stroke-width:8px;}.cls-13,.cls-4{fill:#977b53;}.cls-4{stroke-width:6px;}.cls-5{stroke-width:10px;}.cls-6{fill:#fac789;stroke-width:5px;}.cls-7{fill:#663e01;}.cls-8{fill:#141b13;}.cls-10,.cls-12,.cls-13,.cls-8{stroke:#3b3224;}.cls-9{fill:#fff;}.cls-10,.cls-11,.cls-13,.cls-14,.cls-9{stroke-width:2px;}.cls-11{fill:#3b3224;}.cls-12{stroke-width:3px;}.cls-15{fill:#010001;}</style></defs><title>Recurso 5</title><g id="Capa_2" data-name="Capa 2"><g id="Capa_1-2" data-name="Capa 1"><path class="cls-1" d="M255,109a4.27,4.27,0,0,1-4.26,4.25h-14a9.94,9.94,0,0,0-6.89,3.34l-12.33,15.56a3.43,3.43,0,0,1-5.45.14l-14-15.84a10.74,10.74,0,0,0-7.06-3.2H4.75A4.26,4.26,0,0,1,.5,109V4.75A4.26,4.26,0,0,1,4.75.5h246A4.27,4.27,0,0,1,255,4.75Z"/><line class="cls-2" x1="337.13" y1="227.26" x2="255.14" y2="143.13"/><path class="cls-3" d="M235.65,134.06c0,8.14,9.2,16.29,16.42,16.29v0c.23,0,.47,0,.71,0a8.14,8.14,0,0,0,0-16.28c-.24,0-.48,0-.71,0v0Z"/><line class="cls-2" x1="459.78" y1="216.09" x2="526.29" y2="313.56"/><path class="cls-3" d="M547,328.73c0-8.14-9.21-16.29-16.43-16.29v.05c-.23,0-.47,0-.71,0a8.14,8.14,0,0,0,0,16.28,5.53,5.53,0,0,0,.71,0v0Z"/><ellipse class="cls-4" cx="399.3" cy="291.25" rx="79.32" ry="95.58"/><line class="cls-5" x1="440.48" y1="379.01" x2="440.48" y2="486.81"/><path class="cls-3" d="M440.17,486.46h25.67c0-10.36-11.49-18.76-25.67-18.76Z"/><line class="cls-5" x1="357.37" y1="379.01" x2="357.37" y2="486.81"/><path class="cls-3" d="M357.37,486.46H331.71c0-10.36,11.49-18.76,25.66-18.76Z"/><circle class="cls-6" cx="399.3" cy="130.75" r="84.5"/><path class="cls-3" d="M385.28,115.25a14,14,0,1,1-14-14A14,14,0,0,1,385.28,115.25Z"/><path class="cls-3" d="M441.35,115.25a14,14,0,1,1-14-14A14,14,0,0,1,441.35,115.25Z"/><path class="cls-7" d="M407.45,329.2a8.68,8.68,0,1,1-8.68-8.68A8.67,8.67,0,0,1,407.45,329.2Z"/><path class="cls-8" d="M455.84,369.65H399.3c-29.85,0-57.87-.52-57.87-.52l-9.72-11.33H465.84Z"/><path class="cls-9" d="M444.67,202.18c-5.55,4.16-16.28,8.8-23.78,10.28-7.35,1.46-18.26,13.23-20.5,20.1-.57,1.75-.87,9.46-1,12.49-.24-3-.61-10.74-1.18-12.49-2.24-6.87-13.15-18.64-20.5-20.1s-18.83-5.67-24.37-9.82l-5.81,4s-5.2,8.65-.09,12.93c6.33,5.31,23.41,6.23,28.27,12.95,2.11,2.92,22.07,11.22,23.68,14.5h0c1.61-3.28,21.39-11.58,23.5-14.5,4.86-6.72,21.94-7.64,28.27-12.95,5.11-4.28,0-13.62,0-13.62Z"/><polygon class="cls-10" points="416.13 290.86 399.71 308.61 382.47 290.86 389.47 236.18 409.13 236.18 416.13 290.86"/><polygon class="cls-10" points="409.13 236.18 389.47 236.18 382.47 215.12 416.13 215.12 409.13 236.18"/><rect class="cls-11" x="419.1" y="249.7" width="55" height="5.51"/><rect class="cls-11" x="324.76" y="249.7" width="55" height="5.51"/><path d="M471.91,64.51c-3.81-4.83-11.55-16-11.55-16-3.14-4.52-10.1-9.2-15.47-10.41,0,0-11.21-2.52-16.47-1.8-6.38.87-17.62,3-17.62,3-5.4,1-10.29,3.32-10.86,5.06s-1.66,2.17-2.27.28-5.56-4.1-11-4.89c0,0-11.17-1.63-17.54-2.5-5.26-.72-21.29,1.06-26.23,3s-13.34,19.33-17.15,24.16c-4.58,5.81-10.85,25.64-10.85,25.64-1.66,5.24.49,6.7,4.77,3.25,0,0,10.15-8.21,17.6-11.81,5.8-2.81,16.56-15.32,22.72-17.26,8.7-2.74,29,1.18,29,1.18a62.21,62.21,0,0,0,19.64,0s20.27-3.92,29-1.18c6.15,1.94,16.91,14.45,22.72,17.26,7.44,3.6,17.6,11.81,17.6,11.81,4.28,3.45,6.44,2,4.8-3.27C482.68,90.13,476.49,70.32,471.91,64.51Z"/><path class="cls-12" d="M471.91,64.51c-3.81-4.83-11.55-16-11.55-16-3.14-4.52-10.1-9.2-15.47-10.41,0,0-11.21-2.52-16.47-1.8-6.38.87-17.62,3-17.62,3-5.4,1-10.29,3.32-10.86,5.06s-1.66,2.17-2.27.28-5.56-4.1-11-4.89c0,0-11.17-1.63-17.54-2.5-5.26-.72-21.29,1.06-26.23,3s-13.34,19.33-17.15,24.16c-4.58,5.81-10.85,25.64-10.85,25.64-1.66,5.24.49,6.7,4.77,3.25,0,0,10.15-8.21,17.6-11.81,5.8-2.81,16.56-15.32,22.72-17.26,8.7-2.74,29,1.18,29,1.18a62.21,62.21,0,0,0,19.64,0s20.27-3.92,29-1.18c6.15,1.94,16.91,14.45,22.72,17.26,7.44,3.6,17.6,11.81,17.6,11.81,4.28,3.45,6.44,2,4.8-3.27C482.68,90.13,476.49,70.32,471.91,64.51Z"/><rect class="cls-13" x="385.28" y="358.4" width="28.03" height="10.66"/><path class="cls-14" d="M413.43,88.77s.61-4,14.3-4,15,4.53,15,4.53"/><path class="cls-15" d="M355.79,160.24s25.43,3.34,33.86,3.34c10,0,32.4-3.34,32.4-3.34s-3.84,8.24-3.84,15.51,2.6,10.48,2.6,10.48A167.84,167.84,0,0,1,370.09,188C353.49,186,355.79,160.24,355.79,160.24Z"/><path class="cls-14" d="M382.78,90.64s-.61-4-14.31-4-15,4.53-15,4.53"/><path class="cls-11" d="M427.54,159.87c-1.29-2.36-6.81-4.35-9.25-5.48-4.38-2-15.31-5.3-19.52-2.61-4.21-2.69-15.13.59-19.52,2.61-2.44,1.13-7.95,3.12-9.25,5.48,0,0-1.23,5.24,0,6.16,0,0,6.9-2.1,9.25-2.57a75,75,0,0,1,12.33-1c1.43,0,4.93.57,6.68.85v.17l.51-.08.52.08v-.17c1.74-.28,5.24-.82,6.67-.85a74.78,74.78,0,0,1,12.33,1c2.36.47,9.25,2.57,9.25,2.57C428.78,165.11,427.54,159.87,427.54,159.87Z"/></g></g></svg>