<svg xmlns="http://www.w3.org/2000/svg" viewBox="0 0 725.23 452.24"><defs><style>.cls-1,.cls-11,.cls-13,.cls-15,.cls-4{fill:none;}.cls-1,.cls-10,.cls-13,.cls-15,.cls-2,.cls-3,.cls-4,.cls-5,.cls-6,.cls-8{stroke:#000;}.cls-1,.cls-10,.cls-11,.cls-12,.cls-13,.cls-15,.cls-2,.cls-3,.cls-4,.cls-5,.cls-6,.cls-7,.cls-8,.cls-9{stroke-miterlimit:10;}.cls-1{stroke-width:8px;}.cls-12,.cls-3{fill:#977b53;}.cls-3{stroke-width:6px;}.cls-4{stroke-width:10px;}.cls-5{fill:#fac789;stroke-width:5px;}.cls-6{fill:#663e01;}.cls-7{fill:#141b13;}.cls-11,.cls-12,.cls-7,.cls-9{stroke:#3b3224;}.cls-8{fill:#fff;}.cls-10,.cls-12,.cls-13,.cls-8,.cls-9{stroke-width:2px;}.cls-10{fill:#3b3224;}.cls-11{stroke-width:3px;}.cls-14{fill:#010001;}</style></defs><title>Recurso 10</title><g id="Capa_2" data-name="Capa 2"><g id="Capa_1-2" data-name="Capa 1"><line class="cls-1" x1="514.86" y1="192.54" x2="432.87" y2="108.41"/><path class="cls-2" d="M413.38,99.34c0,8.14,9.2,16.29,16.42,16.29v0c.24,0,.47,0,.72,0a8.15,8.15,0,0,0,0-16.29c-.25,0-.48,0-.72,0v0Z"/><line class="cls-1" x1="637.51" y1="181.37" x2="704.02" y2="278.84"/><path class="cls-2" d="M724.73,294c0-8.14-9.21-16.29-16.42-16.29v0c-.24,0-.48,0-.72,0a8.14,8.14,0,0,0,0,16.28,5.79,5.79,0,0,0,.72,0v0Z"/><ellipse class="cls-3" cx="577.03" cy="256.53" rx="79.32" ry="95.58"/><line class="cls-4" x1="618.21" y1="344.29" x2="618.21" y2="452.09"/><path class="cls-2" d="M617.9,451.74h25.67c0-10.36-11.49-18.76-25.67-18.76Z"/><line class="cls-4" x1="535.11" y1="344.29" x2="535.11" y2="452.09"/><path class="cls-2" d="M535.11,451.74H509.44c0-10.36,11.49-18.76,25.67-18.76Z"/><circle class="cls-5" cx="577.03" cy="96.03" r="84.5"/><path class="cls-2" d="M563,80.53a14,14,0,1,1-14-14A14,14,0,0,1,563,80.53Z"/><path class="cls-2" d="M619.08,80.53a14,14,0,1,1-14-14A14,14,0,0,1,619.08,80.53Z"/><path class="cls-6" d="M585.18,294.48a8.68,8.68,0,1,1-8.68-8.68A8.67,8.67,0,0,1,585.18,294.48Z"/><path class="cls-7" d="M633.57,334.93H577c-29.84,0-57.87-.52-57.87-.52l-9.72-11.33H643.57Z"/><path class="cls-8" d="M622.4,167.46c-5.55,4.16-16.28,8.8-23.78,10.28s-18.26,13.23-20.5,20.1c-.57,1.75-.87,9.46-1,12.49-.24-3-.61-10.74-1.18-12.49-2.24-6.87-13.15-18.64-20.5-20.1-7.5-1.48-18.82-5.66-24.37-9.82l-5.81,4s-5.2,8.65-.09,12.93c6.33,5.31,23.41,6.23,28.27,13,2.11,2.92,22.07,11.22,23.68,14.5h0c1.61-3.28,21.39-11.58,23.5-14.5,4.86-6.72,21.94-7.64,28.27-13,5.11-4.28,0-13.62,0-13.62Z"/><polygon class="cls-9" points="593.86 256.14 577.45 273.89 560.2 256.14 567.2 201.46 586.86 201.46 593.86 256.14"/><polygon class="cls-9" points="586.86 201.46 567.2 201.46 560.2 180.4 593.86 180.4 586.86 201.46"/><rect class="cls-10" x="596.84" y="214.98" width="55" height="5.51"/><rect class="cls-10" x="502.49" y="214.98" width="55" height="5.51"/><path d="M649.64,29.79c-3.81-4.83-11.55-15.95-11.55-15.95C635,9.32,628,4.64,622.62,3.43c0,0-11.21-2.52-16.47-1.8-6.38.87-17.62,3.05-17.62,3.05-5.4,1-10.29,3.32-10.86,5.06S576,11.91,575.4,10s-5.56-4.1-11-4.89c0,0-11.17-1.63-17.54-2.5-5.26-.72-21.29,1.06-26.23,3S507.29,25,503.48,29.79c-4.57,5.81-10.85,25.64-10.85,25.64-1.66,5.24.49,6.7,4.77,3.25,0,0,10.15-8.21,17.6-11.81,5.81-2.81,16.56-15.32,22.72-17.26,8.7-2.74,29,1.18,29,1.18a62.21,62.21,0,0,0,19.64,0s20.27-3.92,29-1.18c6.16,1.94,16.91,14.45,22.72,17.26,7.44,3.6,17.6,11.81,17.6,11.81,4.28,3.45,6.44,2,4.8-3.27C660.41,55.41,654.22,35.6,649.64,29.79Z"/><path class="cls-11" d="M649.64,29.79c-3.81-4.83-11.55-15.95-11.55-15.95C635,9.32,628,4.64,622.62,3.43c0,0-11.21-2.52-16.47-1.8-6.38.87-17.62,3.05-17.62,3.05-5.4,1-10.29,3.32-10.86,5.06S576,11.91,575.4,10s-5.56-4.1-11-4.89c0,0-11.17-1.63-17.54-2.5-5.26-.72-21.29,1.06-26.23,3S507.29,25,503.48,29.79c-4.57,5.81-10.85,25.64-10.85,25.64-1.66,5.24.49,6.7,4.77,3.25,0,0,10.15-8.21,17.6-11.81,5.81-2.81,16.56-15.32,22.72-17.26,8.7-2.74,29,1.18,29,1.18a62.21,62.21,0,0,0,19.64,0s20.27-3.92,29-1.18c6.16,1.94,16.91,14.45,22.72,17.26,7.44,3.6,17.6,11.81,17.6,11.81,4.28,3.45,6.44,2,4.8-3.27C660.41,55.41,654.22,35.6,649.64,29.79Z"/><rect class="cls-12" x="563.01" y="323.68" width="28.03" height="10.66"/><path class="cls-13" d="M591.16,54.05s.61-4,14.31-4,15,4.53,15,4.53"/><path class="cls-14" d="M533.52,125.52s25.43,3.34,33.87,3.34c10,0,32.39-3.34,32.39-3.34s-3.84,8.24-3.84,15.51,2.6,10.48,2.6,10.48a167.84,167.84,0,0,1-50.72,1.77C531.22,151.25,533.52,125.52,533.52,125.52Z"/><path class="cls-13" d="M560.51,55.92s-.6-4-14.3-4-15,4.53-15,4.53"/><path class="cls-10" d="M605.27,125.15c-1.29-2.36-6.81-4.35-9.24-5.48-4.39-2-15.32-5.3-19.53-2.61-4.2-2.69-15.13.59-19.52,2.61-2.44,1.13-8,3.12-9.24,5.48,0,0-1.24,5.24,0,6.16,0,0,6.89-2.1,9.24-2.57a75,75,0,0,1,12.33-1c1.43,0,4.93.57,6.68.85v.17l.51-.08.52.08v-.17c1.74-.28,5.24-.82,6.68-.85a75,75,0,0,1,12.33,1c2.35.47,9.24,2.57,9.24,2.57C606.51,130.39,605.27,125.15,605.27,125.15Z"/><line class="cls-15" y1="82.74" x2="318.71" y2="82.74"/><line class="cls-15" x1="318.71" y1="82.74" x2="345.47" y2="109.5"/><line class="cls-15" x1="369.33" y1="82.74" x2="342.57" y2="109.5"/><line class="cls-15" x1="369.33" y1="82.74" x2="414.32" y2="82.74"/></g></g></svg>