<svg xmlns="http://www.w3.org/2000/svg" viewBox="0 0 762.65 493.73"><defs><style>.cls-1,.cls-14,.cls-3,.cls-7{fill:none;}.cls-1,.cls-10,.cls-12,.cls-14,.cls-2,.cls-3,.cls-4,.cls-7,.cls-8,.cls-9{stroke:#000;}.cls-1,.cls-10,.cls-12,.cls-13,.cls-14,.cls-2,.cls-3,.cls-4,.cls-7,.cls-8,.cls-9{stroke-miterlimit:10;}.cls-1{stroke-width:8px;}.cls-3{stroke-width:10px;}.cls-4{fill:#3a3a3a;stroke-width:6px;}.cls-5{fill:#1661a9;}.cls-6,.cls-9{fill:#3b3224;}.cls-13,.cls-7,.cls-9{stroke-width:2px;}.cls-8{fill:#663e01;}.cls-10{fill:#fac789;stroke-width:5px;}.cls-11{fill:#010001;}.cls-12{fill:#cbcbcb;stroke-width:3px;}.cls-13{stroke:#fff;}</style></defs><title>Recurso 9</title><g id="Capa_2" data-name="Capa 2"><g id="Capa_1-2" data-name="Capa 1"><line class="cls-1" x1="552.28" y1="234.04" x2="470.29" y2="149.9"/><path class="cls-2" d="M450.8,140.84c0,8.14,9.2,16.29,16.42,16.29v0c.24,0,.47,0,.71,0a8.14,8.14,0,0,0,0-16.28c-.24,0-.47,0-.71,0v0Z"/><line class="cls-1" x1="674.93" y1="222.87" x2="741.44" y2="320.33"/><path class="cls-2" d="M762.15,335.5c0-8.14-9.21-16.29-16.42-16.29v.05c-.24,0-.48,0-.72,0a8.14,8.14,0,0,0,0,16.28l.72,0v0Z"/><line class="cls-3" x1="575.78" y1="385.78" x2="575.78" y2="493.58"/><line class="cls-3" x1="658.89" y1="385.78" x2="658.89" y2="493.58"/><ellipse class="cls-4" cx="617.86" cy="301.02" rx="79.32" ry="95.58"/><polygon class="cls-5" points="638.91 257.34 617.75 278.5 595.77 257.34 595.77 223.19 638.91 223.19 638.91 257.34"/><path class="cls-6" d="M661.16,212.87c-6.89.48-15.08,7-22.49,8.52-7.26,1.48-18,13.41-20.26,20.38a11.28,11.28,0,0,0-.59,2.67c-.22,5.49-.64,5.5-1,0a12.3,12.3,0,0,0-.61-2.68c-2.22-7-13-18.9-20.26-20.38s-15.4-7.89-22.3-8.34c-5.17-.33-10.25,4-10.25,4-4.2,3.55-5.29,6.82-2.41,7.27l5.05,4.34C572.35,234,589.22,235,594,241.77c2.08,3,.38,11.38,2,14.69,1.31,2.73,14.48,15.17,14.48,15.17,4,3.78,7.31,6.87,7.35,6.87h0s3.28-3.17,7.18-7.05c0,0,12.36-12.26,13.66-15,1.59-3.31-.11-11.73,2-14.69,4.8-6.82,21.68-7.75,27.94-13.13l5-4.34c3.09-.66,2.14-4.06-2.11-7.55C671.52,216.75,666.35,212.5,661.16,212.87Z"/><path class="cls-7" d="M661.16,212.87c-6.89.48-15.08,7-22.49,8.52-7.26,1.48-18,13.41-20.26,20.38a11.28,11.28,0,0,0-.59,2.67c-.22,5.49-.64,5.5-1,0a12.3,12.3,0,0,0-.61-2.68c-2.22-7-13-18.9-20.26-20.38s-15.4-7.89-22.3-8.34c-5.17-.33-10.25,4-10.25,4-4.2,3.55-5.29,6.82-2.41,7.27l5.05,4.34C572.35,234,589.22,235,594,241.77c2.08,3,.38,11.38,2,14.69,1.31,2.73,14.48,15.17,14.48,15.17,4,3.78,7.31,6.87,7.35,6.87h0s3.28-3.17,7.18-7.05c0,0,12.36-12.26,13.66-15,1.59-3.31-.11-11.73,2-14.69,4.8-6.82,21.68-7.75,27.94-13.13l5-4.34c3.09-.66,2.14-4.06-2.11-7.55C671.52,216.75,666.35,212.5,661.16,212.87Z"/><path class="cls-2" d="M658.58,493.23h25.67c0-10.36-11.49-18.76-25.67-18.76Z"/><path class="cls-2" d="M575.78,493.23H550.12c0-10.36,11.49-18.76,25.66-18.76Z"/><ellipse class="cls-8" cx="616.82" cy="304.84" rx="8.58" ry="8.8"/><path class="cls-8" d="M625.39,334.94a8.58,8.58,0,1,1-8.57-8.81A8.69,8.69,0,0,1,625.39,334.94Z"/><polygon class="cls-9" points="676.8 274.71 663.95 281.85 650.86 274.71 650.86 254.19 676.8 254.19 676.8 274.71"/><path class="cls-9" d="M679.25,379.94s-40.34-.55-61.91-.55H557l-9-11.76H687.79Z"/><ellipse class="cls-10" cx="617.86" cy="137.03" rx="83.5" ry="85.68"/><path class="cls-2" d="M604,121.31a13.85,13.85,0,1,1-13.85-14.21A14,14,0,0,1,604,121.31Z"/><path class="cls-2" d="M659.41,121.31a13.85,13.85,0,1,1-13.85-14.21A14,14,0,0,1,659.41,121.31Z"/><path class="cls-7" d="M631.82,95.54s.6-4,14.3-4,15,4.53,15,4.53"/><path class="cls-7" d="M601.17,97.41s-.61-4-14.31-4-15,4.53-15,4.53"/><path class="cls-11" d="M575.12,160.85s25.43,3.34,33.86,3.34c10,0,32.4-3.34,32.4-3.34s-3.84,8.24-3.84,15.51,2.6,10.48,2.6,10.48a168,168,0,0,1-50.72,1.78C572.82,186.59,575.12,160.85,575.12,160.85Z"/><path class="cls-12" d="M748.27,188.45c1.42-8.86,9.73-11.67,9.73-27.77s-15.63-20.81-15.83-30c-.24-10.92,8.26-20.3,8.26-36.68s-13-20.2-17.3-28c-5.28-9.53,3.72-20.43.32-28.91-4-10-20.38-17.12-27.17-20.28-6.1-2.85-10.89-2.95-17.4-4S662.46,2.73,656,1.6c-5.57-1-13.41,5.57-19,5.08C632.18,6.26,618.34,5.3,617.86,9c-.48-3.7-14.33-2.74-19.07-2.32-5.61.49-13.46-6-19-5.08-6.51,1.13-26.41,10.12-32.93,11.19s-11.29,1.17-17.39,4c-6.8,3.16-23.18,10.3-27.18,20.28-3.39,8.48,5.6,19.38.32,28.91-4.32,7.82-17.29,11.65-17.29,28s8.49,25.76,8.26,36.68c-.2,9.17-15.83,13.87-15.83,30s8.31,18.91,9.73,27.77-5.13,20.3-5.13,39.4,27.83,50,34.86,43.91c1.7-1.49,2.36-4.41,2.4-8,1.79,5.05,9,8.56,11.87,8,6.65-1.36-5.2-23.68-4.94-31.56.24-7.73,10.44-18.89,12.43-26.27,2.15-8,.93-27.56,1.48-35.9.39-5.9-1.43-18,0-23.67,2.1-8.33,11.59-22.47,16.77-28.7,3.51-4.21,12.93-10.3,15-15.64,1.8-4.55,4.9-20,5.11-25,.33-7.46,3.07-20.12,6.32-26.55a92.53,92.53,0,0,0-5.44,20.75c-.79,7.65,0,25.77,0,25.77,6.53,3.12,14.54-8.38,17.24-14.22,2.07-4.48-3.62-18.2-.64-21,3.4-3.19,22.56-2.33,23-6.37.48,4,19.63,3.18,23,6.37,3,2.8-2.7,16.52-.63,21C643,96.57,651,108.07,657.5,105c0,0,.78-18.12,0-25.77a93.07,93.07,0,0,0-5.44-20.75c3.25,6.43,6,19.09,6.31,26.55.22,5,3.31,20.49,5.11,25,2.12,5.34,11.53,11.43,15,15.64,5.19,6.23,14.67,20.37,16.78,28.7,1.43,5.68-.39,17.77,0,23.67.54,8.34-.68,27.92,1.47,35.9,2,7.38,12.2,18.54,12.44,26.27.25,7.88-11.6,30.2-4.94,31.56,2.86.58,10.07-2.93,11.87-8,0,3.57.7,6.49,2.4,8,7,6.14,34.85-24.81,34.85-43.91S746.84,197.32,748.27,188.45ZM546.46,89.32c.1-.41.19-.86.27-1.34-.21,3-.52,6.31-1,9.57A24,24,0,0,1,546.46,89.32Zm-29.28,113c1.64-7.76,5.09-12.48,9.33-24.3,1.75-4.89-7.51-17.27-8.17-22.42-.59-4.69,4.35-13.82,10.1-22.85-3.58,6.15-9.4,16.92-9.11,22.85S527.26,172,527.49,178C527.75,184.68,518.77,195.94,517.18,202.33ZM550,58.43c-1.52,4.24-2.31,12.54-2.7,18.89.1-7.22.09-15.18,1.71-18.89,3.29-7.55,16.52-19,16.52-19S552.26,52.19,550,58.43ZM690,97.55c-.45-3.26-.76-6.6-1-9.57.08.48.17.93.28,1.34A24,24,0,0,1,690,97.55Zm-19.8-58.09s13.23,11.42,16.53,19c1.61,3.71,1.61,11.67,1.71,18.89-.4-6.35-1.18-14.65-2.7-18.89C683.46,52.19,670.16,39.46,670.16,39.46ZM708.22,178c.24-6.08,7.86-16.34,8.16-22.42s-5.53-16.7-9.11-22.85c5.75,9,10.7,18.16,10.1,22.85-.66,5.15-9.91,17.53-8.16,22.42,4.23,11.82,7.68,16.54,9.33,24.3C717,195.94,708,184.68,708.22,178Z"/><rect class="cls-13" x="603.49" y="368.38" width="27.7" height="10.81"/><line class="cls-14" y1="121.31" x2="318.71" y2="121.31"/><line class="cls-14" x1="318.71" y1="121.31" x2="345.47" y2="148.07"/><line class="cls-14" x1="369.33" y1="121.31" x2="342.57" y2="148.07"/><line class="cls-14" x1="369.33" y1="121.31" x2="414.32" y2="121.31"/></g></g></svg>