<svg width="412" height="347" viewBox="0 0 412 347" version="1.1" xmlns="http://www.w3.org/2000/svg" xmlns:xlink="http://www.w3.org/1999/xlink"><title>jobs-pie</title><defs><path d="M371.616 269.179c19.97-31.781 25.262-72.255 11-110l-116 44 105 66z" id="a"/><path d="M267.093 212.544l-.73-.327c.598-.524 1.674-1.34 3.156-2.406L374.436 152.2a125.873 125.873 0 0 1 4.501 9.068c-26.48 12.442-101.145 47.42-111.844 51.277z" id="b"/></defs><g stroke="none" stroke-width="1" fill="none" fill-rule="evenodd"><g><g><path d="M177.712 218.222c-.09 27.835 12.5 55.356 36.482 73.387l55.456-73.425-91.938.038z" fill="#4E60EA"/><path fill="#2E42D6" opacity=".7" d="M205.79 285.271l8.527 7.582L269.6 218.16z"/></g><g><path d="M214.237 291.688c22.176 16.824 51.733 23.332 80.565 15.03l-25.265-88.478-55.3 73.448z" fill="#E53838"/><path fill="#C82A2A" opacity=".7" d="M284.684 309.615l11.186-2.247-26.382-89.103z"/></g><g><g transform="translate(4 6)"><path d="M308 63c-45.441-12.986-96.308-5.339-137 25l94 125 43-150z" fill="#A560E8"/><path d="M259.818 206.109L171 88a158.229 158.229 0 0 1 9.044-6.266L263 210l-3.182-3.891z" fill="#9857D6"/><path d="M105.748.396L265.392 212.25H.5v-.5C.5 125.374 41.826 48.667 105.748.396z" fill="#1CB0F6"/><path d="M294.582 60.196L264.876 212.72l135.795-74.635c-22.72-41.23-55.946-70.77-106.09-77.89z" fill="#969696"/><path d="M303.766 61.786L265.98 207.054l28.602-146.858c3.126.444 6.187.975 9.184 1.59z" fill="#8A8A8A"/><mask fill="#fff"><use xlink:href="#a"/></mask><use fill="#7AC70C" transform="rotate(-8 328.616 214.179)" xlink:href="#a"/><mask fill="#fff"><use xlink:href="#b"/></mask><use fill="#70B906" xlink:href="#b"/></g></g><g><path d="M297.511 338.135c36.335-8.296 68.659-33.125 85.153-69.527L269.5 217.863l28.011 120.272z" fill="#FFA300"/><path d="M274.8 220.24l107.864 48.368a124.187 124.187 0 0 1-4.12 8.263L274.8 220.24z" fill="#FF9102"/></g></g><path d="M205.876 247.767c-1.152 0-1.848-.672-1.848-1.704 0-.6.168-.96.552-1.824l4.248-9.504c.288-.648.816-1.056 1.536-1.056.912 0 1.608.648 1.608 1.632 0 .264-.072.576-.168.792l-3.96 8.712v.048h2.952c.096 0 .144-.048.144-.144v-2.16c0-1.056.696-1.728 1.632-1.728.96 0 1.632.672 1.632 1.728v2.16c0 .096.048.144.144.144h.096c.936 0 1.56.6 1.56 1.44 0 .864-.624 1.464-1.56 1.464h-.096c-.096 0-.144.048-.144.144v.648c0 1.056-.672 1.728-1.632 1.728-.936 0-1.632-.672-1.632-1.728v-.648c0-.096-.048-.144-.144-.144h-4.92zM222.038 245.08c0-.152.05-.322.136-.475l6.018-10.421c.187-.323.425-.476.748-.476.425 0 .73.323.73.748 0 .153-.05.323-.135.476l-6.018 10.42c-.187.324-.425.477-.748.477-.425 0-.731-.323-.731-.748zm.238-5.15c-1.105 0-1.887-.51-2.176-1.411-.12-.374-.17-.85-.17-1.632 0-.782.05-1.258.17-1.632.289-.901 1.07-1.411 2.176-1.411 1.105 0 1.887.51 2.176 1.41.119.375.17.85.17 1.633 0 .782-.051 1.258-.17 1.632-.29.9-1.071 1.41-2.176 1.41zm0-1.326c.306 0 .51-.153.595-.425.05-.153.085-.46.085-1.292 0-.833-.034-1.14-.085-1.292-.085-.272-.29-.425-.595-.425-.306 0-.51.153-.595.425-.051.153-.085.459-.085 1.292s.034 1.139.085 1.292c.085.272.289.425.595.425zm4.98 5.678c-.118-.374-.17-.85-.17-1.632 0-.782.052-1.258.17-1.632.29-.901 1.072-1.411 2.177-1.411s1.887.51 2.176 1.41c.119.375.17.85.17 1.633 0 .782-.051 1.258-.17 1.632-.29.9-1.071 1.41-2.176 1.41-1.105 0-1.887-.51-2.176-1.41zm1.582-.34c.085.272.289.425.595.425s.51-.153.595-.425c.05-.153.085-.46.085-1.292 0-.833-.034-1.14-.085-1.292-.085-.272-.29-.425-.595-.425-.306 0-.51.153-.595.425-.051.153-.085.459-.085 1.292s.034 1.139.085 1.292zM247.876 281.767c-1.152 0-1.848-.672-1.848-1.704 0-.6.168-.96.552-1.824l4.248-9.504c.288-.648.816-1.056 1.536-1.056.912 0 1.608.648 1.608 1.632 0 .264-.072.576-.168.792l-3.96 8.712v.048h2.952c.096 0 .144-.048.144-.144v-2.16c0-1.056.696-1.728 1.632-1.728.96 0 1.632.672 1.632 1.728v2.16c0 .096.048.144.144.144h.096c.936 0 1.56.6 1.56 1.44 0 .864-.624 1.464-1.56 1.464h-.096c-.096 0-.144.048-.144.144v.648c0 1.056-.672 1.728-1.632 1.728-.936 0-1.632-.672-1.632-1.728v-.648c0-.096-.048-.144-.144-.144h-4.92zM263.038 279.08c0-.152.05-.322.136-.475l6.018-10.421c.187-.323.425-.476.748-.476.425 0 .73.323.73.748 0 .153-.05.323-.135.476l-6.018 10.42c-.187.324-.425.477-.748.477-.425 0-.731-.323-.731-.748zm.238-5.15c-1.105 0-1.887-.51-2.176-1.411-.12-.374-.17-.85-.17-1.632 0-.782.05-1.258.17-1.632.289-.901 1.07-1.411 2.176-1.411 1.105 0 1.887.51 2.176 1.41.119.375.17.85.17 1.633 0 .782-.051 1.258-.17 1.632-.29.9-1.071 1.41-2.176 1.41zm0-1.326c.306 0 .51-.153.595-.425.05-.153.085-.46.085-1.292 0-.833-.034-1.14-.085-1.292-.085-.272-.29-.425-.595-.425-.306 0-.51.153-.595.425-.051.153-.085.459-.085 1.292s.034 1.139.085 1.292c.085.272.289.425.595.425zm4.98 5.678c-.118-.374-.17-.85-.17-1.632 0-.782.052-1.258.17-1.632.29-.901 1.072-1.411 2.177-1.411s1.887.51 2.176 1.41c.119.375.17.85.17 1.633 0 .782-.051 1.258-.17 1.632-.29.9-1.071 1.41-2.176 1.41-1.105 0-1.887-.51-2.176-1.41zm1.582-.34c.085.272.289.425.595.425s.51-.153.595-.425c.05-.153.085-.46.085-1.292 0-.833-.034-1.14-.085-1.292-.085-.272-.29-.425-.595-.425-.306 0-.51.153-.595.425-.051.153-.085.459-.085 1.292s.034 1.139.085 1.292zM311.826 283.653c0-1.624.504-3.08 1.4-4.704l4.172-7.728c.392-.728 1.036-1.092 1.736-1.092.952 0 1.82.672 1.82 1.736 0 .364-.084.728-.308 1.12l-2.772 5.012.056.028c.196-.112.7-.196 1.204-.196 3.024 0 5.46 2.24 5.46 5.712 0 3.836-2.772 6.104-6.384 6.104-3.668 0-6.384-2.268-6.384-5.992zm3.864.028c0 1.568 1.008 2.66 2.52 2.66s2.52-1.092 2.52-2.66c0-1.54-1.008-2.632-2.52-2.632s-2.52 1.092-2.52 2.632zM330.309 282.953c0-.162.054-.342.144-.504l6.372-11.034c.198-.342.45-.504.792-.504.45 0 .774.342.774.792 0 .162-.054.342-.144.504l-6.372 11.034c-.198.342-.45.504-.792.504-.45 0-.774-.342-.774-.792zm.252-5.454c-1.17 0-1.998-.54-2.304-1.494-.126-.396-.18-.9-.18-1.728s.054-1.332.18-1.728c.306-.954 1.134-1.494 2.304-1.494s1.998.54 2.304 1.494c.126.396.18.9.18 1.728s-.054 1.332-.18 1.728c-.306.954-1.134 1.494-2.304 1.494zm0-1.404c.324 0 .54-.162.63-.45.054-.162.09-.486.09-1.368 0-.882-.036-1.206-.09-1.368-.09-.288-.306-.45-.63-.45s-.54.162-.63.45c-.054.162-.09.486-.09 1.368 0 .882.036 1.206.09 1.368.09.288.306.45.63.45zm5.274 6.012c-.126-.396-.18-.9-.18-1.728s.054-1.332.18-1.728c.306-.954 1.134-1.494 2.304-1.494s1.998.54 2.304 1.494c.126.396.18.9.18 1.728s-.054 1.332-.18 1.728c-.306.954-1.134 1.494-2.304 1.494s-1.998-.54-2.304-1.494zm1.674-.36c.09.288.306.45.63.45s.54-.162.63-.45c.054-.162.09-.486.09-1.368 0-.882-.036-1.206-.09-1.368-.09-.288-.306-.45-.63-.45s-.54.162-.63.45c-.054.162-.09.486-.09 1.368 0 .882.036 1.206.09 1.368zM333.826 219.53c0-1.623.504-3.08 1.4-4.703l4.172-7.728c.392-.728 1.036-1.092 1.736-1.092.952 0 1.82.672 1.82 1.736 0 .364-.084.728-.308 1.12l-2.772 5.012.056.028c.196-.112.7-.196 1.204-.196 3.024 0 5.46 2.24 5.46 5.712 0 3.836-2.772 6.104-6.384 6.104-3.668 0-6.384-2.268-6.384-5.992zm3.864.029c0 1.568 1.008 2.66 2.52 2.66s2.52-1.092 2.52-2.66c0-1.54-1.008-2.632-2.52-2.632s-2.52 1.092-2.52 2.632zM352.309 218.83c0-.162.054-.342.144-.504l6.372-11.034c.198-.342.45-.504.792-.504.45 0 .774.342.774.792 0 .162-.054.342-.144.504l-6.372 11.034c-.198.342-.45.504-.792.504-.45 0-.774-.342-.774-.792zm.252-5.454c-1.17 0-1.998-.54-2.304-1.494-.126-.396-.18-.9-.18-1.728s.054-1.332.18-1.728c.306-.954 1.134-1.494 2.304-1.494s1.998.54 2.304 1.494c.126.396.18.9.18 1.728s-.054 1.332-.18 1.728c-.306.954-1.134 1.494-2.304 1.494zm0-1.404c.324 0 .54-.162.63-.45.054-.162.09-.486.09-1.368 0-.882-.036-1.206-.09-1.368-.09-.288-.306-.45-.63-.45s-.54.162-.63.45c-.054.162-.09.486-.09 1.368 0 .882.036 1.206.09 1.368.09.288.306.45.63.45zm5.274 6.012c-.126-.396-.18-.9-.18-1.728s.054-1.332.18-1.728c.306-.954 1.134-1.494 2.304-1.494s1.998.54 2.304 1.494c.126.396.18.9.18 1.728s-.054 1.332-.18 1.728c-.306.954-1.134 1.494-2.304 1.494s-1.998-.54-2.304-1.494zm1.674-.36c.09.288.306.45.63.45s.54-.162.63-.45c.054-.162.09-.486.09-1.368 0-.882-.036-1.206-.09-1.368-.09-.288-.306-.45-.63-.45s-.54.162-.63.45c-.054.162-.09.486-.09 1.368 0 .882.036 1.206.09 1.368zM230.772 128.96v-13.53h-.06l-1.89 1.29c-.39.27-.84.39-1.26.39-.96 0-1.74-.75-1.74-1.77 0-.63.33-1.29 1.05-1.77l3.21-2.22c.78-.54 1.59-.93 2.55-.93 1.44 0 2.34 1.02 2.34 2.55v15.99c0 1.38-.9 2.22-2.1 2.22-1.23 0-2.1-.84-2.1-2.22zm11.64-.72c-.09-.27-.15-.54-.15-.78 0-1.05.78-1.83 1.89-1.83.69 0 1.26.3 1.83.99.45.57 1.32 1.14 2.28 1.14 1.08 0 1.89-.51 2.22-1.44.15-.45.27-1.02.27-1.95 0-.96-.09-1.53-.24-2.01-.36-1.02-1.17-1.41-2.13-1.41-.84 0-1.44.33-1.86.87-.57.72-1.17.99-2.07.99-1.23 0-2.04-.81-2.04-2.16v-8.25c0-1.11.69-1.8 1.83-1.8h8.43c1.17 0 1.92.75 1.92 1.8 0 1.08-.75 1.83-1.92 1.83h-6.39c-.12 0-.18.06-.18.18v3.99h.09c.51-.51 1.53-.99 3.06-.99 2.61 0 4.5 1.14 5.25 3.39.27.87.42 1.86.42 3.57 0 1.29-.18 2.28-.45 3.09-.81 2.52-3.3 3.87-6.18 3.87-3.12 0-5.34-1.41-5.88-3.09zM262.264 126.175c0-.207.07-.437.184-.644l8.142-14.099c.253-.437.575-.644 1.012-.644.575 0 .99.437.99 1.012 0 .207-.07.437-.185.644l-8.142 14.1c-.253.436-.575.643-1.012.643-.575 0-.989-.437-.989-1.012zm.322-6.969c-1.495 0-2.553-.69-2.944-1.909-.16-.506-.23-1.15-.23-2.208 0-1.058.07-1.702.23-2.208.391-1.219 1.45-1.909 2.944-1.909 1.495 0 2.553.69 2.944 1.91.161.505.23 1.15.23 2.207 0 1.058-.069 1.702-.23 2.208-.39 1.22-1.449 1.91-2.944 1.91zm0-1.794c.414 0 .69-.207.805-.575.07-.207.115-.62.115-1.748 0-1.127-.046-1.54-.115-1.748-.115-.368-.39-.575-.805-.575-.414 0-.69.207-.805.575-.069.207-.115.621-.115 1.748s.046 1.541.115 1.748c.115.368.391.575.805.575zm6.74 7.682c-.162-.506-.23-1.15-.23-2.208 0-1.058.068-1.702.23-2.208.39-1.219 1.448-1.909 2.943-1.909s2.553.69 2.944 1.91c.161.505.23 1.15.23 2.207 0 1.058-.069 1.702-.23 2.208-.39 1.22-1.449 1.91-2.944 1.91-1.495 0-2.553-.69-2.944-1.91zm2.138-.46c.115.368.391.575.805.575.414 0 .69-.207.805-.575.07-.207.115-.62.115-1.748 0-1.127-.046-1.54-.115-1.748-.115-.368-.39-.575-.805-.575-.414 0-.69.207-.805.575-.069.207-.115.621-.115 1.748s.046 1.541.115 1.748zM312.772 143.96v-13.53h-.06l-1.89 1.29c-.39.27-.84.39-1.26.39-.96 0-1.74-.75-1.74-1.77 0-.63.33-1.29 1.05-1.77l3.21-2.22c.78-.54 1.59-.93 2.55-.93 1.44 0 2.34 1.02 2.34 2.55v15.99c0 1.38-.9 2.22-2.1 2.22-1.23 0-2.1-.84-2.1-2.22zm11.64-.72c-.09-.27-.15-.54-.15-.78 0-1.05.78-1.83 1.89-1.83.69 0 1.26.3 1.83.99.45.57 1.32 1.14 2.28 1.14 1.08 0 1.89-.51 2.22-1.44.15-.45.27-1.02.27-1.95 0-.96-.09-1.53-.24-2.01-.36-1.02-1.17-1.41-2.13-1.41-.84 0-1.44.33-1.86.87-.57.72-1.17.99-2.07.99-1.23 0-2.04-.81-2.04-2.16v-8.25c0-1.11.69-1.8 1.83-1.8h8.43c1.17 0 1.92.75 1.92 1.8 0 1.08-.75 1.83-1.92 1.83h-6.39c-.12 0-.18.06-.18.18v3.99h.09c.51-.51 1.53-.99 3.06-.99 2.61 0 4.5 1.14 5.25 3.39.27.87.42 1.86.42 3.57 0 1.29-.18 2.28-.45 3.09-.81 2.52-3.3 3.87-6.18 3.87-3.12 0-5.34-1.41-5.88-3.09zM344.264 141.175c0-.207.07-.437.184-.644l8.142-14.099c.253-.437.575-.644 1.012-.644.575 0 .99.437.99 1.012 0 .207-.07.437-.185.644l-8.142 14.1c-.253.436-.575.643-1.012.643-.575 0-.989-.437-.989-1.012zm.322-6.969c-1.495 0-2.553-.69-2.944-1.909-.16-.506-.23-1.15-.23-2.208 0-1.058.07-1.702.23-2.208.391-1.219 1.45-1.909 2.944-1.909 1.495 0 2.553.69 2.944 1.91.161.505.23 1.15.23 2.207 0 1.058-.069 1.702-.23 2.208-.39 1.22-1.449 1.91-2.944 1.91zm0-1.794c.414 0 .69-.207.805-.575.07-.207.115-.62.115-1.748 0-1.127-.046-1.54-.115-1.748-.115-.368-.39-.575-.805-.575-.414 0-.69.207-.805.575-.069.207-.115.621-.115 1.748s.046 1.541.115 1.748c.115.368.391.575.805.575zm6.74 7.682c-.162-.506-.23-1.15-.23-2.208 0-1.058.068-1.702.23-2.208.39-1.219 1.448-1.909 2.943-1.909s2.553.69 2.944 1.91c.161.505.23 1.15.23 2.207 0 1.058-.069 1.702-.23 2.208-.39 1.22-1.449 1.91-2.944 1.91-1.495 0-2.553-.69-2.944-1.91zm2.138-.46c.115.368.391.575.805.575.414 0 .69-.207.805-.575.07-.207.115-.62.115-1.748 0-1.127-.046-1.54-.115-1.748-.115-.368-.39-.575-.805-.575-.414 0-.69.207-.805.575-.069.207-.115.621-.115 1.748s.046 1.541.115 1.748zM77.108 157.826c-.156-.468-.26-.936-.26-1.352 0-1.82 1.352-3.172 3.276-3.172 1.196 0 2.184.52 3.172 1.716.78.988 2.288 1.976 3.952 1.976 1.872 0 3.276-.884 3.848-2.496.26-.78.468-1.768.468-3.38 0-1.664-.156-2.652-.416-3.484-.624-1.768-2.028-2.444-3.692-2.444-1.456 0-2.496.572-3.224 1.508-.988 1.248-2.028 1.716-3.588 1.716-2.132 0-3.536-1.404-3.536-3.744v-14.3c0-1.924 1.196-3.12 3.172-3.12h14.612c2.028 0 3.328 1.3 3.328 3.12 0 1.872-1.3 3.172-3.328 3.172H83.816c-.208 0-.312.104-.312.312v6.916h.156c.884-.884 2.652-1.716 5.304-1.716 4.524 0 7.8 1.976 9.1 5.876.468 1.508.728 3.224.728 6.188 0 2.236-.312 3.952-.78 5.356-1.404 4.368-5.72 6.708-10.712 6.708-5.408 0-9.256-2.444-10.192-5.356zm28.548-1.872c-.52-1.612-.728-3.588-.728-11.024 0-7.436.208-9.412.728-11.024 1.508-4.576 4.992-7.228 10.712-7.228s9.204 2.652 10.712 7.228c.52 1.612.728 3.588.728 11.024 0 7.436-.208 9.412-.728 11.024-1.508 4.576-4.992 7.228-10.712 7.228s-9.204-2.652-10.712-7.228zm7.176-1.3c.52 1.56 1.664 2.34 3.536 2.34s3.016-.78 3.536-2.34c.312-.936.468-1.976.468-9.724s-.156-8.788-.468-9.724c-.52-1.56-1.664-2.34-3.536-2.34s-3.016.78-3.536 2.34c-.312.936-.468 1.976-.468 9.724s.156 8.788.468 9.724zM139.528 152.43c0-.323.108-.683.288-1.007l12.744-22.068c.396-.684.9-1.008 1.584-1.008.9 0 1.548.684 1.548 1.584 0 .324-.108.684-.288 1.008l-12.744 22.068c-.396.684-.9 1.008-1.584 1.008-.9 0-1.548-.684-1.548-1.584zm.504-10.907c-2.34 0-3.996-1.08-4.608-2.988-.252-.792-.36-1.8-.36-3.456s.108-2.664.36-3.456c.612-1.908 2.268-2.988 4.608-2.988s3.996 1.08 4.608 2.988c.252.792.36 1.8.36 3.456s-.108 2.664-.36 3.456c-.612 1.908-2.268 2.988-4.608 2.988zm0-2.808c.648 0 1.08-.324 1.26-.9.108-.324.18-.972.18-2.736 0-1.764-.072-2.412-.18-2.736-.18-.576-.612-.9-1.26-.9s-1.08.324-1.26.9c-.108.324-.18.972-.18 2.736 0 1.764.072 2.412.18 2.736.18.576.612.9 1.26.9zm10.548 12.024c-.252-.792-.36-1.8-.36-3.456s.108-2.664.36-3.456c.612-1.908 2.268-2.988 4.608-2.988s3.996 1.08 4.608 2.988c.252.792.36 1.8.36 3.456s-.108 2.664-.36 3.456c-.612 1.908-2.268 2.988-4.608 2.988s-3.996-1.08-4.608-2.988zm3.348-.72c.18.576.612.9 1.26.9s1.08-.324 1.26-.9c.108-.324.18-.972.18-2.736 0-1.764-.072-2.412-.18-2.736-.18-.576-.612-.9-1.26-.9s-1.08.324-1.26.9c-.108.324-.18.972-.18 2.736 0 1.764.072 2.412.18 2.736z" fill="#FFF" fill-rule="nonzero"/></g></svg>