<svg id="Layer_1" enable-background="new 0 0 512 512" height="512" viewBox="0 0 512 512" width="512" xmlns="http://www.w3.org/2000/svg"><g><path d="m475.358 231.596-33.16-23.686 4.956-.485c8.244-.807 14.273-8.146 13.467-16.39-.808-8.244-8.134-14.277-16.391-13.467l-48.344 4.733c11.08-11.645 19.804-19.986 37.64-22.313l.994-.129c19.957-2.603 34.075-20.957 31.473-40.915l-.258-1.982c-2.604-19.957-20.953-34.076-40.914-31.473l-.992.129c-6.638.866-12.999 2.172-19.125 3.897v-13.342l24.656-20.012c6.432-5.221 7.414-14.667 2.193-21.1-5.222-6.432-14.668-7.414-21.1-2.193l-5.75 4.667v-4.732c0-8.284-6.716-15-15-15s-15 6.716-15 15v69.781c-4.337 2.654-8.552 5.589-12.643 8.844-7.717 6.138-14.184 12.837-20.438 19.315-3.354 3.474-6.82 7.065-10.411 10.492-11.341 10.822-19.794 13.551-37.657 12.178l-.642-.049c1.19-14.205 1.652-27.958 1.399-41.566.444-.498.865-1.026 1.249-1.595l35.5-52.5c4.641-6.863 2.839-16.188-4.023-20.828-6.864-4.641-16.188-2.84-20.828 4.023l-15.806 23.375c-1.7-11.703-3.932-23.549-6.749-35.74-2.28-9.874-8.078-17.852-16.767-23.073-8.689-5.218-18.454-6.591-28.245-3.968l-1.918.514c-19.103 5.119-30.572 24.22-26.113 43.486 7.979 34.479 10.451 63.522 7.675 99.312l-52.076-62.595c-5.298-6.368-14.755-7.237-21.125-1.938-6.369 5.298-7.236 14.756-1.938 21.125l17.081 20.531-20.067-2.048c-8.246-.84-15.604 5.158-16.445 13.399-.841 8.242 5.158 15.604 13.399 16.445l49 5c.491.05.978.072 1.461.074l23.633 28.407c.683.821 1.441 1.539 2.247 2.176-.009.058-.017.114-.026.171-.971 6.34-1.978 12.661-2.983 18.974-3.512 22.052-7.131 44.771-9.055 67.731-.761-.315-1.526-.622-2.296-.919-9.733-3.76-19.006-5.816-27.68-7.217l-12.241-48.021c-2.046-8.027-10.208-12.876-18.24-10.83-8.027 2.046-12.876 10.212-10.83 18.24l9.139 35.854c-15.003-3.371-27.128-10.347-38.013-31.599-9.426-18.404-32.068-25.708-50.472-16.282-18.404 9.427-25.708 32.068-16.281 50.472 13.338 26.04 30.635 44.923 52.427 57.124l-38.218 12.26c-7.888 2.531-12.231 10.977-9.701 18.865 2.042 6.365 7.935 10.422 14.28 10.422 1.518 0 3.063-.232 4.585-.721l13.78-4.421-2.665 13.387c-1.617 8.125 3.658 16.022 11.783 17.64.989.197 1.973.292 2.944.292 7.009 0 13.275-4.938 14.695-12.075l5.917-29.726 30.908-9.915c.26-.083.505-.19.757-.286 4.29.67 8.55 1.253 12.753 1.824l2.662.363c25.397 3.478 38.506 16.822 54.428 33.88 1.593 8.484 3.535 17.016 5.779 25.394.029.106.06.211.092.316l11.511 36.476c.966 3.063 3.775 5.17 6.986 5.241l63.299 1.402c.056.001.111.002.166.002 2.357 0 4.581-1.109 5.999-3 1.452-1.935 1.881-4.451 1.153-6.758l-12.295-38.959 26.127-31.725c.263-.072.527-.141.789-.228l66-22c7.859-2.62 12.106-11.114 9.487-18.973-2.62-7.86-11.116-12.109-18.974-9.487l-21.447 7.149 7.727-9.382c5.267-6.395 4.352-15.848-2.044-21.115-6.395-5.267-15.848-4.351-21.114 2.043l-5.327 6.469-.095-5.992c-.13-8.203-6.819-14.762-14.993-14.762-.08 0-.162 0-.243.002-8.283.131-14.892 6.953-14.76 15.236l.616 38.82c.012.758.098 1.496.218 2.222l-21.956 26.661c-9.367-44.106-3.313-83.69 4.044-128.135l5.241.403c25.557 1.966 46.972-1.69 66.254-11.653l42.748-4.185 8.917 6.369c-.039.545-.054 1.096-.032 1.654l1.742 45.428c.311 8.083 6.96 14.425 14.979 14.425.193 0 .389-.003.585-.011 8.277-.317 14.731-7.286 14.414-15.563l-.919-23.954 21.429 15.306c2.643 1.888 5.688 2.795 8.706 2.795 4.68 0 9.291-2.184 12.219-6.282 4.819-6.737 3.258-16.105-3.483-20.92z" fill="#ff7038"/><path d="m475.358 231.596-33.16-23.686 4.956-.485c8.244-.807 14.273-8.146 13.467-16.39-.808-8.244-8.134-14.277-16.391-13.467l-48.344 4.733c11.08-11.645 19.804-19.986 37.64-22.313l.994-.129c19.957-2.603 34.075-20.957 31.473-40.915l-.258-1.982c-2.604-19.957-20.953-34.076-40.914-31.473l-.992.129c-6.638.866-12.999 2.172-19.125 3.897v-13.342l24.656-20.012c6.432-5.221 7.414-14.667 2.193-21.1-5.222-6.432-14.668-7.414-21.1-2.193l-5.75 4.667v-4.732c0-8.284-6.716-15-15-15s-15 6.716-15 15v69.781c-4.337 2.654-8.552 5.589-12.643 8.844-7.717 6.138-14.184 12.837-20.438 19.315-3.354 3.474-6.82 7.065-10.411 10.492-11.341 10.822-19.794 13.551-37.657 12.178l-.642-.049c1.19-14.205 1.652-27.958 1.399-41.566.444-.498.865-1.026 1.249-1.595l35.5-52.5c4.641-6.863 2.839-16.188-4.023-20.828-6.864-4.641-16.189-2.84-20.828 4.023l-15.806 23.375c-1.7-11.703-3.932-23.549-6.749-35.74-2.28-9.874-8.078-17.852-16.767-23.073-3.275-1.967-6.704-3.386-10.229-4.252v437.675l36.824.816c.056.001.111.002.166.002 2.357 0 4.581-1.109 5.999-3 1.452-1.935 1.881-4.451 1.153-6.758l-12.295-38.959 26.127-31.725c.263-.072.527-.141.789-.228l66-22c7.859-2.62 12.106-11.114 9.487-18.973-2.62-7.86-11.116-12.109-18.974-9.487l-21.447 7.149 7.727-9.382c5.267-6.395 4.352-15.848-2.044-21.115-6.395-5.267-15.848-4.351-21.114 2.043l-5.327 6.469-.095-5.992c-.13-8.203-6.819-14.762-14.993-14.762-.08 0-.162 0-.243.002-8.283.131-14.892 6.953-14.76 15.236l.616 38.82c.012.758.098 1.496.218 2.222l-21.956 26.661c-9.367-44.106-3.313-83.69 4.044-128.135l5.241.403c25.557 1.966 46.972-1.69 66.254-11.653l42.748-4.185 8.917 6.369c-.039.545-.053 1.096-.032 1.654l1.742 45.428c.311 8.083 6.96 14.425 14.979 14.425.193 0 .389-.003.585-.011 8.277-.317 14.731-7.286 14.414-15.563l-.919-23.954 21.429 15.306c2.643 1.888 5.688 2.795 8.706 2.795 4.68 0 9.291-2.184 12.219-6.282 4.817-6.74 3.256-16.108-3.485-20.923z" fill="#ff1f3d"/><g><path d="m497.059 511.803c-.021 0-.042 0-.063 0l-482.116.001c-6.5-.027-12.237-4.27-14.19-10.494-1.953-6.225.327-13.002 5.639-16.763 56.069-39.705 144.507-62.711 242.636-63.12.875-.004 1.753-.006 2.627-.006 97.894 0 189.447 20.818 251.536 60.747 1.355.872 2.523 1.926 3.492 3.11 3.302 2.765 5.396 6.933 5.377 11.587-.031 8.262-6.714 14.937-14.938 14.938z" fill="#fdbf00"/></g><path d="m506.622 485.278c-.969-1.185-2.137-2.239-3.492-3.11-61.016-39.238-150.489-60.006-246.468-60.713v90.349h240.334.063c8.223 0 14.906-6.675 14.94-14.938.02-4.656-2.074-8.823-5.377-11.588z" fill="#ff8856"/></g></svg>