<?xml version="1.0" encoding="utf-8"?>
<!-- Generator: Adobe Illustrator 16.0.2, SVG Export Plug-In . SVG Version: 6.00 Build 0)  -->
<!DOCTYPE svg PUBLIC "-//W3C//DTD SVG 1.1//EN" "http://www.w3.org/Graphics/SVG/1.1/DTD/svg11.dtd">
<svg version="1.1" id="Layer_1" xmlns="http://www.w3.org/2000/svg" xmlns:xlink="http://www.w3.org/1999/xlink" x="0px" y="0px"
	 width="1417.32px" height="1417.32px" viewBox="0 0 1417.32 1417.32" enable-background="new 0 0 1417.32 1417.32"
	 xml:space="preserve">
<g>
	<g>
		<linearGradient id="SVGID_1_" gradientUnits="userSpaceOnUse" x1="224.9473" y1="224.9473" x2="1172.6178" y2="1172.6178">
			<stop  offset="0" style="stop-color:#1BA9C9"/>
			<stop  offset="0.3053" style="stop-color:#1BA7C8"/>
			<stop  offset="0.5042" style="stop-color:#1BA2C6"/>
			<stop  offset="0.6726" style="stop-color:#1C98C1"/>
			<stop  offset="0.824" style="stop-color:#1C8ABB"/>
			<stop  offset="0.9628" style="stop-color:#1D78B4"/>
			<stop  offset="1" style="stop-color:#1D72B1"/>
		</linearGradient>
		<path fill="url(#SVGID_1_)" d="M1417.32,1388.974c0,15.591-12.756,28.347-28.347,28.347H28.347
			C12.756,1417.32,0,1404.564,0,1388.974V28.347C0,12.756,12.756,0,28.347,0h1360.627c15.591,0,28.347,12.756,28.347,28.347
			V1388.974z"/>
	</g>
	<g>
		<path fill="#FFFFFF" d="M1089.296,673.684c0,139.165-32.451,250.999-97.354,335.476
			c-64.902,84.486-160.088,126.725-285.584,126.725c-125.494,0-219.931-42.366-283.285-127.118
			c-63.364-84.742-95.045-196.307-95.045-334.697c0-214.583,70.737-355.558,212.232-422.943
			c47.987-22.801,104.877-34.21,170.708-34.21c65.824,0,122.574,11.41,170.252,34.21c47.668,22.814,86.883,54.427,117.646,94.851
			C1059.152,425.28,1089.296,534.514,1089.296,673.684z M857.221,920.916c34.75-54.681,52.145-136.958,52.145-246.848
			c0-109.88-17.535-190.866-52.604-242.956c-35.06-52.09-84.585-78.135-148.561-78.135c-63.983,0-114.579,26.045-151.791,78.135
			c-37.228,52.09-55.826,132.823-55.826,242.176c0,109.372,18.913,191.649,56.75,246.849
			c37.832,55.196,88.582,82.799,152.255,82.799C773.256,1002.937,822.462,975.609,857.221,920.916z"/>
	</g>
</g>
</svg>
