<?xml version="1.0" encoding="utf-8"?>
<!-- Generator: Adobe Illustrator 16.0.2, SVG Export Plug-In . SVG Version: 6.00 Build 0)  -->
<!DOCTYPE svg PUBLIC "-//W3C//DTD SVG 1.1//EN" "http://www.w3.org/Graphics/SVG/1.1/DTD/svg11.dtd">
<svg version="1.1" id="Layer_1" xmlns="http://www.w3.org/2000/svg" xmlns:xlink="http://www.w3.org/1999/xlink" x="0px" y="0px"
	 width="1417.32px" height="1417.32px" viewBox="0 0 1417.32 1417.32" enable-background="new 0 0 1417.32 1417.32"
	 xml:space="preserve">
<g>
	<g>
		<linearGradient id="SVGID_1_" gradientUnits="userSpaceOnUse" x1="224.9473" y1="224.9473" x2="1172.6173" y2="1172.6173">
			<stop  offset="0" style="stop-color:#1BA9C9"/>
			<stop  offset="0.352" style="stop-color:#1BA6C8"/>
			<stop  offset="0.5811" style="stop-color:#1B9EC4"/>
			<stop  offset="0.7752" style="stop-color:#1C8FBE"/>
			<stop  offset="0.9488" style="stop-color:#1D7AB4"/>
			<stop  offset="1" style="stop-color:#1D72B1"/>
		</linearGradient>
		<path fill="url(#SVGID_1_)" d="M1417.32,1388.974c0,15.591-12.756,28.347-28.347,28.347H28.347
			C12.756,1417.32,0,1404.564,0,1388.974V28.347C0,12.756,12.756,0,28.347,0h1360.627c15.591,0,28.347,12.756,28.347,28.347
			V1388.974z"/>
	</g>
	<g>
		<g>
			<path fill="#FFFFFF" stroke="#FFFFFF" d="M1361.784,705.944c0,139.165-32.451,250.998-97.344,335.478
				c-64.912,84.486-160.099,126.725-285.587,126.725c-125.499,0-219.936-42.371-283.287-127.118
				c-63.364-84.742-95.046-196.31-95.046-334.7c0-214.583,70.737-355.557,212.229-422.943
				c47.988-22.801,104.878-34.21,170.709-34.21c65.822,0,122.572,11.409,170.25,34.21c47.668,22.815,86.883,54.427,117.646,94.851
				C1331.641,457.54,1361.784,566.774,1361.784,705.944z M1129.72,953.179c34.749-54.684,52.134-136.961,52.134-246.85
				c0-109.88-17.534-190.865-52.594-242.956c-35.068-52.09-84.595-78.135-148.568-78.135c-63.983,0-114.578,26.045-151.785,78.135
				c-37.228,52.09-55.831,132.823-55.831,242.177c0,109.372,18.914,191.649,56.75,246.851c37.837,55.196,88.582,82.8,152.255,82.8
				C1045.744,1035.2,1094.961,1007.867,1129.72,953.179z"/>
		</g>
		<g>
			<path fill="#FFFFFF" stroke="#FFFFFF" d="M566.858,1140.938H411.838V395.342L207.911,399.8V249.176h203.927h155.021V1140.938z"/>
		</g>
	</g>
</g>
</svg>
