<?xml version="1.0" encoding="utf-8"?>
<!-- Generator: Adobe Illustrator 16.0.2, SVG Export Plug-In . SVG Version: 6.00 Build 0)  -->
<!DOCTYPE svg PUBLIC "-//W3C//DTD SVG 1.1//EN" "http://www.w3.org/Graphics/SVG/1.1/DTD/svg11.dtd">
<svg version="1.1" id="Layer_1" xmlns="http://www.w3.org/2000/svg" xmlns:xlink="http://www.w3.org/1999/xlink" x="0px" y="0px"
	 width="1417.32px" height="1417.32px" viewBox="0 0 1417.32 1417.32" enable-background="new 0 0 1417.32 1417.32"
	 xml:space="preserve">
<g>
	<g>
		<linearGradient id="SVGID_1_" gradientUnits="userSpaceOnUse" x1="224.9473" y1="224.9473" x2="1172.6173" y2="1172.6173">
			<stop  offset="0" style="stop-color:#1BA9C9"/>
			<stop  offset="0.352" style="stop-color:#1BA6C8"/>
			<stop  offset="0.5811" style="stop-color:#1B9EC4"/>
			<stop  offset="0.7752" style="stop-color:#1C8FBE"/>
			<stop  offset="0.9488" style="stop-color:#1D7AB4"/>
			<stop  offset="1" style="stop-color:#1D72B1"/>
		</linearGradient>
		<path fill="url(#SVGID_1_)" d="M1417.32,1388.974c0,15.591-12.756,28.347-28.347,28.347H28.347
			C12.756,1417.32,0,1404.564,0,1388.974V28.347C0,12.756,12.756,0,28.347,0h1360.627c15.591,0,28.347,12.756,28.347,28.347
			V1388.974z"/>
	</g>
	<g>
		<g>
			<path fill="#FFFFFF" stroke="#FFFFFF" d="M1008.067,617.696c175.32,22.815,262.982,107.562,262.982,254.237
				c0,37.317-9.542,74.635-28.604,111.951c-19.073,37.317-46.454,69.195-82.128,95.63c-74.434,55.467-172.866,83.189-295.278,83.189
				c-93.512,0-181.474-12.184-263.901-36.543V977.666c99.657,25.922,184.232,38.87,253.756,38.87
				c161.781,0,242.68-54.674,242.68-164.041c0-82.923-75.663-124.396-226.994-124.396c-25.232,0-52.913,2.332-83.046,6.997v-104.18
				l212.227-238.68H617.746V254.619h599.787v135.279L1008.067,617.696z"/>
		</g>
		<g>
			<path fill="#FFFFFF" stroke="#FFFFFF" d="M521.798,1140.938h-155.02V395.342L162.851,399.8V249.176h203.927h155.02V1140.938z"/>
		</g>
	</g>
</g>
</svg>
