<?xml version="1.0" encoding="utf-8"?>
<!-- Generator: Adobe Illustrator 16.0.2, SVG Export Plug-In . SVG Version: 6.00 Build 0)  -->
<!DOCTYPE svg PUBLIC "-//W3C//DTD SVG 1.1//EN" "http://www.w3.org/Graphics/SVG/1.1/DTD/svg11.dtd">
<svg version="1.1" id="Layer_1" xmlns="http://www.w3.org/2000/svg" xmlns:xlink="http://www.w3.org/1999/xlink" x="0px" y="0px"
	 width="1417.32px" height="1417.32px" viewBox="0 0 1417.32 1417.32" enable-background="new 0 0 1417.32 1417.32"
	 xml:space="preserve">
<g>
	<g>
		<linearGradient id="SVGID_1_" gradientUnits="userSpaceOnUse" x1="224.9473" y1="224.9473" x2="1172.6173" y2="1172.6173">
			<stop  offset="0" style="stop-color:#1BA9C9"/>
			<stop  offset="0.352" style="stop-color:#1BA6C8"/>
			<stop  offset="0.5811" style="stop-color:#1B9EC4"/>
			<stop  offset="0.7752" style="stop-color:#1C8FBE"/>
			<stop  offset="0.9488" style="stop-color:#1D7AB4"/>
			<stop  offset="1" style="stop-color:#1D72B1"/>
		</linearGradient>
		<path fill="url(#SVGID_1_)" d="M1417.32,1388.974c0,15.591-12.756,28.347-28.347,28.347H28.347
			C12.756,1417.32,0,1404.564,0,1388.974V28.347C0,12.756,12.756,0,28.347,0h1360.627c15.591,0,28.347,12.756,28.347,28.347
			V1388.974z"/>
	</g>
	<g>
		<g>
			<path fill="#FFFFFF" stroke="#FFFFFF" d="M510.615,1140.938H355.592V395.342L151.668,399.8V249.176h203.924h155.022V1140.938z"/>
		</g>
		<g>
			<path fill="#FFFFFF" stroke="#FFFFFF" d="M787.429,599.816c49.207-8.285,95.506-12.44,138.867-12.44
				c43.371,0,86.423,7.13,129.186,21.38c42.752,14.259,78.28,33.569,106.575,57.923c56.59,48.722,84.895,111.7,84.895,188.927
				c0,95.896-37.227,171.043-111.65,225.461c-74.435,53.913-180.55,80.856-318.348,80.856c-59.058,0-130.425-9.852-214.081-29.541
				V983.109c81.208,19.704,153.174,29.546,215.928,29.546c171.628,0,257.442-50.793,257.442-152.384
				c0-91.744-74.135-137.612-222.383-137.612c-63.983,0-123.041,9.596-177.163,28.763l-61.825-78.524l66.441-417.5h503.813v140.718
				H822.488L787.429,599.816z"/>
		</g>
	</g>
</g>
</svg>
