<?xml version="1.0" encoding="utf-8"?>
<!-- Generator: Adobe Illustrator 16.0.2, SVG Export Plug-In . SVG Version: 6.00 Build 0)  -->
<!DOCTYPE svg PUBLIC "-//W3C//DTD SVG 1.1//EN" "http://www.w3.org/Graphics/SVG/1.1/DTD/svg11.dtd">
<svg version="1.1" id="Layer_1" xmlns="http://www.w3.org/2000/svg" xmlns:xlink="http://www.w3.org/1999/xlink" x="0px" y="0px"
	 width="1417.32px" height="1417.32px" viewBox="0 0 1417.32 1417.32" enable-background="new 0 0 1417.32 1417.32"
	 xml:space="preserve">
<g>
	<g>
		<linearGradient id="SVGID_1_" gradientUnits="userSpaceOnUse" x1="224.9473" y1="224.9473" x2="1172.6173" y2="1172.6173">
			<stop  offset="0" style="stop-color:#1BA9C9"/>
			<stop  offset="0.352" style="stop-color:#1BA6C8"/>
			<stop  offset="0.5811" style="stop-color:#1B9EC4"/>
			<stop  offset="0.7752" style="stop-color:#1C8FBE"/>
			<stop  offset="0.9488" style="stop-color:#1D7AB4"/>
			<stop  offset="1" style="stop-color:#1D72B1"/>
		</linearGradient>
		<path fill="url(#SVGID_1_)" d="M1417.32,1388.974c0,15.591-12.756,28.347-28.347,28.347H28.347
			C12.756,1417.32,0,1404.564,0,1388.974V28.347C0,12.756,12.756,0,28.347,0h1360.627c15.591,0,28.347,12.756,28.347,28.347
			V1388.974z"/>
	</g>
	<g>
		<g>
			<path fill="#FFFFFF" stroke="#FFFFFF" d="M509.344,1140.938H354.321V395.342L150.392,399.8V249.176h203.929h155.023V1140.938z"/>
		</g>
		<g>
			<path fill="#FFFFFF" stroke="#FFFFFF" d="M1181.544,388.737c-35.688-3.111-70.128-4.665-103.349-4.665
				s-69.528,6.74-108.884,20.212C850.577,444.712,772.766,536.2,735.858,678.732c43.052-36.277,81.808-61.034,116.268-74.249
				c34.439-13.215,72.275-19.827,113.489-19.827c87.972,0,160.708,24.625,218.236,73.86c57.51,49.247,86.274,120.252,86.274,213.023
				c0,92.788-34,165.599-101.96,218.468c-67.98,52.869-148.419,79.309-241.307,79.309c-116.887,0-204.379-33.166-262.518-99.516
				c-58.128-66.341-87.203-171.043-87.203-314.099c0-142.53,43.372-259.934,130.115-352.191c97.184-103.662,236.521-155.5,418-155.5
				h24.918l31.372,1.558V388.737z M921.324,1030.925c121.183,0,181.779-51.046,181.779-153.163c0-85-36.298-135.788-108.884-152.385
				c-22.76-5.178-47.059-7.506-72.896-6.992c-55.98,0-98.433,11.794-127.337,35.374c-28.925,23.589-43.372,62.849-43.372,117.78
				c-0.619,85.017,32.302,135.549,98.743,151.605C870.26,1028.331,894.248,1030.925,921.324,1030.925z"/>
		</g>
	</g>
</g>
</svg>
