<?xml version="1.0" encoding="utf-8"?>
<!-- Generator: Adobe Illustrator 16.0.2, SVG Export Plug-In . SVG Version: 6.00 Build 0)  -->
<!DOCTYPE svg PUBLIC "-//W3C//DTD SVG 1.1//EN" "http://www.w3.org/Graphics/SVG/1.1/DTD/svg11.dtd">
<svg version="1.1" id="Layer_1" xmlns="http://www.w3.org/2000/svg" xmlns:xlink="http://www.w3.org/1999/xlink" x="0px" y="0px"
	 width="1417.32px" height="1417.32px" viewBox="0 0 1417.32 1417.32" enable-background="new 0 0 1417.32 1417.32"
	 xml:space="preserve">
<g>
	<g>
		<linearGradient id="SVGID_1_" gradientUnits="userSpaceOnUse" x1="224.9473" y1="224.9473" x2="1172.6173" y2="1172.6173">
			<stop  offset="0" style="stop-color:#1BA9C9"/>
			<stop  offset="0.352" style="stop-color:#1BA6C8"/>
			<stop  offset="0.5811" style="stop-color:#1B9EC4"/>
			<stop  offset="0.7752" style="stop-color:#1C8FBE"/>
			<stop  offset="0.9488" style="stop-color:#1D7AB4"/>
			<stop  offset="1" style="stop-color:#1D72B1"/>
		</linearGradient>
		<path fill="url(#SVGID_1_)" d="M1417.32,1388.974c0,15.591-12.756,28.347-28.347,28.347H28.347
			C12.756,1417.32,0,1404.564,0,1388.974V28.347C0,12.756,12.756,0,28.347,0h1360.627c15.591,0,28.347,12.756,28.347,28.347
			V1388.974z"/>
	</g>
	<g>
		<g>
			<path fill="#FFFFFF" stroke="#FFFFFF" d="M498.719,1140.938H343.696V395.342L139.771,399.8V249.176h203.924h155.023V1140.938z"/>
		</g>
		<g>
			<path fill="#FFFFFF" stroke="#FFFFFF" d="M1255.119,828.118c6.135,22.287,9.062,50.147,8.762,83.574
				c-0.319,33.432-7.543,64.411-21.681,92.907c-14.767,29.038-33.54,52.869-56.29,71.528
				c-38.756,32.144-96.13,55.856-172.093,71.138c-75.982,15.281-155.947,11.785-239.917-10.493
				c-83.966-22.278-145.032-65.039-183.163-128.282c-19.078-31.612-28.61-64.013-28.61-97.188
				c0-60.118,12.918-109.486,38.755-148.104c25.837-38.609,70.128-72.426,132.878-101.458
				c-47.983-29.023-80.739-60.123-98.269-93.302c-17.534-33.161-26.302-68.668-26.302-106.508c0-37.83,7.988-70.877,23.994-99.13
				c15.986-28.245,37.826-52.09,65.512-71.527s59.978-34.073,96.89-43.925c36.912-9.842,76.268-14.773,118.11-14.773
				c86.738,0,159.014,20.217,216.853,60.641c57.809,40.433,86.733,95.896,86.733,166.378c0,39.397-8.762,75.684-26.297,108.845
				c-17.534,33.18-50.285,64.279-98.277,93.302C1183.143,704.244,1237.265,759.697,1255.119,828.118z M1082.557,948.62
				c9.836-17.614,14.767-38.871,14.767-63.747c0-43.54-19.378-78.781-58.133-105.738c-21.541-14.507-63.369-31.607-125.494-51.312
				c-63.364,20.734-104.588,37.583-123.65,50.532c-40.595,26.957-60.896,63.11-60.896,108.46c0,45.359,17.529,80.078,52.594,104.181
				c35.068,24.102,79.04,36.152,131.953,36.152C997.352,1027.671,1053.637,1001.488,1082.557,948.62z M1013.353,566.884
				c19.059-14.502,32.757-29.408,41.059-44.704c8.308-15.281,12.459-33.431,12.459-54.422c0-20.991-4.306-38.737-12.918-53.254
				c-8.622-14.507-19.992-26.439-34.14-35.768c-14.158-9.33-30.453-16.193-48.907-20.602c-18.453-4.399-37.526-6.607-57.209-6.607
				c-43.067,0-79.67,9.714-109.803,29.151c-30.153,19.438-45.22,48.085-45.22,85.916c0,55.976,32.301,96.926,96.889,122.838
				c18.459,7.263,37.832,13.737,58.134,19.438C961.06,595.399,994.274,581.405,1013.353,566.884z"/>
		</g>
	</g>
</g>
</svg>
