<?xml version="1.0" encoding="utf-8"?>
<!-- Generator: Adobe Illustrator 16.0.2, SVG Export Plug-In . SVG Version: 6.00 Build 0)  -->
<!DOCTYPE svg PUBLIC "-//W3C//DTD SVG 1.1//EN" "http://www.w3.org/Graphics/SVG/1.1/DTD/svg11.dtd">
<svg version="1.1" id="Layer_1" xmlns="http://www.w3.org/2000/svg" xmlns:xlink="http://www.w3.org/1999/xlink" x="0px" y="0px"
	 width="1417.32px" height="1417.32px" viewBox="0 0 1417.32 1417.32" enable-background="new 0 0 1417.32 1417.32"
	 xml:space="preserve">
<g>
	<g>
		<linearGradient id="SVGID_1_" gradientUnits="userSpaceOnUse" x1="224.9473" y1="224.9473" x2="1172.6173" y2="1172.6173">
			<stop  offset="0" style="stop-color:#1BA9C9"/>
			<stop  offset="0.352" style="stop-color:#1BA6C8"/>
			<stop  offset="0.5811" style="stop-color:#1B9EC4"/>
			<stop  offset="0.7752" style="stop-color:#1C8FBE"/>
			<stop  offset="0.9488" style="stop-color:#1D7AB4"/>
			<stop  offset="1" style="stop-color:#1D72B1"/>
		</linearGradient>
		<path fill="url(#SVGID_1_)" d="M1417.32,1388.974c0,15.591-12.756,28.347-28.347,28.347H28.347
			C12.756,1417.32,0,1404.564,0,1388.974V28.347C0,12.756,12.756,0,28.347,0h1360.627c15.591,0,28.347,12.756,28.347,28.347
			V1388.974z"/>
	</g>
	<g>
		<g>
			<path fill="#FFFFFF" stroke="#FFFFFF" d="M508.6,1140.938H353.577V395.342L149.652,399.8V249.176h203.925H508.6V1140.938z"/>
		</g>
		<g>
			<path fill="#FFFFFF" stroke="#FFFFFF" d="M921.509,236.407c230.687,0,346.034,125.171,346.034,375.518
				c0,250.349-99.662,414.39-298.976,492.141c-68.898,26.952-151.326,40.424-247.291,40.424h-23.999l-30.443-1.549V1004.55
				c29.524,2.594,55.97,3.886,79.35,3.886c196.227,0,318.028-92.523,365.406-277.561c-43.682,36.813-82.437,61.813-116.267,75.028
				c-33.83,13.216-71.367,19.823-112.57,19.823c-89.201,0-162.257-25.267-219.156-75.799
				c-56.9-50.539-85.354-122.066-85.354-214.585c0-92.518,33.68-165.466,101.041-218.857
				C746.644,263.107,827.393,236.407,921.509,236.407z M917.822,692.782c115.638,0,173.477-52.599,173.477-157.824
				c0-84.999-33.84-135.54-101.51-151.61c-21.541-5.173-45.53-7.776-71.967-7.776c-119.964,0-179.94,52.869-179.94,158.607
				C737.882,639.913,797.858,692.782,917.822,692.782z"/>
		</g>
	</g>
</g>
</svg>
