<?xml version="1.0" encoding="utf-8"?>
<!-- Generator: Adobe Illustrator 16.0.2, SVG Export Plug-In . SVG Version: 6.00 Build 0)  -->
<!DOCTYPE svg PUBLIC "-//W3C//DTD SVG 1.1//EN" "http://www.w3.org/Graphics/SVG/1.1/DTD/svg11.dtd">
<svg version="1.1" id="Layer_1" xmlns="http://www.w3.org/2000/svg" xmlns:xlink="http://www.w3.org/1999/xlink" x="0px" y="0px"
	 width="1417.32px" height="1417.32px" viewBox="0 0 1417.32 1417.32" enable-background="new 0 0 1417.32 1417.32"
	 xml:space="preserve">
<g>
	<g>
		<linearGradient id="SVGID_1_" gradientUnits="userSpaceOnUse" x1="224.9463" y1="224.9473" x2="1172.6163" y2="1172.6173">
			<stop  offset="0" style="stop-color:#1BA9C9"/>
			<stop  offset="0.3053" style="stop-color:#1BA7C8"/>
			<stop  offset="0.5042" style="stop-color:#1BA2C6"/>
			<stop  offset="0.6726" style="stop-color:#1C98C1"/>
			<stop  offset="0.824" style="stop-color:#1C8ABB"/>
			<stop  offset="0.9628" style="stop-color:#1D78B4"/>
			<stop  offset="1" style="stop-color:#1D72B1"/>
		</linearGradient>
		<path fill="url(#SVGID_1_)" d="M1417.318,1388.974c0,15.591-12.756,28.347-28.347,28.347H28.347
			C12.756,1417.32,0,1404.564,0,1388.974V28.347C0,12.756,12.756,0,28.347,0h1360.625c15.591,0,28.347,12.756,28.347,28.347
			V1388.974z"/>
	</g>
	<g>
		<path fill="#FFFFFF" stroke="#FFFFFF" d="M386.62,265.119c71.354-30.05,157.329-45.088,257.907-45.088
			c100.581,0,185.156,22.682,253.755,68.027c68.585,45.363,102.885,110.788,102.885,196.309
			c-0.62,103.149-58.748,209.662-174.396,319.542c-19.692,18.659-39.375,36.538-59.058,53.648L617.306,984.278H1030.7v136.063
			H386.62V988.943c14.145-11.914,31.215-26.045,51.212-42.367c19.985-16.331,41.366-34.329,64.131-54.039
			c22.752-19.69,46.282-40.681,70.59-62.973c24.296-22.279,48.127-45.094,71.514-68.417
			c119.959-119.731,179.936-209.652,179.936-269.779c0-51.824-24.918-89.141-74.743-111.96
			c-38.149-17.614-87.358-26.554-147.64-26.819c-60.294-0.257-131.953,16.207-215,49.368V265.119z"/>
	</g>
</g>
</svg>
