<?xml version="1.0" encoding="utf-8"?>
<!-- Generator: Adobe Illustrator 16.0.2, SVG Export Plug-In . SVG Version: 6.00 Build 0)  -->
<!DOCTYPE svg PUBLIC "-//W3C//DTD SVG 1.1//EN" "http://www.w3.org/Graphics/SVG/1.1/DTD/svg11.dtd">
<svg version="1.1" id="Layer_1" xmlns="http://www.w3.org/2000/svg" xmlns:xlink="http://www.w3.org/1999/xlink" x="0px" y="0px"
	 width="1417.32px" height="1417.32px" viewBox="0 0 1417.32 1417.32" enable-background="new 0 0 1417.32 1417.32"
	 xml:space="preserve">
<g>
	<g>
		<linearGradient id="SVGID_1_" gradientUnits="userSpaceOnUse" x1="226.605" y1="225.6553" x2="1172.8879" y2="1171.9382">
			<stop  offset="0" style="stop-color:#1BA9C9"/>
			<stop  offset="0.352" style="stop-color:#1BA6C8"/>
			<stop  offset="0.5811" style="stop-color:#1B9EC4"/>
			<stop  offset="0.7752" style="stop-color:#1C8FBE"/>
			<stop  offset="0.9488" style="stop-color:#1D7AB4"/>
			<stop  offset="1" style="stop-color:#1D72B1"/>
		</linearGradient>
		<path fill="url(#SVGID_1_)" d="M1416.22,1388.974c0,15.591-12.756,28.347-28.347,28.347H31.347
			C15.756,1417.32,3,1404.564,3,1388.974V28.347C3,12.756,15.756,0,31.347,0h1356.526c15.591,0,28.347,12.756,28.347,28.347
			V1388.974z"/>
	</g>
	<g>
		<g>
			<path fill="#FFFFFF" stroke="#FFFFFF" d="M8.101,289.986c71.148-30.05,156.873-45.089,257.161-45.089
				c100.29,0,184.62,22.682,253.021,68.027c68.389,45.363,102.589,110.788,102.589,196.309
				c-0.618,103.149-58.583,209.662-173.894,319.542c-19.638,18.658-39.261,36.538-58.884,53.647l-149.974,126.725h412.195v136.058
				H8.101v-131.394c14.104-11.913,31.125-26.045,51.064-42.371c19.927-16.326,41.246-34.329,63.945-54.037
				c22.687-19.689,46.147-40.681,70.386-62.973c24.226-22.278,47.988-45.093,71.307-68.416
				c119.609-119.732,179.415-209.652,179.415-269.779c0-51.824-24.843-89.142-74.527-111.96
				c-38.038-17.614-87.105-26.554-147.212-26.819c-60.12-0.257-131.572,16.207-214.378,49.368V289.986z"/>
		</g>
		<g>
			<path fill="#FFFFFF" stroke="#FFFFFF" d="M1421.32,705.936c0,139.165-32.357,250.997-97.067,335.482
				c-64.72,84.486-159.63,126.725-284.761,126.725s-219.294-42.376-282.465-127.118c-63.18-84.742-94.771-196.309-94.771-334.704
				c0-214.583,70.532-355.552,211.618-422.938c47.849-22.801,104.573-34.21,170.215-34.21c65.631,0,122.217,11.41,169.757,34.21
				c47.53,22.81,86.632,54.427,117.306,94.851C1391.265,457.533,1421.32,566.767,1421.32,705.936z M1189.922,953.175
				c34.649-54.683,51.988-136.96,51.988-246.854c0-109.88-17.483-190.865-52.446-242.951
				c-34.962-52.09-84.346-78.135-148.134-78.135c-63.798,0-114.247,26.045-151.352,78.135
				c-37.119,52.085-55.664,132.823-55.664,242.172c0,109.371,18.859,191.648,56.586,246.854c37.722,55.196,88.325,82.8,151.814,82.8
				C1106.194,1035.196,1155.264,1007.858,1189.922,953.175z"/>
		</g>
	</g>
</g>
</svg>
