<?xml version="1.0" encoding="utf-8"?>
<!-- Generator: Adobe Illustrator 16.0.2, SVG Export Plug-In . SVG Version: 6.00 Build 0)  -->
<!DOCTYPE svg PUBLIC "-//W3C//DTD SVG 1.1//EN" "http://www.w3.org/Graphics/SVG/1.1/DTD/svg11.dtd">
<svg version="1.1" id="Layer_1" xmlns="http://www.w3.org/2000/svg" xmlns:xlink="http://www.w3.org/1999/xlink" x="0px" y="0px"
	 width="1417.32px" height="1417.32px" viewBox="0 0 1417.32 1417.32" enable-background="new 0 0 1417.32 1417.32"
	 xml:space="preserve">
<g>
	<g>
		<linearGradient id="SVGID_1_" gradientUnits="userSpaceOnUse" x1="224.9473" y1="224.9473" x2="1172.6173" y2="1172.6173">
			<stop  offset="0" style="stop-color:#1BA9C9"/>
			<stop  offset="0.352" style="stop-color:#1BA6C8"/>
			<stop  offset="0.5811" style="stop-color:#1B9EC4"/>
			<stop  offset="0.7752" style="stop-color:#1C8FBE"/>
			<stop  offset="0.9488" style="stop-color:#1D7AB4"/>
			<stop  offset="1" style="stop-color:#1D72B1"/>
		</linearGradient>
		<path fill="url(#SVGID_1_)" d="M1417.32,1388.974c0,15.591-12.756,28.347-28.347,28.347H28.347
			C12.756,1417.32,0,1404.564,0,1388.974V28.347C0,12.756,12.756,0,28.347,0h1360.627c15.591,0,28.347,12.756,28.347,28.347
			V1388.974z"/>
	</g>
	<g>
		<g>
			<path fill="#FFFFFF" stroke="#FFFFFF" d="M104.99,289.986c71.354-30.05,157.328-45.089,257.907-45.089
				c100.581,0,185.156,22.682,253.755,68.027c68.587,45.363,102.887,110.788,102.887,196.309
				c-0.619,103.149-58.753,209.662-174.398,319.542c-19.695,18.658-39.375,36.538-59.055,53.647l-150.409,126.725h413.391v136.058
				H104.99v-131.394c14.145-11.913,31.215-26.045,51.212-42.371c19.985-16.326,41.366-34.329,64.131-54.037
				c22.752-19.689,46.281-40.681,70.59-62.973c24.296-22.278,48.127-45.093,71.514-68.416
				c119.957-119.732,179.936-209.652,179.936-269.779c0-51.824-24.916-89.142-74.744-111.96
				c-38.148-17.614-87.357-26.554-147.639-26.819c-60.294-0.257-131.953,16.207-215,49.368V289.986z"/>
		</g>
		<g>
			<path fill="#FFFFFF" stroke="#FFFFFF" d="M1224.541,1149.846h-155.022V404.247l-203.93,4.458V258.081h203.93h155.022V1149.846z"
				/>
		</g>
	</g>
</g>
</svg>
