<?xml version="1.0" encoding="utf-8"?>
<!-- Generator: Adobe Illustrator 16.0.2, SVG Export Plug-In . SVG Version: 6.00 Build 0)  -->
<!DOCTYPE svg PUBLIC "-//W3C//DTD SVG 1.1//EN" "http://www.w3.org/Graphics/SVG/1.1/DTD/svg11.dtd">
<svg version="1.1" id="Layer_1" xmlns="http://www.w3.org/2000/svg" xmlns:xlink="http://www.w3.org/1999/xlink" x="0px" y="0px"
	 width="1417.32px" height="1417.32px" viewBox="0 0 1417.32 1417.32" enable-background="new 0 0 1417.32 1417.32"
	 xml:space="preserve">
<g>
	<g>
		<linearGradient id="SVGID_1_" gradientUnits="userSpaceOnUse" x1="224.9473" y1="224.9473" x2="1172.6173" y2="1172.6173">
			<stop  offset="0" style="stop-color:#1BA9C9"/>
			<stop  offset="0.352" style="stop-color:#1BA6C8"/>
			<stop  offset="0.5811" style="stop-color:#1B9EC4"/>
			<stop  offset="0.7752" style="stop-color:#1C8FBE"/>
			<stop  offset="0.9488" style="stop-color:#1D7AB4"/>
			<stop  offset="1" style="stop-color:#1D72B1"/>
		</linearGradient>
		<path fill="url(#SVGID_1_)" d="M1417.32,1388.974c0,15.591-12.756,28.347-28.347,28.347H28.347
			C12.756,1417.32,0,1404.564,0,1388.974V28.347C0,12.756,12.756,0,28.347,0h1360.627c15.591,0,28.347,12.756,28.347,28.347
			V1388.974z"/>
	</g>
	<g>
		<g>
			<path fill="#FFFFFF" stroke="#FFFFFF" d="M29.819,307.824c71.354-30.05,157.328-45.088,257.907-45.088
				c100.582,0,185.157,22.682,253.756,68.026c68.587,45.363,102.887,110.788,102.887,196.309
				c-0.62,103.149-58.753,209.661-174.398,319.541c-19.695,18.659-39.375,36.538-59.055,53.648l-150.41,126.724h413.392v136.059
				H29.819v-131.394c14.145-11.914,31.215-26.045,51.212-42.371c19.985-16.326,41.366-34.33,64.131-54.038
				c22.752-19.689,46.282-40.68,70.59-62.972c24.296-22.279,48.127-45.094,71.514-68.417
				C407.223,684.12,467.202,594.2,467.202,534.073c0-51.824-24.916-89.142-74.744-111.96
				c-38.148-17.614-87.357-26.554-147.639-26.82c-60.294-0.256-131.954,16.208-215,49.368V307.824z"/>
		</g>
		<g>
			<path fill="#FFFFFF" stroke="#FFFFFF" d="M744.47,307.824c71.352-30.05,157.326-45.088,257.907-45.088
				s185.156,22.682,253.756,68.026c68.589,45.363,102.889,110.788,102.889,196.309c-0.619,103.149-58.758,209.661-174.4,319.541
				c-19.697,18.659-39.375,36.538-59.053,53.648l-150.412,126.724h413.39v136.059H744.47v-131.394
				c14.143-11.914,31.218-26.045,51.21-42.371c19.987-16.326,41.368-34.33,64.133-54.038c22.75-19.689,46.279-40.68,70.588-62.972
				c24.299-22.279,48.128-45.094,71.517-68.417c119.954-119.731,179.937-209.651,179.937-269.778
				c0-51.824-24.913-89.142-74.744-111.96c-38.151-17.614-87.357-26.554-147.64-26.82c-60.292-0.256-131.953,16.208-215,49.368
				V307.824z"/>
		</g>
	</g>
</g>
</svg>
