<?xml version="1.0" encoding="utf-8"?>
<!-- Generator: Adobe Illustrator 16.0.2, SVG Export Plug-In . SVG Version: 6.00 Build 0)  -->
<!DOCTYPE svg PUBLIC "-//W3C//DTD SVG 1.1//EN" "http://www.w3.org/Graphics/SVG/1.1/DTD/svg11.dtd">
<svg version="1.1" id="Layer_1" xmlns="http://www.w3.org/2000/svg" xmlns:xlink="http://www.w3.org/1999/xlink" x="0px" y="0px"
	 width="1417.32px" height="1417.32px" viewBox="0 0 1417.32 1417.32" enable-background="new 0 0 1417.32 1417.32"
	 xml:space="preserve">
<g>
	<g>
		<linearGradient id="SVGID_1_" gradientUnits="userSpaceOnUse" x1="224.9473" y1="224.9473" x2="1172.6173" y2="1172.6173">
			<stop  offset="0" style="stop-color:#1BA9C9"/>
			<stop  offset="0.352" style="stop-color:#1BA6C8"/>
			<stop  offset="0.5811" style="stop-color:#1B9EC4"/>
			<stop  offset="0.7752" style="stop-color:#1C8FBE"/>
			<stop  offset="0.9488" style="stop-color:#1D7AB4"/>
			<stop  offset="1" style="stop-color:#1D72B1"/>
		</linearGradient>
		<path fill="url(#SVGID_1_)" d="M1417.32,1388.974c0,15.591-12.756,28.347-28.347,28.347H28.347
			C12.756,1417.32,0,1404.564,0,1388.974V28.347C0,12.756,12.756,0,28.347,0h1360.627c15.591,0,28.347,12.756,28.347,28.347
			V1388.974z"/>
	</g>
	<g>
		<g>
			<path fill="#FFFFFF" stroke="#FFFFFF" d="M1136.049,603.158c175.325,22.814,262.987,107.562,262.987,254.236
				c0,37.317-9.546,74.634-28.604,111.951c-19.078,37.317-46.459,69.195-82.127,95.63c-74.439,55.467-172.867,83.188-295.279,83.188
				c-93.517,0-181.479-12.184-263.906-36.542V963.128c99.662,25.921,184.237,38.87,253.756,38.87
				c161.787,0,242.686-54.674,242.686-164.041c0-82.924-75.669-124.396-227-124.396c-25.228,0-52.913,2.332-83.046,6.997v-104.18
				l212.231-238.68H745.729V240.082h599.784v135.279L1136.049,603.158z"/>
		</g>
		<g>
			<path fill="#FFFFFF" stroke="#FFFFFF" d="M27.391,289.056c71.354-30.049,157.328-45.088,257.907-45.088
				c100.581,0,185.156,22.682,253.755,68.026c68.587,45.363,102.887,110.788,102.887,196.309
				c-0.62,103.149-58.753,209.661-174.398,319.541c-19.695,18.659-39.375,36.538-59.055,53.648l-150.409,126.724h413.392v136.059
				H27.391v-131.394c14.145-11.914,31.215-26.045,51.212-42.371c19.985-16.326,41.366-34.33,64.13-54.037
				c22.752-19.69,46.282-40.681,70.59-62.973c24.296-22.279,48.127-45.094,71.514-68.417
				c119.956-119.731,179.936-209.651,179.936-269.778c0-51.824-24.916-89.142-74.744-111.96
				c-38.149-17.614-87.358-26.554-147.639-26.819c-60.294-0.257-131.954,16.207-215,49.368V289.056z"/>
		</g>
	</g>
</g>
</svg>
