<?xml version="1.0" encoding="utf-8"?>
<!-- Generator: Adobe Illustrator 16.0.2, SVG Export Plug-In . SVG Version: 6.00 Build 0)  -->
<!DOCTYPE svg PUBLIC "-//W3C//DTD SVG 1.1//EN" "http://www.w3.org/Graphics/SVG/1.1/DTD/svg11.dtd">
<svg version="1.1" id="Layer_1" xmlns="http://www.w3.org/2000/svg" xmlns:xlink="http://www.w3.org/1999/xlink" x="0px" y="0px"
	 width="1417.32px" height="1417.32px" viewBox="0 0 1417.32 1417.32" enable-background="new 0 0 1417.32 1417.32"
	 xml:space="preserve">
<g>
	<g>
		<linearGradient id="SVGID_1_" gradientUnits="userSpaceOnUse" x1="224.9473" y1="224.9473" x2="1172.6173" y2="1172.6173">
			<stop  offset="0" style="stop-color:#1BA9C9"/>
			<stop  offset="0.352" style="stop-color:#1BA6C8"/>
			<stop  offset="0.5811" style="stop-color:#1B9EC4"/>
			<stop  offset="0.7752" style="stop-color:#1C8FBE"/>
			<stop  offset="0.9488" style="stop-color:#1D7AB4"/>
			<stop  offset="1" style="stop-color:#1D72B1"/>
		</linearGradient>
		<path fill="url(#SVGID_1_)" d="M1417.32,1388.974c0,15.591-12.756,28.347-28.347,28.347H28.347
			C12.756,1417.32,0,1404.564,0,1388.974V28.347C0,12.756,12.756,0,28.347,0h1360.627c15.591,0,28.347,12.756,28.347,28.347
			V1388.974z"/>
	</g>
	<g>
		<g>
			<path fill="#FFFFFF" stroke="#FFFFFF" d="M1391.238,960.795H1287.89v177.261h-167.018V960.795H665.959V834.063l422.617-583.877
				h199.313V817.74h103.349V960.795z M1120.872,817.74V418.122L848.658,817.74H1120.872z"/>
		</g>
		<g>
			<path fill="#FFFFFF" stroke="#FFFFFF" d="M11.737,289.056c71.352-30.049,157.326-45.088,257.902-45.088
				c100.581,0,185.157,22.682,253.756,68.026c68.589,45.363,102.889,110.788,102.889,196.309
				c-0.62,103.149-58.753,209.661-174.396,319.541c-19.698,18.659-39.375,36.538-59.058,53.648l-150.407,126.724h413.39v136.059
				H11.737v-131.394c14.142-11.914,31.212-26.045,51.209-42.371c19.987-16.326,41.369-34.33,64.128-54.037
				c22.755-19.69,46.284-40.681,70.593-62.973c24.293-22.279,48.127-45.094,71.512-68.417
				c119.959-119.731,179.941-209.651,179.941-269.778c0-51.824-24.918-89.142-74.744-111.96
				c-38.151-17.614-87.363-26.554-147.64-26.819c-60.297-0.257-131.954,16.207-215,49.368V289.056z"/>
		</g>
	</g>
</g>
</svg>
