<?xml version="1.0" encoding="utf-8"?>
<!-- Generator: Adobe Illustrator 16.0.2, SVG Export Plug-In . SVG Version: 6.00 Build 0)  -->
<!DOCTYPE svg PUBLIC "-//W3C//DTD SVG 1.1//EN" "http://www.w3.org/Graphics/SVG/1.1/DTD/svg11.dtd">
<svg version="1.1" id="Layer_1" xmlns="http://www.w3.org/2000/svg" xmlns:xlink="http://www.w3.org/1999/xlink" x="0px" y="0px"
	 width="1417.32px" height="1417.32px" viewBox="0 0 1417.32 1417.32" enable-background="new 0 0 1417.32 1417.32"
	 xml:space="preserve">
<g>
	<g>
		<linearGradient id="SVGID_1_" gradientUnits="userSpaceOnUse" x1="224.9473" y1="224.9473" x2="1172.6173" y2="1172.6173">
			<stop  offset="0" style="stop-color:#1BA9C9"/>
			<stop  offset="0.352" style="stop-color:#1BA6C8"/>
			<stop  offset="0.5811" style="stop-color:#1B9EC4"/>
			<stop  offset="0.7752" style="stop-color:#1C8FBE"/>
			<stop  offset="0.9488" style="stop-color:#1D7AB4"/>
			<stop  offset="1" style="stop-color:#1D72B1"/>
		</linearGradient>
		<path fill="url(#SVGID_1_)" d="M1417.32,1388.974c0,15.591-12.756,28.347-28.347,28.347H28.347
			C12.756,1417.32,0,1404.564,0,1388.974V28.347C0,12.756,12.756,0,28.347,0h1360.627c15.591,0,28.347,12.756,28.347,28.347
			V1388.974z"/>
	</g>
	<g>
		<g>
			<path fill="#FFFFFF" stroke="#FFFFFF" d="M35.843,289.056c71.357-30.049,157.331-45.088,257.902-45.088
				c100.581,0,185.156,22.682,253.755,68.026c68.589,45.363,102.889,110.788,102.889,196.309
				c-0.62,103.149-58.748,209.661-174.396,319.541c-19.692,18.659-39.375,36.538-59.058,53.648l-150.407,126.724h413.394v136.059
				H35.843v-131.394c14.147-11.914,31.212-26.045,51.215-42.371c19.982-16.326,41.363-34.33,64.123-54.037
				c22.76-19.69,46.289-40.681,70.598-62.973c24.289-22.279,48.127-45.094,71.506-68.417
				c119.964-119.731,179.941-209.651,179.941-269.778c0-51.824-24.918-89.142-74.744-111.96
				c-38.146-17.614-87.363-26.554-147.64-26.819c-60.296-0.257-131.953,16.207-215,49.368V289.056z"/>
		</g>
		<g>
			<path fill="#FFFFFF" stroke="#FFFFFF" d="M1310.245,387.806c-35.688-3.116-70.128-4.665-103.349-4.665
				s-69.528,6.735-108.884,20.207C979.278,443.782,901.467,535.264,864.56,677.797c43.052-36.272,81.808-61.034,116.268-74.249
				c34.439-13.215,72.275-19.823,113.489-19.823c87.972,0,160.707,24.625,218.236,73.855
				c57.51,49.249,86.273,120.258,86.273,213.029c0,92.789-33.999,165.6-101.959,218.468
				c-67.98,52.869-148.419,79.299-241.307,79.299c-116.887,0-204.379-33.156-262.518-99.515
				c-58.129-66.341-87.203-171.043-87.203-314.098c0-142.528,43.372-259.932,130.115-352.185
				c97.184-103.667,236.521-155.5,418-155.5h24.918l31.372,1.558V387.806z M1050.025,1029.995
				c121.183,0,181.779-51.045,181.779-153.163c0-84.999-36.298-135.788-108.884-152.384c-22.76-5.179-47.059-7.506-72.896-7.002
				c-55.98,0-98.433,11.794-127.337,35.374c-28.925,23.599-43.372,62.858-43.372,117.789
				c-0.619,85.008,32.302,135.55,98.743,151.605C998.961,1027.401,1022.949,1029.995,1050.025,1029.995z"/>
		</g>
	</g>
</g>
</svg>
