<?xml version="1.0" encoding="utf-8"?>
<!-- Generator: Adobe Illustrator 16.0.2, SVG Export Plug-In . SVG Version: 6.00 Build 0)  -->
<!DOCTYPE svg PUBLIC "-//W3C//DTD SVG 1.1//EN" "http://www.w3.org/Graphics/SVG/1.1/DTD/svg11.dtd">
<svg version="1.1" id="Layer_1" xmlns="http://www.w3.org/2000/svg" xmlns:xlink="http://www.w3.org/1999/xlink" x="0px" y="0px"
	 width="1417.32px" height="1417.32px" viewBox="0 0 1417.32 1417.32" enable-background="new 0 0 1417.32 1417.32"
	 xml:space="preserve">
<g>
	<g>
		<linearGradient id="SVGID_1_" gradientUnits="userSpaceOnUse" x1="224.9473" y1="224.9473" x2="1172.6173" y2="1172.6173">
			<stop  offset="0" style="stop-color:#1BA9C9"/>
			<stop  offset="0.352" style="stop-color:#1BA6C8"/>
			<stop  offset="0.5811" style="stop-color:#1B9EC4"/>
			<stop  offset="0.7752" style="stop-color:#1C8FBE"/>
			<stop  offset="0.9488" style="stop-color:#1D7AB4"/>
			<stop  offset="1" style="stop-color:#1D72B1"/>
		</linearGradient>
		<path fill="url(#SVGID_1_)" d="M1417.32,1388.974c0,15.591-12.756,28.347-28.347,28.347H28.347
			C12.756,1417.32,0,1404.564,0,1388.974V28.347C0,12.756,12.756,0,28.347,0h1360.627c15.591,0,28.347,12.756,28.347,28.347
			V1388.974z"/>
	</g>
	<g>
		<g>
			<path fill="#FFFFFF" stroke="#FFFFFF" d="M31.742,289.056c71.357-30.049,157.331-45.088,257.902-45.088
				c100.581,0,185.156,22.682,253.755,68.026c68.589,45.363,102.889,110.788,102.889,196.309
				c-0.62,103.149-58.748,209.661-174.396,319.541c-19.692,18.659-39.375,36.538-59.058,53.648l-150.407,126.724h413.394v136.059
				H31.742v-131.394c14.147-11.914,31.212-26.045,51.215-42.371c19.982-16.326,41.363-34.33,64.123-54.037
				c22.76-19.69,46.289-40.681,70.598-62.973c24.289-22.279,48.127-45.094,71.507-68.417
				c119.964-119.731,179.94-209.651,179.94-269.778c0-51.824-24.918-89.142-74.744-111.96
				c-38.146-17.614-87.363-26.554-147.639-26.819c-60.297-0.257-131.953,16.207-215,49.368V289.056z"/>
		</g>
		<g>
			<path fill="#FFFFFF" stroke="#FFFFFF" d="M1393.246,385.469l-363.567,767.36H853.435l346.953-752.587H776.853V262.631h616.394
				V385.469z"/>
		</g>
	</g>
</g>
</svg>
