<?xml version="1.0" encoding="utf-8"?>
<!-- Generator: Adobe Illustrator 16.0.2, SVG Export Plug-In . SVG Version: 6.00 Build 0)  -->
<!DOCTYPE svg PUBLIC "-//W3C//DTD SVG 1.1//EN" "http://www.w3.org/Graphics/SVG/1.1/DTD/svg11.dtd">
<svg version="1.1" id="Layer_1" xmlns="http://www.w3.org/2000/svg" xmlns:xlink="http://www.w3.org/1999/xlink" x="0px" y="0px"
	 width="1417.32px" height="1417.32px" viewBox="0 0 1417.32 1417.32" enable-background="new 0 0 1417.32 1417.32"
	 xml:space="preserve">
<g>
	<g>
		<linearGradient id="SVGID_1_" gradientUnits="userSpaceOnUse" x1="224.9473" y1="224.9473" x2="1172.6173" y2="1172.6173">
			<stop  offset="0" style="stop-color:#1BA9C9"/>
			<stop  offset="0.352" style="stop-color:#1BA6C8"/>
			<stop  offset="0.5811" style="stop-color:#1B9EC4"/>
			<stop  offset="0.7752" style="stop-color:#1C8FBE"/>
			<stop  offset="0.9488" style="stop-color:#1D7AB4"/>
			<stop  offset="1" style="stop-color:#1D72B1"/>
		</linearGradient>
		<path fill="url(#SVGID_1_)" d="M1417.32,1388.974c0,15.591-12.756,28.347-28.347,28.347H28.347
			C12.756,1417.32,0,1404.564,0,1388.974V28.347C0,12.756,12.756,0,28.347,0h1360.627c15.591,0,28.347,12.756,28.347,28.347
			V1388.974z"/>
	</g>
	<g>
		<g>
			<path fill="#FFFFFF" stroke="#FFFFFF" d="M25.842,289.056c71.356-30.049,157.331-45.088,257.901-45.088
				c100.581,0,185.156,22.682,253.755,68.026c68.589,45.363,102.889,110.788,102.889,196.309
				c-0.62,103.149-58.748,209.661-174.396,319.541c-19.693,18.659-39.375,36.538-59.058,53.648l-150.407,126.724h413.394v136.059
				H25.842v-131.394c14.147-11.914,31.212-26.045,51.214-42.371c19.982-16.326,41.363-34.33,64.124-54.037
				c22.76-19.69,46.289-40.681,70.597-62.973c24.289-22.279,48.127-45.094,71.507-68.417
				c119.964-119.731,179.941-209.651,179.941-269.778c0-51.824-24.918-89.142-74.744-111.96
				c-38.146-17.614-87.362-26.554-147.639-26.819c-60.297-0.257-131.953,16.207-215,49.368V289.056z"/>
		</g>
		<g>
			<path fill="#FFFFFF" stroke="#FFFFFF" d="M1401.654,827.656c6.135,22.287,9.062,50.147,8.762,83.574
				c-0.319,33.432-7.543,64.411-21.681,92.907c-14.767,29.037-33.54,52.869-56.29,71.527
				c-38.756,32.145-96.135,55.856-172.098,71.139c-75.982,15.281-155.941,11.785-239.918-10.493
				c-83.965-22.278-145.031-65.039-183.157-128.282c-19.083-31.612-28.615-64.013-28.615-97.188
				c0-60.118,12.918-109.486,38.755-148.104c25.837-38.609,70.128-72.426,132.883-101.458
				c-47.987-29.023-80.738-60.123-98.273-93.302c-17.534-33.161-26.297-68.668-26.297-106.508c0-37.83,7.983-70.877,23.989-99.13
				c15.985-28.245,37.826-52.09,65.512-71.527s59.977-34.073,96.895-43.925c36.907-9.842,76.263-14.773,118.105-14.773
				c86.743,0,159.02,20.217,216.857,60.641c57.81,40.433,86.733,95.896,86.733,166.378c0,39.397-8.762,75.684-26.297,108.845
				c-17.534,33.179-50.285,64.278-98.282,93.302C1329.678,703.782,1383.8,759.235,1401.654,827.656z M1229.087,948.158
				c9.841-17.614,14.767-38.871,14.767-63.747c0-43.54-19.373-78.781-58.128-105.738c-21.541-14.507-63.374-31.607-125.499-51.311
				c-63.364,20.734-104.588,37.583-123.65,50.532c-40.595,26.956-60.896,63.109-60.896,108.459
				c0,45.359,17.534,80.078,52.594,104.18c35.068,24.103,79.04,36.153,131.953,36.153
				C1143.883,1027.209,1200.173,1001.026,1229.087,948.158z M1159.889,566.423c19.053-14.502,32.75-29.408,41.053-44.703
				c8.313-15.282,12.459-33.432,12.459-54.422s-4.306-38.738-12.918-53.254c-8.623-14.507-19.992-26.439-34.14-35.768
				c-14.158-9.33-30.453-16.193-48.907-20.602c-18.453-4.399-37.526-6.607-57.209-6.607c-43.063,0-79.67,9.714-109.803,29.151
				c-30.153,19.438-45.221,48.085-45.221,85.916c0,55.976,32.302,96.926,96.895,122.838c18.454,7.263,37.826,13.737,58.129,19.438
				C1107.595,594.938,1140.805,580.944,1159.889,566.423z"/>
		</g>
	</g>
</g>
</svg>
