<?xml version="1.0" encoding="utf-8"?>
<!-- Generator: Adobe Illustrator 16.0.2, SVG Export Plug-In . SVG Version: 6.00 Build 0)  -->
<!DOCTYPE svg PUBLIC "-//W3C//DTD SVG 1.1//EN" "http://www.w3.org/Graphics/SVG/1.1/DTD/svg11.dtd">
<svg version="1.1" id="Layer_1" xmlns="http://www.w3.org/2000/svg" xmlns:xlink="http://www.w3.org/1999/xlink" x="0px" y="0px"
	 width="1417.32px" height="1417.32px" viewBox="0 0 1417.32 1417.32" enable-background="new 0 0 1417.32 1417.32"
	 xml:space="preserve">
<g>
	<g>
		<linearGradient id="SVGID_1_" gradientUnits="userSpaceOnUse" x1="227.8174" y1="226.9863" x2="1171.4929" y2="1170.6619">
			<stop  offset="0" style="stop-color:#1BA9C9"/>
			<stop  offset="0.352" style="stop-color:#1BA6C8"/>
			<stop  offset="0.5811" style="stop-color:#1B9EC4"/>
			<stop  offset="0.7752" style="stop-color:#1C8FBE"/>
			<stop  offset="0.9488" style="stop-color:#1D7AB4"/>
			<stop  offset="1" style="stop-color:#1D72B1"/>
		</linearGradient>
		<path fill="url(#SVGID_1_)" d="M1412.247,1388.974c0,15.591-12.756,28.347-28.347,28.347H35.083
			c-15.591,0-28.347-12.756-28.347-28.347V28.347C6.736,12.756,19.492,0,35.083,0H1383.9c15.591,0,28.347,12.756,28.347,28.347
			V1388.974z"/>
	</g>
	<g>
		<g>
			<path fill="#FFFFFF" stroke="#FFFFFF" d="M402.54,612.002c173.861,22.814,260.791,107.562,260.791,254.236
				c0,37.316-9.464,74.634-28.366,111.951c-18.917,37.316-46.067,69.195-81.441,95.629
				c-73.819,55.468-171.429,83.189-292.818,83.189c-92.735,0-179.965-12.184-261.705-36.543V971.972
				c98.827,25.921,182.697,38.87,251.641,38.87c160.434,0,240.658-54.675,240.658-164.041c0-82.924-75.035-124.396-225.103-124.396
				c-25.022,0-52.473,2.332-82.355,6.997v-104.18l210.462-238.68H15.469V248.925h594.79v135.279L402.54,612.002z"/>
		</g>
		<g>
			<path fill="#FFFFFF" stroke="#FFFFFF" d="M1417.32,700.254c0,139.16-32.181,250.992-96.538,335.479
				c-64.366,84.485-158.759,126.724-283.208,126.724c-124.448,0-218.098-42.376-280.924-127.118
				c-62.836-84.742-94.254-196.309-94.254-334.699c0-214.582,70.148-355.557,210.464-422.942
				c47.588-22.801,104.004-34.21,169.287-34.21c65.273,0,121.55,11.41,168.831,34.21c47.271,22.81,86.159,54.427,116.665,94.851
				C1387.428,451.846,1417.32,561.085,1417.32,700.254z M1187.185,947.489c34.459-54.684,51.704-136.961,51.704-246.851
				c0-109.88-17.389-190.865-52.16-242.955c-34.771-52.09-83.886-78.135-147.326-78.135c-63.45,0-113.623,26.045-150.525,78.135
				c-36.917,52.09-55.36,132.818-55.36,242.176c0,109.367,18.755,191.644,56.276,246.85c37.517,55.196,87.844,82.8,150.987,82.8
				C1103.913,1029.51,1152.715,1002.172,1187.185,947.489z"/>
		</g>
	</g>
</g>
</svg>
