<?xml version="1.0" encoding="utf-8"?>
<!-- Generator: Adobe Illustrator 16.0.2, SVG Export Plug-In . SVG Version: 6.00 Build 0)  -->
<!DOCTYPE svg PUBLIC "-//W3C//DTD SVG 1.1//EN" "http://www.w3.org/Graphics/SVG/1.1/DTD/svg11.dtd">
<svg version="1.1" id="Layer_1" xmlns="http://www.w3.org/2000/svg" xmlns:xlink="http://www.w3.org/1999/xlink" x="0px" y="0px"
	 width="1417.32px" height="1417.32px" viewBox="0 0 1417.32 1417.32" enable-background="new 0 0 1417.32 1417.32"
	 xml:space="preserve">
<g>
	<g>
		<linearGradient id="SVGID_1_" gradientUnits="userSpaceOnUse" x1="228.6675" y1="225.7915" x2="1173.7152" y2="1170.8392">
			<stop  offset="0" style="stop-color:#1BA9C9"/>
			<stop  offset="0.3053" style="stop-color:#1BA7C8"/>
			<stop  offset="0.5042" style="stop-color:#1BA2C6"/>
			<stop  offset="0.6726" style="stop-color:#1C98C1"/>
			<stop  offset="0.824" style="stop-color:#1C8ABB"/>
			<stop  offset="0.9628" style="stop-color:#1D78B4"/>
			<stop  offset="1" style="stop-color:#1D72B1"/>
		</linearGradient>
		<path fill="url(#SVGID_1_)" d="M1415.332,1388.974c0,15.591-12.756,28.347-28.347,28.347H35.099
			c-15.591,0-28.347-12.756-28.347-28.347V27.359c0-15.591,12.756-28.347,28.347-28.347h1351.886
			c15.591,0,28.347,12.756,28.347,28.347V1388.974z"/>
	</g>
	<g>
		<g>
			<path fill="#FFFFFF" stroke="#FFFFFF" d="M732.57,297.124c70.912-30.071,156.356-45.12,256.317-45.12
				s184.015,22.697,252.19,68.074c68.166,45.395,102.255,110.865,102.255,196.445c-0.616,103.221-58.396,209.805-173.325,319.761
				c-19.576,18.672-39.133,36.563-58.689,53.686l-149.484,126.812h410.841v136.157H732.57v-131.489
				c14.056-11.922,31.025-26.063,50.895-42.396c19.864-16.343,41.113-34.354,63.737-54.08c22.61-19.698,45.994-40.708,70.152-63.012
				c24.149-22.294,47.831-45.129,71.076-68.468c119.214-119.813,178.826-209.796,178.826-269.965
				c0-51.86-24.759-89.203-74.283-112.038c-37.916-17.626-86.818-26.572-146.729-26.838c-59.92-0.257-131.14,16.218-213.675,49.402
				V297.124z"/>
		</g>
		<g>
			<path fill="#FFFFFF" stroke="#FFFFFF" d="M403.421,611.439c174.241,22.831,261.361,107.634,261.361,254.411
				c0,37.343-9.485,74.686-28.428,112.029c-18.958,37.343-46.167,69.247-81.619,95.695c-73.98,55.511-171.804,83.252-293.458,83.252
				c-92.938,0-180.358-12.197-262.277-36.573V971.662c99.042,25.935,183.096,38.893,252.191,38.893
				c160.784,0,241.184-54.713,241.184-164.155c0-82.977-75.199-124.483-225.595-124.483c-25.077,0-52.587,2.339-82.535,7.007
				V624.668l210.921-238.846H15.505V248.111h596.089v135.373L403.421,611.439z"/>
		</g>
	</g>
</g>
</svg>
