<?xml version="1.0" encoding="utf-8"?>
<!-- Generator: Adobe Illustrator 16.0.2, SVG Export Plug-In . SVG Version: 6.00 Build 0)  -->
<!DOCTYPE svg PUBLIC "-//W3C//DTD SVG 1.1//EN" "http://www.w3.org/Graphics/SVG/1.1/DTD/svg11.dtd">
<svg version="1.1" id="Layer_1" xmlns="http://www.w3.org/2000/svg" xmlns:xlink="http://www.w3.org/1999/xlink" x="0px" y="0px"
	 width="1417.32px" height="1417.32px" viewBox="0 0 1417.32 1417.32" enable-background="new 0 0 1417.32 1417.32"
	 xml:space="preserve">
<g>
	<g>
		<linearGradient id="SVGID_1_" gradientUnits="userSpaceOnUse" x1="224.9463" y1="224.9482" x2="1172.6168" y2="1172.6188">
			<stop  offset="0" style="stop-color:#1BA9C9"/>
			<stop  offset="0.3053" style="stop-color:#1BA7C8"/>
			<stop  offset="0.5042" style="stop-color:#1BA2C6"/>
			<stop  offset="0.6726" style="stop-color:#1C98C1"/>
			<stop  offset="0.824" style="stop-color:#1C8ABB"/>
			<stop  offset="0.9628" style="stop-color:#1D78B4"/>
			<stop  offset="1" style="stop-color:#1D72B1"/>
		</linearGradient>
		<path fill="url(#SVGID_1_)" d="M1417.318,1388.976c0,15.591-12.756,28.347-28.347,28.347H28.347
			c-15.591,0-28.347-12.756-28.347-28.347V28.347C0,12.756,12.756,0,28.347,0h1360.625c15.591,0,28.347,12.756,28.347,28.347
			V1388.976z"/>
	</g>
	<g>
		<g>
			<path fill="#FFFFFF" stroke="#FFFFFF" d="M1118.104,613c175.324,22.814,262.986,107.559,262.986,254.234
				c0,37.317-9.546,74.635-28.604,111.951c-19.078,37.317-46.459,69.2-82.127,95.63c-74.439,55.472-172.867,83.193-295.278,83.193
				c-93.518,0-181.479-12.188-263.904-36.547V972.973c99.659,25.916,184.234,38.865,253.753,38.865
				c161.787,0,242.686-54.674,242.686-164.041c0-82.919-75.669-124.396-226.999-124.396c-25.229,0-52.914,2.337-83.047,7.002V626.22
				l212.232-238.68H727.783V249.924h599.784v135.279L1118.104,613z"/>
		</g>
		<g>
			<path fill="#FFFFFF" stroke="#FFFFFF" d="M440.053,612.001c175.322,22.815,262.982,107.559,262.982,254.234
				c0,37.317-9.544,74.635-28.604,111.951c-19.076,37.317-46.454,69.2-82.125,95.63c-74.439,55.472-172.869,83.193-295.278,83.193
				c-93.515,0-181.477-12.188-263.904-36.547V971.974c99.657,25.916,184.232,38.865,253.755,38.865
				c161.782,0,242.681-54.674,242.681-164.041c0-82.918-75.666-124.396-226.994-124.396c-25.233,0-52.914,2.337-83.047,7.002
				V625.221l212.23-238.68H49.731V248.925h599.787v135.279L440.053,612.001z"/>
		</g>
	</g>
</g>
</svg>
