<?xml version="1.0" encoding="utf-8"?>
<!-- Generator: Adobe Illustrator 16.0.2, SVG Export Plug-In . SVG Version: 6.00 Build 0)  -->
<!DOCTYPE svg PUBLIC "-//W3C//DTD SVG 1.1//EN" "http://www.w3.org/Graphics/SVG/1.1/DTD/svg11.dtd">
<svg version="1.1" id="Layer_1" xmlns="http://www.w3.org/2000/svg" xmlns:xlink="http://www.w3.org/1999/xlink" x="0px" y="0px"
	 width="1417.32px" height="1417.32px" viewBox="0 0 1417.32 1417.32" enable-background="new 0 0 1417.32 1417.32"
	 xml:space="preserve">
<g>
	<g>
		<linearGradient id="SVGID_1_" gradientUnits="userSpaceOnUse" x1="224.9468" y1="224.9478" x2="1172.6178" y2="1172.6188">
			<stop  offset="0" style="stop-color:#1BA9C9"/>
			<stop  offset="0.3053" style="stop-color:#1BA7C8"/>
			<stop  offset="0.5042" style="stop-color:#1BA2C6"/>
			<stop  offset="0.6726" style="stop-color:#1C98C1"/>
			<stop  offset="0.824" style="stop-color:#1C8ABB"/>
			<stop  offset="0.9628" style="stop-color:#1D78B4"/>
			<stop  offset="1" style="stop-color:#1D72B1"/>
		</linearGradient>
		<path fill="url(#SVGID_1_)" d="M1417.32,1388.976c0,15.591-12.756,28.347-28.347,28.347H28.347
			c-15.591,0-28.347-12.756-28.347-28.347V28.347C0,12.756,12.756,0,28.347,0h1360.627c15.591,0,28.347,12.756,28.347,28.347
			V1388.976z"/>
	</g>
	<g>
		<g>
			<path fill="#FFFFFF" stroke="#FFFFFF" d="M1398.143,969.646h-103.349v177.266h-167.018V969.646H672.864V842.912l422.616-583.874
				h199.313v567.553h103.349V969.646z M1127.776,826.591V426.974L855.563,826.591H1127.776z"/>
		</g>
		<g>
			<path fill="#FFFFFF" stroke="#FFFFFF" d="M409.36,612.001c175.322,22.815,262.982,107.559,262.982,254.234
				c0,37.317-9.544,74.635-28.604,111.951c-19.076,37.317-46.454,69.2-82.125,95.63c-74.439,55.472-172.87,83.193-295.279,83.193
				c-93.515,0-181.477-12.188-263.904-36.547V971.974c99.657,25.916,184.232,38.865,253.755,38.865
				c161.782,0,242.68-54.674,242.68-164.041c0-82.918-75.666-124.396-226.994-124.396c-25.233,0-52.914,2.337-83.047,7.002V625.221
				l212.23-238.68H19.038V248.925h599.787v135.279L409.36,612.001z"/>
		</g>
	</g>
</g>
</svg>
