<?xml version="1.0" encoding="utf-8"?>
<!-- Generator: Adobe Illustrator 16.0.2, SVG Export Plug-In . SVG Version: 6.00 Build 0)  -->
<!DOCTYPE svg PUBLIC "-//W3C//DTD SVG 1.1//EN" "http://www.w3.org/Graphics/SVG/1.1/DTD/svg11.dtd">
<svg version="1.1" id="Layer_1" xmlns="http://www.w3.org/2000/svg" xmlns:xlink="http://www.w3.org/1999/xlink" x="0px" y="0px"
	 width="1417.32px" height="1417.32px" viewBox="0 0 1417.32 1417.32" enable-background="new 0 0 1417.32 1417.32"
	 xml:space="preserve">
<g>
	<g>
		<linearGradient id="SVGID_1_" gradientUnits="userSpaceOnUse" x1="224.9468" y1="224.9478" x2="1172.6178" y2="1172.6188">
			<stop  offset="0" style="stop-color:#1BA9C9"/>
			<stop  offset="0.3053" style="stop-color:#1BA7C8"/>
			<stop  offset="0.5042" style="stop-color:#1BA2C6"/>
			<stop  offset="0.6726" style="stop-color:#1C98C1"/>
			<stop  offset="0.824" style="stop-color:#1C8ABB"/>
			<stop  offset="0.9628" style="stop-color:#1D78B4"/>
			<stop  offset="1" style="stop-color:#1D72B1"/>
		</linearGradient>
		<path fill="url(#SVGID_1_)" d="M1417.32,1388.976c0,15.591-12.756,28.347-28.347,28.347H28.347
			c-15.591,0-28.347-12.756-28.347-28.347V28.347C0,12.756,12.756,0,28.347,0h1360.627c15.591,0,28.347,12.756,28.347,28.347
			V1388.976z"/>
	</g>
	<g>
		<g>
			<path fill="#FFFFFF" stroke="#FFFFFF" d="M440.05,612.001c175.325,22.815,262.987,107.559,262.987,254.234
				c0,37.317-9.546,74.635-28.604,111.951c-19.078,37.317-46.459,69.2-82.127,95.63c-74.439,55.472-172.867,83.193-295.279,83.193
				c-93.515,0-181.477-12.188-263.904-36.547V971.974c99.657,25.916,184.232,38.865,253.753,38.865
				c161.787,0,242.685-54.674,242.685-164.041c0-82.918-75.668-124.396-226.999-124.396c-25.228,0-52.911,2.337-83.044,7.002
				V625.221l212.229-238.68H49.731V248.925h599.784v135.279L440.05,612.001z"/>
		</g>
		<g>
			<path fill="#FFFFFF" stroke="#FFFFFF" d="M929.896,599.813c49.207-8.284,95.506-12.44,138.867-12.44
				c43.372,0,86.424,7.13,129.186,21.38c42.752,14.26,78.281,33.569,106.576,57.923c56.59,48.725,84.895,111.701,84.895,188.93
				c0,95.895-37.227,171.042-111.651,225.46c-74.434,53.913-180.55,80.856-318.348,80.856c-59.058,0-130.425-9.852-214.081-29.546
				V983.108c81.208,19.703,153.175,29.545,215.929,29.545c171.629,0,257.442-50.797,257.442-152.384
				c0-91.744-74.134-137.611-222.383-137.611c-63.983,0-123.041,9.596-177.163,28.758l-61.825-78.522l66.44-417.499h503.814v140.718
				H964.956L929.896,599.813z"/>
		</g>
	</g>
</g>
</svg>
