<?xml version="1.0" encoding="utf-8"?>
<!-- Generator: Adobe Illustrator 16.0.2, SVG Export Plug-In . SVG Version: 6.00 Build 0)  -->
<!DOCTYPE svg PUBLIC "-//W3C//DTD SVG 1.1//EN" "http://www.w3.org/Graphics/SVG/1.1/DTD/svg11.dtd">
<svg version="1.1" id="Layer_1" xmlns="http://www.w3.org/2000/svg" xmlns:xlink="http://www.w3.org/1999/xlink" x="0px" y="0px"
	 width="1417.32px" height="1417.32px" viewBox="0 0 1417.32 1417.32" enable-background="new 0 0 1417.32 1417.32"
	 xml:space="preserve">
<g>
	<g>
		<linearGradient id="SVGID_1_" gradientUnits="userSpaceOnUse" x1="227.1616" y1="226.2866" x2="1172.2102" y2="1171.3352">
			<stop  offset="0" style="stop-color:#1BA9C9"/>
			<stop  offset="0.3053" style="stop-color:#1BA7C8"/>
			<stop  offset="0.5042" style="stop-color:#1BA2C6"/>
			<stop  offset="0.6726" style="stop-color:#1C98C1"/>
			<stop  offset="0.824" style="stop-color:#1C8ABB"/>
			<stop  offset="0.9628" style="stop-color:#1D78B4"/>
			<stop  offset="1" style="stop-color:#1D72B1"/>
		</linearGradient>
		<path fill="url(#SVGID_1_)" d="M1414.32,1388.976c0,15.591-12.756,28.347-28.347,28.347H33.099
			c-15.591,0-28.347-12.756-28.347-28.347V28.347C4.752,12.756,17.508,0,33.099,0h1352.875c15.591,0,28.347,12.756,28.347,28.347
			V1388.976z"/>
	</g>
	<g>
		<g>
			<path fill="#FFFFFF" stroke="#FFFFFF" d="M401.696,612.001c174.366,22.815,261.549,107.559,261.549,254.234
				c0,37.317-9.495,74.635-28.448,111.951c-18.974,37.317-46.206,69.2-81.679,95.63c-74.032,55.472-171.921,83.193-293.663,83.193
				c-93.006,0-180.487-12.188-262.463-36.547V971.974c99.117,25.916,183.229,38.865,252.367,38.865
				c160.902,0,241.358-54.674,241.358-164.041c0-82.918-75.254-124.396-225.757-124.396c-25.09,0-52.625,2.337-82.593,7.002V625.221
				l211.071-238.68H13.512V248.925h596.503v135.279L401.696,612.001z"/>
		</g>
		<g>
			<path fill="#FFFFFF" stroke="#FFFFFF" d="M1277.167,388.741c-35.493-3.116-69.745-4.665-102.783-4.665
				c-33.039,0-69.148,6.736-108.289,20.207C948.01,444.716,870.624,536.199,833.919,678.731
				c42.815-36.272,81.36-61.034,115.631-74.249c34.251-13.215,71.881-19.822,112.868-19.822c87.492,0,159.83,24.624,217.045,73.855
				c57.194,49.249,85.801,120.256,85.801,213.027c0,92.788-33.813,165.599-101.402,218.468
				c-67.607,52.869-147.606,79.299-239.986,79.299c-116.247,0-203.262-33.156-261.082-99.516
				c-57.81-66.34-86.725-171.042-86.725-314.098c0-142.525,43.134-259.929,129.403-352.182
				c96.652-103.667,235.227-155.5,415.714-155.5h24.782l31.2,1.558V388.741z M1018.37,1030.928
				c120.52,0,180.785-51.046,180.785-153.163c0-84.999-36.1-135.788-108.289-152.385c-22.635-5.178-46.801-7.505-72.496-7.001
				c-55.674,0-97.894,11.794-126.642,35.374c-28.766,23.598-43.134,62.858-43.134,117.789
				c-0.616,85.008,32.126,135.549,98.203,151.604C967.585,1028.334,991.442,1030.928,1018.37,1030.928z"/>
		</g>
	</g>
</g>
</svg>
