<?xml version="1.0" encoding="utf-8"?>
<!-- Generator: Adobe Illustrator 16.0.2, SVG Export Plug-In . SVG Version: 6.00 Build 0)  -->
<!DOCTYPE svg PUBLIC "-//W3C//DTD SVG 1.1//EN" "http://www.w3.org/Graphics/SVG/1.1/DTD/svg11.dtd">
<svg version="1.1" id="Layer_1" xmlns="http://www.w3.org/2000/svg" xmlns:xlink="http://www.w3.org/1999/xlink" x="0px" y="0px"
	 width="1417.32px" height="1417.32px" viewBox="0 0 1417.32 1417.32" enable-background="new 0 0 1417.32 1417.32"
	 xml:space="preserve">
<g>
	<g>
		<linearGradient id="SVGID_1_" gradientUnits="userSpaceOnUse" x1="224.9468" y1="224.9478" x2="1172.6178" y2="1172.6188">
			<stop  offset="0" style="stop-color:#1BA9C9"/>
			<stop  offset="0.3053" style="stop-color:#1BA7C8"/>
			<stop  offset="0.5042" style="stop-color:#1BA2C6"/>
			<stop  offset="0.6726" style="stop-color:#1C98C1"/>
			<stop  offset="0.824" style="stop-color:#1C8ABB"/>
			<stop  offset="0.9628" style="stop-color:#1D78B4"/>
			<stop  offset="1" style="stop-color:#1D72B1"/>
		</linearGradient>
		<path fill="url(#SVGID_1_)" d="M1417.32,1388.976c0,15.591-12.756,28.347-28.347,28.347H28.347
			c-15.591,0-28.347-12.756-28.347-28.347V28.347C0,12.756,12.756,0,28.347,0h1360.627c15.591,0,28.347,12.756,28.347,28.347
			V1388.976z"/>
	</g>
	<g>
		<path fill="#FFFFFF" stroke="#FFFFFF" d="M434.935,612.001c175.325,22.815,262.987,107.559,262.987,254.234
			c0,37.317-9.546,74.635-28.604,111.951c-19.078,37.317-46.459,69.2-82.127,95.63c-74.439,55.472-172.867,83.193-295.279,83.193
			c-93.517,0-181.479-12.188-263.906-36.547V971.974c99.662,25.916,184.237,38.865,253.755,38.865
			c161.787,0,242.685-54.674,242.685-164.041c0-82.918-75.668-124.396-226.999-124.396c-25.228,0-52.913,2.337-83.046,7.002V625.221
			l212.232-238.68H44.616V248.925h599.784v135.279L434.935,612.001z"/>
	</g>
	<g>
		<path fill="#FFFFFF" stroke="#FFFFFF" d="M1385.809,380.704l-363.568,767.362H845.996l346.953-752.589H769.414V257.865h616.395
			V380.704z"/>
	</g>
</g>
</svg>
