<?xml version="1.0" encoding="utf-8"?>
<!-- Generator: Adobe Illustrator 16.0.2, SVG Export Plug-In . SVG Version: 6.00 Build 0)  -->
<!DOCTYPE svg PUBLIC "-//W3C//DTD SVG 1.1//EN" "http://www.w3.org/Graphics/SVG/1.1/DTD/svg11.dtd">
<svg version="1.1" id="Layer_1" xmlns="http://www.w3.org/2000/svg" xmlns:xlink="http://www.w3.org/1999/xlink" x="0px" y="0px"
	 width="1417.32px" height="1417.32px" viewBox="0 0 1417.32 1417.32" enable-background="new 0 0 1417.32 1417.32"
	 xml:space="preserve">
<g>
	<g>
		<linearGradient id="SVGID_1_" gradientUnits="userSpaceOnUse" x1="224.9473" y1="224.9482" x2="1172.6169" y2="1172.6179">
			<stop  offset="0" style="stop-color:#1BA9C9"/>
			<stop  offset="0.3053" style="stop-color:#1BA7C8"/>
			<stop  offset="0.5042" style="stop-color:#1BA2C6"/>
			<stop  offset="0.6726" style="stop-color:#1C98C1"/>
			<stop  offset="0.824" style="stop-color:#1C8ABB"/>
			<stop  offset="0.9628" style="stop-color:#1D78B4"/>
			<stop  offset="1" style="stop-color:#1D72B1"/>
		</linearGradient>
		<path fill="url(#SVGID_1_)" d="M1417.318,1388.976c0,15.591-12.756,28.347-28.347,28.347H28.349
			c-15.591,0-28.347-12.756-28.347-28.347V28.347C0.002,12.756,12.758,0,28.349,0h1360.623c15.591,0,28.347,12.756,28.347,28.347
			V1388.976z"/>
	</g>
	<g>
		<g>
			<path fill="#FFFFFF" stroke="#FFFFFF" d="M414.476,612.001C589.8,634.816,677.458,719.561,677.458,866.235
				c0,37.317-9.547,74.635-28.605,111.951c-19.078,37.317-46.454,69.2-82.123,95.63c-74.444,55.472-172.872,83.193-295.278,83.193
				c-93.518,0-181.479-12.188-263.907-36.547V971.974c99.657,25.916,184.232,38.865,253.755,38.865
				c161.782,0,242.681-54.674,242.681-164.041c0-82.918-75.668-124.396-226.995-124.396c-25.232,0-52.913,2.337-83.046,7.002
				V625.221l212.232-238.68H24.151V248.925H623.94v135.279L414.476,612.001z"/>
		</g>
		<g>
			<path fill="#FFFFFF" stroke="#FFFFFF" d="M1399.254,842.197c6.135,22.288,9.063,50.147,8.763,83.579
				c-0.319,33.431-7.543,64.406-21.681,92.907c-14.768,29.033-33.541,52.869-56.29,71.527
				c-38.756,32.14-96.136,55.856-172.099,71.134c-75.982,15.286-155.941,11.785-239.917-10.493
				c-83.966-22.278-145.032-65.039-183.158-128.282c-19.083-31.607-28.615-64.013-28.615-97.188
				c0-60.117,12.918-109.485,38.755-148.104c25.838-38.609,70.128-72.423,132.883-101.456
				c-47.987-29.023-80.738-60.123-98.273-93.302c-17.534-33.161-26.296-68.668-26.296-106.507c0-37.831,7.982-70.877,23.988-99.13
				c15.986-28.245,37.826-52.09,65.512-71.528s59.978-34.073,96.895-43.924c36.907-9.842,76.263-14.773,118.105-14.773
				c86.743,0,159.02,20.217,216.858,60.64c57.809,40.433,86.733,95.896,86.733,166.378c0,39.397-8.763,75.683-26.297,108.844
				c-17.534,33.179-50.285,64.278-98.283,93.302C1327.278,718.323,1381.4,773.777,1399.254,842.197z M1226.688,962.699
				c9.841-17.614,14.767-38.866,14.767-63.747c0-43.54-19.373-78.776-58.129-105.737c-21.541-14.508-63.374-31.608-125.499-51.312
				c-63.363,20.739-104.587,37.583-123.65,50.532c-40.594,26.961-60.896,63.114-60.896,108.459
				c0,45.364,17.535,80.078,52.594,104.181c35.069,24.102,79.04,36.153,131.953,36.153
				C1141.482,1041.75,1197.772,1015.568,1226.688,962.699z M1157.488,580.967c19.053-14.502,32.751-29.408,41.054-44.704
				c8.313-15.281,12.459-33.431,12.459-54.422c0-20.991-4.307-38.737-12.919-53.253c-8.622-14.507-19.992-26.439-34.14-35.769
				c-14.157-9.329-30.453-16.193-48.906-20.601c-18.454-4.399-37.527-6.608-57.21-6.608c-43.062,0-79.669,9.714-109.803,29.152
				c-30.153,19.438-45.22,48.085-45.22,85.916c0,55.976,32.301,96.926,96.894,122.838c18.454,7.263,37.827,13.737,58.129,19.438
				C1105.194,609.481,1138.405,595.488,1157.488,580.967z"/>
		</g>
	</g>
</g>
</svg>
