<?xml version="1.0" encoding="utf-8"?>
<!-- Generator: Adobe Illustrator 16.0.2, SVG Export Plug-In . SVG Version: 6.00 Build 0)  -->
<!DOCTYPE svg PUBLIC "-//W3C//DTD SVG 1.1//EN" "http://www.w3.org/Graphics/SVG/1.1/DTD/svg11.dtd">
<svg version="1.1" id="Layer_1" xmlns="http://www.w3.org/2000/svg" xmlns:xlink="http://www.w3.org/1999/xlink" x="0px" y="0px"
	 width="1417.32px" height="1417.32px" viewBox="0 0 1417.32 1417.32" enable-background="new 0 0 1417.32 1417.32"
	 xml:space="preserve">
<g>
	<g>
		<linearGradient id="SVGID_1_" gradientUnits="userSpaceOnUse" x1="224.9473" y1="224.9482" x2="1172.6169" y2="1172.6179">
			<stop  offset="0" style="stop-color:#1BA9C9"/>
			<stop  offset="0.3053" style="stop-color:#1BA7C8"/>
			<stop  offset="0.5042" style="stop-color:#1BA2C6"/>
			<stop  offset="0.6726" style="stop-color:#1C98C1"/>
			<stop  offset="0.824" style="stop-color:#1C8ABB"/>
			<stop  offset="0.9628" style="stop-color:#1D78B4"/>
			<stop  offset="1" style="stop-color:#1D72B1"/>
		</linearGradient>
		<path fill="url(#SVGID_1_)" d="M1417.318,1388.976c0,15.591-12.756,28.347-28.347,28.347H28.349
			c-15.591,0-28.347-12.756-28.347-28.347V28.347C0.002,12.756,12.758,0,28.349,0h1360.623c15.591,0,28.347,12.756,28.347,28.347
			V1388.976z"/>
	</g>
	<g>
		<g>
			<path fill="#FFFFFF" stroke="#FFFFFF" d="M424.707,612.001c175.325,22.815,262.982,107.559,262.982,254.234
				c0,37.317-9.546,74.635-28.604,111.951c-19.078,37.317-46.454,69.2-82.122,95.63c-74.444,55.472-172.873,83.193-295.279,83.193
				c-93.517,0-181.479-12.188-263.906-36.547V971.974c99.657,25.916,184.232,38.865,253.755,38.865
				c161.782,0,242.68-54.674,242.68-164.041c0-82.918-75.668-124.396-226.994-124.396c-25.232,0-52.913,2.337-83.046,7.002V625.221
				l212.232-238.68H34.382V248.925h599.789v135.279L424.707,612.001z"/>
		</g>
		<g>
			<path fill="#FFFFFF" stroke="#FFFFFF" d="M1070.4,240.549c230.686,0,346.033,125.175,346.033,375.521
				c0,250.348-99.661,414.389-298.975,492.139c-68.899,26.952-151.326,40.424-247.292,40.424h-23.998l-30.443-1.549v-138.391
				c29.523,2.594,55.971,3.886,79.35,3.886c196.227,0,318.028-92.522,365.407-277.559c-43.682,36.813-82.438,61.813-116.268,75.027
				s-71.367,19.823-112.57,19.823c-89.201,0-162.257-25.267-219.156-75.799c-56.899-50.543-85.354-122.066-85.354-214.589
				c0-92.518,33.681-165.466,101.041-218.857C895.535,267.254,976.283,240.549,1070.4,240.549z M1066.714,696.927
				c115.638,0,173.477-52.603,173.477-157.828c0-84.994-33.841-135.536-101.511-151.61c-21.541-5.168-45.529-7.771-71.966-7.771
				c-119.964,0-179.941,52.869-179.941,158.602C886.772,644.059,946.75,696.927,1066.714,696.927z"/>
		</g>
	</g>
</g>
</svg>
