<?xml version="1.0" encoding="utf-8"?>
<!-- Generator: Adobe Illustrator 16.0.2, SVG Export Plug-In . SVG Version: 6.00 Build 0)  -->
<!DOCTYPE svg PUBLIC "-//W3C//DTD SVG 1.1//EN" "http://www.w3.org/Graphics/SVG/1.1/DTD/svg11.dtd">
<svg version="1.1" id="Layer_1" xmlns="http://www.w3.org/2000/svg" xmlns:xlink="http://www.w3.org/1999/xlink" x="0px" y="0px"
	 width="1417.32px" height="1417.32px" viewBox="0 0 1417.32 1417.32" enable-background="new 0 0 1417.32 1417.32"
	 xml:space="preserve">
<g>
	<g>
		<linearGradient id="SVGID_1_" gradientUnits="userSpaceOnUse" x1="225.4746" y1="227.1724" x2="1168.7875" y2="1170.4852">
			<stop  offset="0" style="stop-color:#1BA9C9"/>
			<stop  offset="0.3053" style="stop-color:#1BA7C8"/>
			<stop  offset="0.5042" style="stop-color:#1BA2C6"/>
			<stop  offset="0.6726" style="stop-color:#1C98C1"/>
			<stop  offset="0.824" style="stop-color:#1C8ABB"/>
			<stop  offset="0.9628" style="stop-color:#1D78B4"/>
			<stop  offset="1" style="stop-color:#1D72B1"/>
		</linearGradient>
		<path fill="url(#SVGID_1_)" d="M1409.183,1388.976c0,15.591-12.756,28.347-28.347,28.347H33.091
			c-15.591,0-28.347-12.756-28.347-28.347V28.347C4.745,12.756,17.5,0,33.091,0h1347.745c15.591,0,28.347,12.756,28.347,28.347
			V1388.976z"/>
	</g>
	<g>
		<path fill="#FFFFFF" stroke="#FFFFFF" d="M708.542,969.637H607.582v177.265H444.419V969.637H0V842.903l412.867-583.874h194.715
			v567.553h100.961V969.637z M444.419,826.582V426.965L178.488,826.582H444.419z"/>
		<g>
			<path fill="#FFFFFF" stroke="#FFFFFF" d="M1419.32,700.254c0,139.158-31.726,250.99-95.167,335.476
				c-63.451,84.485-156.505,126.724-279.189,126.724c-122.681,0-215.001-42.375-276.933-127.117
				c-61.946-84.743-92.919-196.31-92.919-334.697c0-214.582,69.154-355.557,207.476-422.942
				c46.913-22.801,102.528-34.21,166.886-34.21c64.347,0,119.823,11.41,166.435,34.21c46.596,22.81,84.935,54.427,115.007,94.851
				C1389.852,451.846,1419.32,561.085,1419.32,700.254z M1192.449,947.486c33.973-54.684,50.972-136.961,50.972-246.848
				c0-109.88-17.143-190.865-51.417-242.955c-34.28-52.09-82.698-78.135-145.238-78.135c-62.551,0-112.013,26.045-148.387,78.135
				c-36.394,52.09-54.575,132.818-54.575,242.176c0,109.365,18.489,191.642,55.477,246.847c36.987,55.197,86.599,82.8,148.842,82.8
				C1110.36,1029.507,1158.471,1002.17,1192.449,947.486z"/>
		</g>
	</g>
</g>
</svg>
