<?xml version="1.0" encoding="utf-8"?>
<!-- Generator: Adobe Illustrator 16.0.2, SVG Export Plug-In . SVG Version: 6.00 Build 0)  -->
<!DOCTYPE svg PUBLIC "-//W3C//DTD SVG 1.1//EN" "http://www.w3.org/Graphics/SVG/1.1/DTD/svg11.dtd">
<svg version="1.1" id="Layer_1" xmlns="http://www.w3.org/2000/svg" xmlns:xlink="http://www.w3.org/1999/xlink" x="0px" y="0px"
	 width="1417.32px" height="1417.32px" viewBox="0 0 1417.32 1417.32" enable-background="new 0 0 1417.32 1417.32"
	 xml:space="preserve">
<g>
	<g>
		<linearGradient id="SVGID_1_" gradientUnits="userSpaceOnUse" x1="224.9468" y1="224.9478" x2="1172.6178" y2="1172.6188">
			<stop  offset="0" style="stop-color:#1BA9C9"/>
			<stop  offset="0.3053" style="stop-color:#1BA7C8"/>
			<stop  offset="0.5042" style="stop-color:#1BA2C6"/>
			<stop  offset="0.6726" style="stop-color:#1C98C1"/>
			<stop  offset="0.824" style="stop-color:#1C8ABB"/>
			<stop  offset="0.9628" style="stop-color:#1D78B4"/>
			<stop  offset="1" style="stop-color:#1D72B1"/>
		</linearGradient>
		<path fill="url(#SVGID_1_)" d="M1417.32,1388.976c0,15.591-12.756,28.347-28.347,28.347H28.347
			c-15.591,0-28.347-12.756-28.347-28.347V28.347C0,12.756,12.756,0,28.347,0h1360.627c15.591,0,28.347,12.756,28.347,28.347
			V1388.976z"/>
	</g>
	<g>
		<path fill="#FFFFFF" stroke="#FFFFFF" d="M751.18,969.637H647.832v177.265H480.814V969.637H25.899V842.903l422.619-583.874
			h199.313v567.553H751.18V969.637z M480.814,826.582V426.965L208.603,826.582H480.814z"/>
		<g>
			<path fill="#FFFFFF" stroke="#FFFFFF" d="M1240.047,1148.854h-155.022V403.252l-203.93,4.458V257.086h203.93h155.022V1148.854z"
				/>
		</g>
	</g>
</g>
</svg>
