<?xml version="1.0" encoding="utf-8"?>
<!-- Generator: Adobe Illustrator 16.0.2, SVG Export Plug-In . SVG Version: 6.00 Build 0)  -->
<!DOCTYPE svg PUBLIC "-//W3C//DTD SVG 1.1//EN" "http://www.w3.org/Graphics/SVG/1.1/DTD/svg11.dtd">
<svg version="1.1" id="Layer_1" xmlns="http://www.w3.org/2000/svg" xmlns:xlink="http://www.w3.org/1999/xlink" x="0px" y="0px"
	 width="1417.32px" height="1417.32px" viewBox="0 0 1417.32 1417.32" enable-background="new 0 0 1417.32 1417.32"
	 xml:space="preserve">
<g>
	<g>
		<linearGradient id="SVGID_1_" gradientUnits="userSpaceOnUse" x1="224.9468" y1="224.9478" x2="1172.6178" y2="1172.6188">
			<stop  offset="0" style="stop-color:#1BA9C9"/>
			<stop  offset="0.3053" style="stop-color:#1BA7C8"/>
			<stop  offset="0.5042" style="stop-color:#1BA2C6"/>
			<stop  offset="0.6726" style="stop-color:#1C98C1"/>
			<stop  offset="0.824" style="stop-color:#1C8ABB"/>
			<stop  offset="0.9628" style="stop-color:#1D78B4"/>
			<stop  offset="1" style="stop-color:#1D72B1"/>
		</linearGradient>
		<path fill="url(#SVGID_1_)" d="M1417.32,1388.976c0,15.591-12.756,28.347-28.347,28.347H28.347
			c-15.591,0-28.347-12.756-28.347-28.347V28.347C0,12.756,12.756,0,28.347,0h1360.627c15.591,0,28.347,12.756,28.347,28.347
			V1388.976z"/>
	</g>
	<g>
		<path fill="#FFFFFF" stroke="#FFFFFF" d="M725.603,969.637H622.254v177.265H455.237V969.637H0.325V842.903L422.94,259.029h199.313
			v567.553h103.349V969.637z M455.237,826.582V426.965L183.023,826.582H455.237z"/>
		<g>
			<path fill="#FFFFFF" stroke="#FFFFFF" d="M1317.724,383.045c-35.688-3.116-70.128-4.665-103.349-4.665
				s-69.528,6.736-108.884,20.208c-118.734,40.433-196.546,131.916-233.453,274.448c43.052-36.272,81.808-61.035,116.267-74.25
				c34.439-13.215,72.276-19.822,113.49-19.822c87.972,0,160.707,24.625,218.236,73.855c57.51,49.249,86.273,120.261,86.273,213.031
				c0,92.789-34,165.599-101.959,218.468c-67.98,52.869-148.419,79.299-241.307,79.299c-116.887,0-204.379-33.156-262.518-99.515
				c-58.129-66.341-87.203-171.043-87.203-314.098c0-142.53,43.372-259.935,130.115-352.187c97.184-103.667,236.521-155.5,418-155.5
				h24.918l31.372,1.558V383.045z M1057.504,1025.236c121.183,0,181.779-51.045,181.779-153.163
				c0-84.999-36.298-135.787-108.884-152.384c-22.76-5.181-47.059-7.508-72.896-7.004c-55.98,0-98.433,11.797-127.337,35.376
				c-28.925,23.599-43.372,62.858-43.372,117.789c-0.619,85.008,32.302,135.55,98.742,151.605
				C1006.439,1022.643,1030.428,1025.236,1057.504,1025.236z"/>
		</g>
	</g>
</g>
</svg>
