<?xml version="1.0" encoding="utf-8"?>
<!-- Generator: Adobe Illustrator 16.0.2, SVG Export Plug-In . SVG Version: 6.00 Build 0)  -->
<!DOCTYPE svg PUBLIC "-//W3C//DTD SVG 1.1//EN" "http://www.w3.org/Graphics/SVG/1.1/DTD/svg11.dtd">
<svg version="1.1" id="Layer_1" xmlns="http://www.w3.org/2000/svg" xmlns:xlink="http://www.w3.org/1999/xlink" x="0px" y="0px"
	 width="1417.32px" height="1417.32px" viewBox="0 0 1417.32 1417.32" enable-background="new 0 0 1417.32 1417.32"
	 xml:space="preserve">
<g>
	<g>
		<linearGradient id="SVGID_1_" gradientUnits="userSpaceOnUse" x1="228.146" y1="225.769" x2="1174.208" y2="1171.8311">
			<stop  offset="0" style="stop-color:#1BA9C9"/>
			<stop  offset="0.3053" style="stop-color:#1BA7C8"/>
			<stop  offset="0.5042" style="stop-color:#1BA2C6"/>
			<stop  offset="0.6726" style="stop-color:#1C98C1"/>
			<stop  offset="0.824" style="stop-color:#1C8ABB"/>
			<stop  offset="0.9628" style="stop-color:#1D78B4"/>
			<stop  offset="1" style="stop-color:#1D72B1"/>
		</linearGradient>
		<path fill="url(#SVGID_1_)" d="M1417.32,1388.976c0,15.591-12.756,28.347-28.347,28.347H33.103
			c-15.591,0-28.347-12.756-28.347-28.347V28.347C4.756,12.756,17.512,0,33.103,0h1355.871c15.591,0,28.347,12.756,28.347,28.347
			V1388.976z"/>
	</g>
	<g>
		<path fill="#FFFFFF" stroke="#FFFFFF" d="M718.756,969.637H616.147v177.265h-165.82V969.637H-1.324V842.903l419.587-583.874
			h197.885v567.553h102.608V969.637z M450.328,826.582V426.965L180.064,826.582H450.328z"/>
		<g>
			<path fill="#FFFFFF" stroke="#FFFFFF" d="M1408.601,843.856c6.091,22.287,8.997,50.147,8.699,83.578
				c-0.317,33.432-7.489,64.407-21.525,92.908c-14.661,29.032-33.3,52.869-55.887,71.527
				c-38.478,32.14-95.446,55.856-170.864,71.134c-75.438,15.285-154.824,11.785-238.198-10.494
				c-83.363-22.278-143.992-65.039-181.845-128.281c-18.946-31.607-28.41-64.013-28.41-97.188
				c0-60.118,12.826-109.486,38.479-148.104c25.651-38.609,69.625-72.423,131.93-101.456c-47.644-29.023-80.16-60.122-97.568-93.302
				c-17.409-33.161-26.108-68.668-26.108-106.507c0-37.831,7.926-70.877,23.816-99.13c15.872-28.245,37.556-52.09,65.043-71.527
				s59.547-34.073,96.199-43.925c36.644-9.842,75.716-14.773,117.259-14.773c86.122,0,157.88,20.217,215.305,60.641
				c57.395,40.433,86.111,95.895,86.111,166.378c0,39.397-8.699,75.683-26.108,108.844c-17.409,33.18-49.925,64.278-97.579,93.302
				C1337.14,719.982,1390.874,775.436,1408.601,843.856z M1237.27,964.357c9.771-17.613,14.661-38.865,14.661-63.746
				c0-43.54-19.233-78.776-57.712-105.738c-21.387-14.507-62.919-31.607-124.6-51.311c-62.909,20.738-103.837,37.582-122.764,50.531
				c-40.303,26.962-60.46,63.115-60.46,108.46c0,45.363,17.409,80.078,52.217,104.18c34.817,24.103,78.474,36.153,131.007,36.153
				C1152.676,1043.409,1208.563,1017.227,1237.27,964.357z M1168.567,582.625c18.916-14.502,32.516-29.408,40.759-44.704
				c8.254-15.281,12.37-33.431,12.37-54.422c0-20.991-4.275-38.737-12.826-53.253c-8.561-14.507-19.849-26.439-33.895-35.769
				c-14.057-9.329-30.235-16.193-48.557-20.601c-18.321-4.399-37.258-6.607-56.8-6.607c-42.753,0-79.098,9.714-109.016,29.151
				c-29.937,19.438-44.896,48.085-44.896,85.916c0,55.976,32.07,96.926,96.2,122.838c18.321,7.263,37.555,13.737,57.711,19.438
				C1116.648,611.14,1149.621,597.146,1168.567,582.625z"/>
		</g>
	</g>
</g>
</svg>
