<?xml version="1.0" encoding="utf-8"?>
<!-- Generator: Adobe Illustrator 16.0.2, SVG Export Plug-In . SVG Version: 6.00 Build 0)  -->
<!DOCTYPE svg PUBLIC "-//W3C//DTD SVG 1.1//EN" "http://www.w3.org/Graphics/SVG/1.1/DTD/svg11.dtd">
<svg version="1.1" id="Layer_1" xmlns="http://www.w3.org/2000/svg" xmlns:xlink="http://www.w3.org/1999/xlink" x="0px" y="0px"
	 width="1417.32px" height="1417.32px" viewBox="0 0 1417.32 1417.32" enable-background="new 0 0 1417.32 1417.32"
	 xml:space="preserve">
<g>
	<g>
		<linearGradient id="SVGID_1_" gradientUnits="userSpaceOnUse" x1="224.9468" y1="224.9478" x2="1172.6178" y2="1172.6188">
			<stop  offset="0" style="stop-color:#1BA9C9"/>
			<stop  offset="0.3053" style="stop-color:#1BA7C8"/>
			<stop  offset="0.5042" style="stop-color:#1BA2C6"/>
			<stop  offset="0.6726" style="stop-color:#1C98C1"/>
			<stop  offset="0.824" style="stop-color:#1C8ABB"/>
			<stop  offset="0.9628" style="stop-color:#1D78B4"/>
			<stop  offset="1" style="stop-color:#1D72B1"/>
		</linearGradient>
		<path fill="url(#SVGID_1_)" d="M1417.32,1388.976c0,15.591-12.756,28.347-28.347,28.347H28.347
			c-15.591,0-28.347-12.756-28.347-28.347V28.347C0,12.756,12.756,0,28.347,0h1360.627c15.591,0,28.347,12.756,28.347,28.347
			V1388.976z"/>
	</g>
	<g>
		<path fill="#FFFFFF" stroke="#FFFFFF" d="M730.713,969.637H627.37v177.265H460.353V969.637H5.435V842.903l422.621-583.874H627.37
			v567.553h103.343V969.637z M460.353,826.582V426.965L188.144,826.582H460.353z"/>
		<g>
			<path fill="#FFFFFF" stroke="#FFFFFF" d="M1067.5,256.285c230.686,0,346.033,125.175,346.033,375.521
				c0,250.349-99.661,414.39-298.975,492.14c-68.899,26.952-151.326,40.424-247.291,40.424h-23.999l-30.443-1.549V1024.43
				c29.524,2.594,55.971,3.886,79.35,3.886c196.227,0,318.028-92.522,365.407-277.56c-43.682,36.813-82.438,61.813-116.268,75.028
				s-71.367,19.822-112.57,19.822c-89.201,0-162.256-25.266-219.156-75.798c-56.899-50.541-85.354-122.066-85.354-214.589
				c0-92.519,33.681-165.466,101.041-218.857C892.635,282.989,973.383,256.285,1067.5,256.285z M1063.813,712.662
				c115.638,0,173.477-52.603,173.477-157.827c0-84.995-33.841-135.536-101.511-151.61c-21.541-5.169-45.529-7.771-71.966-7.771
				c-119.964,0-179.941,52.869-179.941,158.602C883.872,659.793,943.85,712.662,1063.813,712.662z"/>
		</g>
	</g>
</g>
</svg>
