<?xml version="1.0" encoding="utf-8"?>
<!-- Generator: Adobe Illustrator 16.0.2, SVG Export Plug-In . SVG Version: 6.00 Build 0)  -->
<!DOCTYPE svg PUBLIC "-//W3C//DTD SVG 1.1//EN" "http://www.w3.org/Graphics/SVG/1.1/DTD/svg11.dtd">
<svg version="1.1" id="Layer_1" xmlns="http://www.w3.org/2000/svg" xmlns:xlink="http://www.w3.org/1999/xlink" x="0px" y="0px"
	 width="1417.32px" height="1417.32px" viewBox="0 0 1417.32 1417.32" enable-background="new 0 0 1417.32 1417.32"
	 xml:space="preserve">
<g>
	<g>
		<linearGradient id="SVGID_1_" gradientUnits="userSpaceOnUse" x1="227.7056" y1="225.6543" x2="1173.9885" y2="1171.9373">
			<stop  offset="0" style="stop-color:#1BA9C9"/>
			<stop  offset="0.3053" style="stop-color:#1BA7C8"/>
			<stop  offset="0.5042" style="stop-color:#1BA2C6"/>
			<stop  offset="0.6726" style="stop-color:#1C98C1"/>
			<stop  offset="0.824" style="stop-color:#1C8ABB"/>
			<stop  offset="0.9628" style="stop-color:#1D78B4"/>
			<stop  offset="1" style="stop-color:#1D72B1"/>
		</linearGradient>
		<path fill="url(#SVGID_1_)" d="M1417.32,1388.972c0,15.591-12.756,28.347-28.347,28.347H32.447
			c-15.591,0-28.347-12.756-28.347-28.347V28.347C4.101,12.756,16.856,0,32.447,0h1356.526c15.591,0,28.347,12.756,28.347,28.347
			V1388.972z"/>
	</g>
	<g>
		<g>
			<path fill="#FFFFFF" stroke="#FFFFFF" d="M1417.385,700.254c0,139.163-32.359,250.995-97.07,335.48
				c-64.725,84.486-159.639,126.725-284.775,126.725s-219.303-42.376-282.478-127.118c-63.183-84.742-94.774-196.309-94.774-334.702
				c0-214.582,70.535-355.557,211.627-422.942c47.853-22.801,104.579-34.21,170.223-34.21c65.635,0,122.223,11.41,169.766,34.21
				c47.532,22.81,86.635,54.427,117.311,94.851C1387.329,451.847,1417.385,561.085,1417.385,700.254z M1185.976,947.491
				c34.652-54.683,51.991-136.96,51.991-246.852c0-109.88-17.483-190.865-52.448-242.955c-34.964-52.09-84.35-78.135-148.142-78.135
				c-63.8,0-114.251,26.045-151.358,78.135c-37.12,52.09-55.666,132.818-55.666,242.176c0,109.369,18.86,191.646,56.588,246.853
				c37.725,55.196,88.33,82.799,151.821,82.799C1102.245,1029.512,1151.316,1002.175,1185.976,947.491z"/>
		</g>
		<g>
			<path fill="#FFFFFF" stroke="#FFFFFF" d="M188.129,594.127c49.067-8.284,95.234-12.445,138.472-12.445
				c43.248,0,86.178,7.13,128.818,21.38c42.63,14.259,78.058,33.569,106.272,57.927c56.429,48.718,84.653,111.693,84.653,188.92
				c0,95.896-37.121,171.043-111.333,225.46c-74.222,53.914-180.036,80.857-317.442,80.857c-58.89,0-130.053-9.852-213.466-29.537
				V977.413c80.972,19.703,152.733,29.546,215.309,29.546c171.139,0,256.709-50.789,256.709-152.385
				c0-91.743-73.923-137.611-221.75-137.611c-63.801,0-122.69,9.596-176.658,28.768l-61.649-78.527l66.252-417.499h502.379v140.718
				H223.088L188.129,594.127z"/>
		</g>
	</g>
</g>
</svg>
