<?xml version="1.0" encoding="utf-8"?>
<!-- Generator: Adobe Illustrator 16.0.2, SVG Export Plug-In . SVG Version: 6.00 Build 0)  -->
<!DOCTYPE svg PUBLIC "-//W3C//DTD SVG 1.1//EN" "http://www.w3.org/Graphics/SVG/1.1/DTD/svg11.dtd">
<svg version="1.1" id="Layer_1" xmlns="http://www.w3.org/2000/svg" xmlns:xlink="http://www.w3.org/1999/xlink" x="0px" y="0px"
	 width="1417.32px" height="1417.32px" viewBox="0 0 1417.32 1417.32" enable-background="new 0 0 1417.32 1417.32"
	 xml:space="preserve">
<g>
	<g>
		<linearGradient id="SVGID_1_" gradientUnits="userSpaceOnUse" x1="224.9473" y1="224.9473" x2="1172.6178" y2="1172.6178">
			<stop  offset="0" style="stop-color:#1BA9C9"/>
			<stop  offset="0.3053" style="stop-color:#1BA7C8"/>
			<stop  offset="0.5042" style="stop-color:#1BA2C6"/>
			<stop  offset="0.6726" style="stop-color:#1C98C1"/>
			<stop  offset="0.824" style="stop-color:#1C8ABB"/>
			<stop  offset="0.9628" style="stop-color:#1D78B4"/>
			<stop  offset="1" style="stop-color:#1D72B1"/>
		</linearGradient>
		<path fill="url(#SVGID_1_)" d="M1417.32,1388.974c0,15.591-12.756,28.347-28.347,28.347H28.347
			C12.756,1417.32,0,1404.564,0,1388.974V28.347C0,12.756,12.756,0,28.347,0h1360.627c15.591,0,28.347,12.756,28.347,28.347
			V1388.974z"/>
	</g>
	<g>
		<path fill="#FFFFFF" stroke="#FFFFFF" d="M966.569,388.737c-35.688-3.111-70.128-4.665-103.349-4.665s-69.519,6.74-108.884,20.212
			C635.603,444.713,557.791,536.2,520.884,678.733c43.052-36.277,81.808-61.035,116.267-74.25
			c34.439-13.215,72.276-19.827,113.5-19.827c87.962,0,160.698,24.625,218.227,73.86c57.51,49.249,86.273,120.254,86.273,213.024
			c0,92.787-33.999,165.598-101.959,218.466c-67.98,52.869-148.419,79.309-241.297,79.309c-116.886,0-204.389-33.166-262.527-99.516
			c-58.128-66.341-87.193-171.043-87.193-314.101c0-142.528,43.362-259.932,130.105-352.189c97.194-103.662,236.521-155.5,418-155.5
			h24.918l31.372,1.558V388.737z M706.36,1030.925c121.172,0,181.779-51.045,181.779-153.161
			c0-84.999-36.308-135.788-108.884-152.385c-22.77-5.178-47.058-7.505-72.895-6.996c-55.991,0-98.433,11.794-127.348,35.374
			c-28.914,23.594-43.361,62.854-43.361,117.784c-0.62,85.016,32.292,135.547,98.732,151.604
			C655.285,1028.331,679.273,1030.925,706.36,1030.925z"/>
	</g>
</g>
</svg>
