<?xml version="1.0" encoding="utf-8"?>
<!-- Generator: Adobe Illustrator 16.0.2, SVG Export Plug-In . SVG Version: 6.00 Build 0)  -->
<!DOCTYPE svg PUBLIC "-//W3C//DTD SVG 1.1//EN" "http://www.w3.org/Graphics/SVG/1.1/DTD/svg11.dtd">
<svg version="1.1" id="Layer_1" xmlns="http://www.w3.org/2000/svg" xmlns:xlink="http://www.w3.org/1999/xlink" x="0px" y="0px"
	 width="1417.32px" height="1417.32px" viewBox="0 0 1417.32 1417.32" enable-background="new 0 0 1417.32 1417.32"
	 xml:space="preserve">
<g>
	<g>
		<linearGradient id="SVGID_1_" gradientUnits="userSpaceOnUse" x1="224.9473" y1="224.9473" x2="1172.6173" y2="1172.6173">
			<stop  offset="0" style="stop-color:#1BA9C9"/>
			<stop  offset="0.352" style="stop-color:#1BA6C8"/>
			<stop  offset="0.5811" style="stop-color:#1B9EC4"/>
			<stop  offset="0.7752" style="stop-color:#1C8FBE"/>
			<stop  offset="0.9488" style="stop-color:#1D7AB4"/>
			<stop  offset="1" style="stop-color:#1D72B1"/>
		</linearGradient>
		<path fill="url(#SVGID_1_)" d="M1417.32,1388.974c0,15.591-12.756,28.347-28.347,28.347H28.347
			C12.756,1417.32,0,1404.564,0,1388.974V28.347C0,12.756,12.756,0,28.347,0h1360.627c15.591,0,28.347,12.756,28.347,28.347
			V1388.974z"/>
	</g>
	<g>
		<path fill="#FFFFFF" stroke="#FFFFFF" d="M1050.765,815.6c6.135,22.287,9.063,50.147,8.763,83.578
			c-0.32,33.432-7.544,64.407-21.682,92.908c-14.767,29.033-33.54,52.869-56.29,71.527c-38.755,32.14-96.13,55.857-172.093,71.134
			c-75.982,15.286-155.941,11.785-239.917-10.493c-83.966-22.278-145.032-65.039-183.158-128.282
			c-19.083-31.607-28.614-64.013-28.614-97.188c0-60.118,12.918-109.486,38.755-148.104
			c25.837-38.609,70.128-72.424,132.882-101.456c-47.987-29.023-80.738-60.123-98.273-93.302
			c-17.534-33.161-26.296-68.668-26.296-106.508c0-37.83,7.983-70.876,23.989-99.13c15.986-28.244,37.826-52.09,65.512-71.527
			s59.977-34.073,96.894-43.925c36.908-9.843,76.263-14.773,118.105-14.773c86.743,0,159.02,20.216,216.854,60.64
			c57.809,40.433,86.733,95.896,86.733,166.378c0,39.397-8.763,75.684-26.297,108.845c-17.535,33.18-50.286,64.279-98.278,93.302
			C978.788,691.728,1032.91,747.179,1050.765,815.6z M878.202,936.102c9.842-17.614,14.768-38.866,14.768-63.747
			c0-43.54-19.373-78.776-58.129-105.738c-21.541-14.507-63.374-31.607-125.499-51.312c-63.364,20.739-104.587,37.583-123.65,50.532
			c-40.594,26.962-60.896,63.115-60.896,108.46c0,45.363,17.535,80.078,52.593,104.181c35.069,24.102,79.04,36.153,131.953,36.153
			C792.998,1015.152,849.288,988.971,878.202,936.102z M809.004,554.368c19.053-14.502,32.751-29.408,41.054-44.704
			c8.313-15.282,12.459-33.431,12.459-54.422c0-20.991-4.307-38.737-12.919-53.254c-8.622-14.507-19.992-26.439-34.14-35.769
			c-14.157-9.329-30.453-16.193-48.906-20.601c-18.454-4.399-37.527-6.607-57.21-6.607c-43.062,0-79.669,9.714-109.803,29.152
			c-30.153,19.438-45.22,48.085-45.22,85.915c0,55.976,32.301,96.927,96.894,122.839c18.454,7.263,37.827,13.737,58.128,19.438
			C756.71,582.883,789.921,568.889,809.004,554.368z"/>
	</g>
</g>
</svg>
