<svg height="512pt" viewBox="0 -39 512 512" width="512pt" xmlns="http://www.w3.org/2000/svg"><path d="m504.550781 285.871094c-8.839843-10.546875-23.445312-14.234375-36.230469-9.144532l-80.902343 32.183594c-11.898438 4.734375-25.066407 5.230469-37.285157 1.398438l-124.214843-38.949219c-6.671875-2.09375-13.617188-3.15625-20.609375-3.15625h-62.972656v126.824219h16.402343v-.914063c34.9375 26.4375 111.773438 36.15625 151.0625 39.488281 18.535157 1.574219 37.195313-.945312 54.589844-7.535156 60.476563-22.925781 112.03125-70 138.644531-97.550781 11.339844-11.738281 11.996094-30.132813 1.515625-42.644531zm0 0" fill="#ffcebf"/><path d="m158.738281 268.203125h47.980469c7.199219 0 14.355469 1.09375 21.226562 3.25l127.972657 40.125c.078125.023437.152343.046875.230469.070313 12.671874 3.917968 20.59375 16.46875 18.269531 29.527343l-.1875 1.050781c-2.371094 13.335938-14.578125 22.621094-28.0625 21.355469l-105.855469-9.945312-45.089844-6.445313c-3.949218-.566406-7.722656-2.015625-11.035156-4.246094l-25.449219-17.140624zm0 0" fill="#ffbfab"/><path d="m512 306.355469c0 8.011719-3.007812 16.007812-8.960938 22.160156-26.617187 27.546875-78.171874 74.628906-138.652343 97.554687-17.386719 6.582032-36.058594 9.109376-54.578125 7.53125-39.300782-3.324218-116.140625-13.050781-151.070313-39.484374v-27.382813c34.929688 26.453125 111.769531 36.160156 151.070313 39.503906 18.519531 1.5625 37.191406-.949219 54.578125-7.550781 60.480469-22.925781 112.035156-69.988281 138.652343-97.535156 2.476563-2.5625 4.4375-5.421875 5.867188-8.480469 2.0625 4.324219 3.09375 9.011719 3.09375 13.683594zm0 0" fill="#ffbfab"/><path d="m152.882812 406.6875h-50.882812v-145.753906h50.882812c3.234376 0 5.855469 2.621094 5.855469 5.855468v134.042969c0 3.234375-2.621093 5.855469-5.855469 5.855469zm0 0" fill="#f9efef"/><path d="m111.125 420.851562h-105.007812c-3.378907 0-6.117188-2.742187-6.117188-6.121093v-161.839844c0-3.378906 2.738281-6.121094 6.117188-6.121094h105.003906c3.382812 0 6.121094 2.742188 6.121094 6.121094v161.839844c0 3.378906-2.738282 6.121093-6.117188 6.121093zm0 0" fill="#5ee2c5"/><path d="m111.125 420.851562h-105.007812c-3.378907 0-6.117188-2.742187-6.117188-6.121093v-39.015625h117.242188v39.015625c0 3.378906-2.738282 6.121093-6.117188 6.121093zm0 0" fill="#00d3b4"/><path d="m152.882812 406.6875h-35.640624v-43.320312h41.496093v37.464843c0 3.234375-2.621093 5.855469-5.855469 5.855469zm0 0" fill="#efe2dd"/><path d="m478.054688 221.386719h-305.066407c-4.554687 0-8.246093-3.691407-8.246093-8.242188v-204.898437c0-4.554688 3.691406-8.246094 8.246093-8.246094h305.066407c4.550781 0 8.242187 3.691406 8.242187 8.246094v204.898437c0 4.550781-3.691406 8.242188-8.242187 8.242188zm0 0" fill="#efe2dd"/><path d="m478.054688 221.386719h-20.6875v-221.386719h20.6875c4.550781 0 8.242187 3.691406 8.242187 8.242188v204.898437c0 4.554687-3.691406 8.246094-8.242187 8.246094zm0 0" fill="#e1d3ce"/><path d="m448.371094 59.34375c0 14.9375-12.109375 27.050781-27.050782 27.050781-14.9375 0-27.050781-12.113281-27.050781-27.050781 0-14.941406 12.113281-27.050781 27.050781-27.050781 14.941407 0 27.050782 12.109375 27.050782 27.050781zm0 0" fill="#ffc143"/><path d="m448.375 59.339844c0 14.941406-12.109375 27.050781-27.050781 27.050781-8.082031 0-15.324219-3.535156-20.273438-9.152344 2.320313.660157 4.773438 1.011719 7.308594 1.011719 14.933594 0 27.050781-12.109375 27.050781-27.054688 0-6.859374-2.554687-13.128906-6.769531-17.890624 11.386719 3.1875 19.734375 13.636718 19.734375 26.035156zm0 0" fill="#ffb509"/><path d="m478.054688 221.386719h-305.066407c-4.554687 0-8.246093-3.691407-8.246093-8.242188v-25.113281h321.554687v25.113281c0 4.550781-3.691406 8.242188-8.242187 8.242188zm0 0" fill="#ff4343"/><path d="m478.054688 221.386719h-20.6875v-33.355469h28.929687v25.113281c0 4.550781-3.691406 8.242188-8.242187 8.242188zm0 0" fill="#f72c2c"/><g fill="#5a5a5a"><path d="m212.199219 83.605469h51.410156c4.269531 0 7.730469-3.460938 7.730469-7.730469s-3.460938-7.730469-7.730469-7.730469h-51.410156c-4.269531 0-7.730469 3.460938-7.730469 7.730469s3.460938 7.730469 7.730469 7.730469zm0 0"/><path d="m307.523438 100.609375c0-4.269531-3.460938-7.730469-7.726563-7.730469h-87.597656c-4.269531 0-7.730469 3.460938-7.730469 7.730469s3.460938 7.726563 7.730469 7.726563h87.597656c4.265625 0 7.726563-3.457032 7.726563-7.726563zm0 0"/><path d="m212.199219 137.785156c-4.269531 0-7.730469 3.457032-7.730469 7.726563s3.460938 7.730469 7.730469 7.730469h43.796875c4.269531 0 7.730468-3.460938 7.730468-7.730469s-3.460937-7.726563-7.730468-7.726563zm0 0"/><path d="m287.902344 153.242188h142.417968c4.269532 0 7.726563-3.460938 7.726563-7.730469s-3.460937-7.726563-7.726563-7.726563h-142.417968c-4.269532 0-7.730469 3.457032-7.730469 7.726563s3.460937 7.730469 7.730469 7.730469zm0 0"/></g></svg>