<svg height="512pt" viewBox="-84 0 512 512" width="512pt" xmlns="http://www.w3.org/2000/svg"><path d="m210.078125 58.933594h-76.378906v-37.273438c0-11.964844 9.699219-21.660156 21.660156-21.660156h33.058594c11.960937 0 21.660156 9.695312 21.660156 21.660156zm0 0" fill="#5a5a5a"/><path d="m210.082031 21.65625v28.078125h-22.386719v-28.078125c0-11.964844-9.703124-21.65625-21.65625-21.65625h22.375c11.964844 0 21.667969 9.691406 21.667969 21.65625zm0 0" fill="#444"/><path d="m318.964844 511.996094h-294.15625c-13.699219 0-24.808594-11.105469-24.808594-24.808594v-412.640625c0-13.703125 11.109375-24.8125 24.808594-24.8125h294.15625c13.703125 0 24.8125 11.109375 24.8125 24.8125v412.640625c0 13.703125-11.109375 24.808594-24.8125 24.808594zm0 0" fill="#ff5757"/><path d="m343.78125 74.550781v412.632813c0 13.710937-11.109375 24.816406-24.816406 24.816406h-26.476563c13.695313 0 24.804688-11.105469 24.804688-24.816406v-412.632813c0-13.710937-11.109375-24.816406-24.804688-24.816406h26.476563c13.707031 0 24.816406 11.105469 24.816406 24.816406zm0 0" fill="#ff4343"/><path d="m252.542969 89.367188h-161.3125c-2.851563 0-5.160157-2.3125-5.160157-5.160157v-34.472656h171.636719v34.472656c0 2.847657-2.3125 5.160157-5.164062 5.160157zm0 0" fill="#5a5a5a"/><path d="m252.542969 89.367188h-12.78125v-39.632813h17.945312v34.472656c0 2.847657-2.3125 5.160157-5.164062 5.160157zm0 0" fill="#444"/><path d="m277.792969 433.03125h-211.8125c-11.476563 0-20.777344-9.300781-20.777344-20.777344v-274.828125c0-11.476562 9.300781-20.78125 20.777344-20.78125h211.8125c11.476562 0 20.78125 9.304688 20.78125 20.78125v274.828125c0 11.476563-9.304688 20.777344-20.78125 20.777344zm0 0" fill="#efe2dd"/><path d="m298.578125 137.425781v274.828125c0 11.476563-9.3125 20.777344-20.78125 20.777344h-23.773437c11.480468 0 20.78125-9.300781 20.78125-20.777344v-274.828125c0-11.480469-9.300782-20.78125-20.78125-20.78125h23.773437c11.46875 0 20.78125 9.300781 20.78125 20.78125zm0 0" fill="#e1d3ce"/><path d="m71.144531 252.753906v138.992188c0 22.800781 18.484375 41.28125 41.285157 41.28125h118.914062c22.800781 0 41.285156-18.480469 41.285156-41.28125v-138.992188zm0 0" fill="#b17f4a"/><path d="m248.625 252.75h24.003906v138.871094c0 22.871094-18.539062 41.410156-41.410156 41.410156h-38.191406c30.703125 0 55.597656-24.894531 55.597656-55.605469zm0 0" fill="#a06d3f"/><path d="m116.953125 433.03125c0-30.335938 24.59375-54.929688 54.933594-54.929688 30.335937 0 54.929687 24.59375 54.929687 54.929688zm0 0" fill="#c9f0ff"/><path d="m203.007812 387.761719-10.707031 15.960937c-1.257812 1.875-1.929687 4.082032-1.929687 6.339844v22.96875h-36.96875v-22.96875c0-2.257812-.671875-4.464844-1.929688-6.339844l-10.710937-15.960937c8.851562-6.09375 19.566406-9.664063 31.125-9.664063 11.554687 0 22.273437 3.570313 31.121093 9.664063zm0 0" fill="#fff"/><path d="m193.707031 382.753906h-43.636719c-31.277343 0-56.628906-25.355468-56.628906-56.628906v-73.375h156.894532v73.375c0 31.273438-25.355469 56.628906-56.628907 56.628906zm0 0" fill="#f3d1bb"/><path d="m250.335938 252.753906v73.371094c0 31.277344-25.355469 56.625-56.628907 56.625h-22.386719c31.277344 0 56.628907-25.347656 56.628907-56.625v-73.371094zm0 0" fill="#e8c0a8"/><path d="m134.511719 341.464844c0 4.660156-3.777344 8.4375-8.4375 8.4375-4.65625 0-8.433594-3.777344-8.433594-8.4375s3.777344-8.4375 8.433594-8.4375c4.660156 0 8.4375 3.777344 8.4375 8.4375zm0 0" fill="#ff7a7a"/><path d="m226.136719 341.464844c0 4.660156-3.777344 8.4375-8.4375 8.4375-4.660157 0-8.4375-3.777344-8.4375-8.4375s3.777343-8.4375 8.4375-8.4375c4.660156 0 8.4375 3.777344 8.4375 8.4375zm0 0" fill="#ff7a7a"/><path d="m71.273438 252.285156s63.207031 53.453125 111.523437 50.417969l-4.53125-14.578125s51.191406 32.800781 94.238281 27.941406v-63.78125c0-42.605468-34.539062-77.144531-77.148437-77.144531h-46.9375c-42.605469 0-77.144531 34.539063-77.144531 77.144531zm0 0" fill="#b17f4a"/><path d="m272.503906 252.285156v63.78125c-8.09375.914063-16.480468.496094-24.753906-.789062v-62.992188c0-21.304687-8.636719-40.589844-22.59375-54.550781-13.960938-13.960937-33.253906-22.59375-54.550781-22.59375h24.753906c21.296875 0 40.589844 8.632813 54.550781 22.59375 13.957032 13.960937 22.59375 33.246094 22.59375 54.550781zm0 0" fill="#a06d3f"/><path d="m180.019531 345.160156c-4.277343 0-7.742187 3.46875-7.742187 7.742188v.394531c0 .476563-.386719.867187-.867188.867187-.476562 0-.867187-.390624-.867187-.867187v-.394531c0-4.273438-3.464844-7.742188-7.742188-7.742188-4.273437 0-7.742187 3.46875-7.742187 7.742188v.394531c0 9.015625 7.335937 16.351563 16.351562 16.351563s16.347656-7.335938 16.347656-16.351563v-.394531c.003907-4.273438-3.460937-7.742188-7.738281-7.742188zm0 0" fill="#ff7a7a"/><path d="m157.996094 326.585938v-7.484376c0-4.277343-3.46875-7.746093-7.746094-7.746093-4.273438 0-7.742188 3.46875-7.742188 7.746093v7.484376c0 4.277343 3.46875 7.742187 7.742188 7.742187 4.277344 0 7.746094-3.464844 7.746094-7.742187zm0 0" fill="#b17f4a"/><path d="m184.828125 319.097656v7.488282c0 4.277343 3.464844 7.742187 7.742187 7.742187 4.277344 0 7.742188-3.464844 7.742188-7.742187v-7.488282c0-4.273437-3.464844-7.742187-7.742188-7.742187-4.277343 0-7.742187 3.46875-7.742187 7.742187zm0 0" fill="#b17f4a"/><g fill="#5a5a5a"><path d="m239.761719 451.867188h-135.746094c-4.277344 0-7.742187 3.464843-7.742187 7.742187 0 4.273437 3.464843 7.742187 7.742187 7.742187h135.746094c4.277343 0 7.742187-3.46875 7.742187-7.742187 0-4.277344-3.464844-7.742187-7.742187-7.742187zm0 0"/><path d="m210.140625 476.386719h-76.507813c-4.273437 0-7.742187 3.464843-7.742187 7.742187s3.46875 7.742188 7.742187 7.742188h76.507813c4.277344 0 7.742187-3.464844 7.742187-7.742188s-3.464843-7.742187-7.742187-7.742187zm0 0"/></g></svg>