<svg height="512pt" viewBox="-84 0 512 512.001" width="512pt" xmlns="http://www.w3.org/2000/svg"><path d="m210.078125 62.15625h-76.378906v-40.496094c0-11.960937 9.695312-21.660156 21.660156-21.660156h33.058594c11.960937 0 21.660156 9.695312 21.660156 21.660156zm0 0" fill="#5a5a5a"/><path d="m210.082031 21.65625v28.078125h-22.386719v-28.078125c0-11.964844-9.703124-21.65625-21.65625-21.65625h22.375c11.964844 0 21.667969 9.691406 21.667969 21.65625zm0 0" fill="#444"/><path d="m318.964844 511.996094h-294.15625c-13.699219 0-24.808594-11.109375-24.808594-24.808594v-412.640625c0-13.703125 11.109375-24.8125 24.808594-24.8125h294.15625c13.703125 0 24.8125 11.109375 24.8125 24.8125v412.640625c0 13.699219-11.109375 24.808594-24.8125 24.808594zm0 0" fill="#83afe4"/><path d="m343.78125 74.550781v412.632813c0 13.710937-11.109375 24.816406-24.816406 24.816406h-26.476563c13.695313 0 24.804688-11.105469 24.804688-24.816406v-412.632813c0-13.707031-11.109375-24.816406-24.804688-24.816406h26.476563c13.707031 0 24.816406 11.105469 24.816406 24.816406zm0 0" fill="#5290d9"/><path d="m252.554688 89.367188h-161.335938c-2.84375 0-5.148438-2.304688-5.148438-5.152344v-34.480469h171.636719v34.480469c0 2.847656-2.308593 5.152344-5.152343 5.152344zm0 0" fill="#5a5a5a"/><path d="m252.554688 89.367188h-12.792969v-39.632813h17.945312v34.480469c0 2.847656-2.308593 5.152344-5.152343 5.152344zm0 0" fill="#444"/><path d="m277.792969 433.03125h-211.8125c-11.476563 0-20.777344-9.300781-20.777344-20.777344v-274.828125c0-11.476562 9.300781-20.78125 20.777344-20.78125h211.8125c11.476562 0 20.78125 9.304688 20.78125 20.78125v274.828125c0 11.476563-9.304688 20.777344-20.78125 20.777344zm0 0" fill="#efe2dd"/><path d="m298.578125 137.425781v274.828125c0 11.476563-9.3125 20.777344-20.78125 20.777344h-23.773437c11.480468 0 20.78125-9.300781 20.78125-20.777344v-274.828125c0-11.480469-9.300782-20.78125-20.78125-20.78125h23.773437c11.46875 0 20.78125 9.300781 20.78125 20.78125zm0 0" fill="#e1d3ce"/><path d="m96.148438 433.03125c0-41.828125 33.90625-75.742188 75.738281-75.742188s75.742187 33.910157 75.742187 75.742188zm0 0" fill="#c9f0ff"/><path d="m247.625 433.03125h-17.871094c0-38.804688-29.183594-70.796875-66.800781-75.210938 2.929687-.347656 5.914063-.523437 8.933594-.523437 41.828125 0 75.738281 33.90625 75.738281 75.734375zm0 0" fill="#9ae7fd"/><path d="m194.554688 364.351562h-45.332032c-32.492187 0-58.832031-26.339843-58.832031-58.832031v-76.222656h162.996094v76.222656c-.003907 32.492188-26.339844 58.832031-58.832031 58.832031zm0 0" fill="#f3d1bb"/><path d="m253.386719 229.296875v76.222656c0 32.496094-26.34375 58.828125-58.832031 58.828125h-23.257813c32.496094 0 58.832031-26.332031 58.832031-58.828125v-76.222656zm0 0" fill="#e8c0a8"/><path d="m133.058594 312.691406c0 4.839844-3.921875 8.765625-8.765625 8.765625-4.839844 0-8.761719-3.925781-8.761719-8.765625s3.921875-8.765625 8.761719-8.765625c4.84375 0 8.765625 3.925781 8.765625 8.765625zm0 0" fill="#ff7a7a"/><path d="m228.246094 312.691406c0 4.839844-3.925782 8.765625-8.765625 8.765625-4.839844 0-8.765625-3.925781-8.765625-8.765625s3.925781-8.765625 8.765625-8.765625c4.839843 0 8.765625 3.925781 8.765625 8.765625zm0 0" fill="#ff7a7a"/><path d="m90.390625 268.640625h-1.300781c-12.125 0-21.953125 9.828125-21.953125 21.953125 0 12.121094 9.828125 21.949219 21.953125 21.949219h1.300781zm0 0" fill="#f3d1bb"/><path d="m270.800781 305.496094c-4.007812 4.335937-9.746093 7.050781-16.117187 7.050781h-1.300782v-43.90625h1.300782c12.125 0 21.953125 9.828125 21.953125 21.953125 0 5.75-2.210938 10.988281-5.835938 14.902344zm0 0" fill="#e8c0a8"/><path d="m229.621094 168.085938c-.988282-1.625-1.675782-3.445313-1.882813-5.589844-.457031-4.765625 1.835938-9.128906-1.613281-13.453125-2.902344-3.640625-7.359375-.296875-10.441406.988281-4.046875 1.691406-8.082032 2.472656-12.5625 2.945312-10.089844 1.058594-20.273438.511719-30.363282 1.597657-35.007812 3.761719-82.292968 15.460937-82.292968 59.125v72.296875l14.246094-8.917969c2.640624-1.652344 4.246093-4.550781 4.246093-7.667969v-35.894531c0-2.023437 1.640625-3.664063 3.667969-3.664063h118.523438c2.027343 0 3.667968 1.640626 3.667968 3.664063v35.894531c0 3.117188 1.605469 6.015625 4.246094 7.667969l14.246094 8.917969v-72.296875c0-13.289063-5.195313-26.25-14.375-35.859375-3.121094-3.269532-7.015625-5.980469-9.3125-9.753906zm0 0" fill="#b17f4a"/><path d="m253.308594 213.699219v72.300781l-15.023438-9.410156v-62.890625c0-13.285157-5.199218-26.25-14.378906-35.863281-3.113281-3.261719-7.015625-5.976563-9.3125-9.75-.980469-1.621094-1.671875-3.445313-1.882812-5.589844-.378907-3.964844 1.152343-7.660156-.328126-11.273438 1.105469-.339844 2.207032-.734375 3.304688-1.191406 3.082031-1.289062 7.53125-4.632812 10.433594-.988281 3.457031 4.324219 1.160156 8.6875 1.613281 13.453125.214844 2.144531.902344 3.96875 1.886719 5.589844 2.292968 3.773437 6.195312 6.488281 9.308594 9.75 9.183593 9.613281 14.378906 22.578124 14.378906 35.863281zm0 0" fill="#a06d3f"/><path d="m181.546875 312.378906c-4.277344 0-7.742187 3.464844-7.742187 7.742188v.445312c0 1.054688-.859376 1.914063-1.917969 1.914063-1.054688 0-1.914063-.859375-1.914063-1.914063v-.445312c0-4.277344-3.46875-7.742188-7.742187-7.742188-4.277344 0-7.742188 3.464844-7.742188 7.742188v.445312c0 9.59375 7.804688 17.398438 17.398438 17.398438s17.402343-7.804688 17.402343-17.398438v-.445312c0-4.277344-3.46875-7.742188-7.742187-7.742188zm0 0" fill="#ff7a7a"/><g fill="#b17f4a"><path d="m201.75 250.65625h-9.503906c-4.277344 0-7.742188 3.46875-7.742188 7.742188 0 4.277343 3.464844 7.742187 7.742188 7.742187h9.503906c4.277344 0 7.742188-3.464844 7.742188-7.742187 0-4.273438-3.464844-7.742188-7.742188-7.742188zm0 0"/><path d="m155.886719 258.398438c0-4.273438-3.464844-7.742188-7.742188-7.742188h-9.503906c-4.273437 0-7.738281 3.46875-7.738281 7.742188 0 4.277343 3.464844 7.742187 7.738281 7.742187h9.503906c4.277344 0 7.742188-3.464844 7.742188-7.742187zm0 0"/><path d="m155.886719 282.191406c0-4.277344-3.464844-7.742187-7.742188-7.742187-4.273437 0-7.742187 3.464843-7.742187 7.742187v8.398438c0 4.277344 3.46875 7.742187 7.742187 7.742187 4.277344 0 7.742188-3.464843 7.742188-7.742187zm0 0"/><path d="m195.628906 274.449219c-4.277344 0-7.742187 3.464843-7.742187 7.742187v8.402344c0 4.273438 3.464843 7.742188 7.742187 7.742188s7.742188-3.46875 7.742188-7.742188v-8.402344c0-4.277344-3.464844-7.742187-7.742188-7.742187zm0 0"/></g><path d="m181.03125 386.703125h-18.289062c-2.539063 0-4.597657-2.058594-4.597657-4.597656v-17.753907h27.488281v17.753907c0 2.539062-2.058593 4.597656-4.601562 4.597656zm0 0" fill="#ff5757"/><path d="m190.480469 433.03125-8.726563-46.328125h-19.011718l-8.726563 46.328125zm0 0" fill="#f72c2c"/><path d="m247.503906 459.609375c0-4.277344-3.464844-7.742187-7.742187-7.742187h-135.75c-4.273438 0-7.738281 3.464843-7.738281 7.742187 0 4.273437 3.464843 7.742187 7.738281 7.742187h135.75c4.277343 0 7.742187-3.46875 7.742187-7.742187zm0 0" fill="#5a5a5a"/><path d="m133.632812 476.386719c-4.273437 0-7.742187 3.464843-7.742187 7.742187s3.46875 7.742188 7.742187 7.742188h76.507813c4.277344 0 7.742187-3.464844 7.742187-7.742188s-3.464843-7.742187-7.742187-7.742187zm0 0" fill="#5a5a5a"/></svg>