<?xml version="1.0" encoding="iso-8859-1"?>
<!-- Generator: Adobe Illustrator 19.0.0, SVG Export Plug-In . SVG Version: 6.00 Build 0)  -->
<svg version="1.1" id="Capa_1" xmlns="http://www.w3.org/2000/svg" xmlns:xlink="http://www.w3.org/1999/xlink" x="0px" y="0px"
	 viewBox="0 0 512 512" style="enable-background:new 0 0 512 512;" xml:space="preserve">
<g>
	<g>
		<path d="M407,0H105C47.103,0,0,47.103,0,105v302c0,57.897,47.103,105,105,105h302c57.897,0,105-47.103,105-105V105
			C512,47.103,464.897,0,407,0z M482,407c0,41.355-33.645,75-75,75H105c-41.355,0-75-33.645-75-75V105c0-41.355,33.645-75,75-75h302
			c41.355,0,75,33.645,75,75V407z"/>
	</g>
</g>
<g>
	<g>
		<path d="M396,131H116c-16.542,0-30,13.458-30,30v170c0,16.542,13.458,30,30,30h280c16.542,0,30-13.458,30-30V161
			C426,144.458,412.542,131,396,131z M359.704,161L255.958,264.745L152.213,161H359.704z M116,167.213L194.787,246L116,324.787
			V167.213z M152.213,331L216,267.213l39.959,39.959l40-40L359.787,331H152.213z M317.171,245.959l78.83-78.83l0.017,157.676
			L317.171,245.959z"/>
	</g>
</g>
<g>
</g>
<g>
</g>
<g>
</g>
<g>
</g>
<g>
</g>
<g>
</g>
<g>
</g>
<g>
</g>
<g>
</g>
<g>
</g>
<g>
</g>
<g>
</g>
<g>
</g>
<g>
</g>
<g>
</g>
</svg>
