<svg height="488pt" viewBox="0 -6 488.066 488" width="488pt" xmlns="http://www.w3.org/2000/svg"><path d="m237.136719 8.03125c3.078125-5.332031 10.777343-5.332031 13.855469 0l113.101562 195.902344 113.101562 195.898437c3.082032 5.335938-.769531 12-6.925781 12h-452.410156c-6.160156 0-10.007813-6.664062-6.929687-12l113.101562-195.898437zm0 0" fill="#a4c9ff"/><path d="m100.753906 244.253906h-96.753906v50.398438h67.652344zm0 0" fill="#6bdddd"/><path d="m124.03125 203.933594 5.820312-10.082032h-125.851562v50.402344h96.753906zm0 0" fill="#ffea92"/><path d="m158.949219 143.453125h-154.949219v50.398437h125.851562zm0 0" fill="#f9a7a7"/><path d="m158.949219 143.453125-87.296875 151.199219 305.789062-67.597656-9.234375-15.996094zm0 0" fill="#e0ebfc"/><path d="m470.269531 415.832031h-452.410156c-4.339844 0-8.222656-2.242187-10.394531-6-2.167969-3.753906-2.167969-8.242187 0-12l226.207031-391.800781c2.167969-3.753906 6.054687-6 10.390625-6 4.339844 0 8.222656 2.246094 10.394531 6l226.203125 391.800781c2.167969 3.757813 2.167969 8.246094 0 12-2.167968 3.757813-6.050781 6-10.390625 6zm-229.667969-405.800781-226.207031 391.800781c-1.042969 1.804688-.347656 3.398438 0 4 .347657.601563 1.378907 2 3.464844 2h452.410156c2.085938 0 3.117188-1.398437 3.464844-2 .34375-.601562 1.042969-2.195312 0-4l-226.207031-391.800781c-1.042969-1.804688-2.769532-2-3.464844-2-.691406 0-2.421875.195312-3.460938 2zm0 0" fill="#3762cc"/><path d="m335.460938 377.300781v.003907c-6.164063-6.730469-13.277344-12.871094-21.335938-18.21875-20.246094-13.433594-43.421875-19.941407-66.410156-20.074219v.054687c-24.417969-.730468-49.285156 5.722656-70.832032 20.019532-8.054687 5.347656-15.167968 11.488281-21.332031 18.21875l-.003906-.003907s-13.601563 14.117188-23.695313 30.765625l27.800782 27.949219c1.683594 1.742187 3.414062 3.421875 5.191406 5.042969.011719.015625.027344.03125.042969.046875l-.003907-.007813c22.582032 20.621094 52.570313 31.324219 82.828126 30.960938v-.03125c28.746093-.679688 56.925781-11.316406 78.40625-30.929688v.007813c.011718-.015625.027343-.03125.042968-.046875 1.777344-1.621094 3.507813-3.300782 5.1875-5.042969l27.804688-27.949219c-10.085938-16.648437-23.691406-30.765625-23.691406-30.765625zm0 0" fill="#e0ebfc"/><path d="m310.785156 405.539062c0 35.207032-28.542968 63.75-63.75 63.75-35.210937 0-63.75-28.542968-63.75-63.75 0-35.207031 28.539063-63.75 63.75-63.75 35.207032 0 63.75 28.542969 63.75 63.75zm0 0" fill="#4671c6"/><path d="m264.261719 410.804688c-11.59375-3.9375-17.800781-16.527344-13.867188-28.121094 3.9375-11.59375 16.527344-17.800782 28.121094-13.863282 11.59375 3.933594 17.800781 16.523438 13.867187 28.117188-3.9375 11.59375-16.527343 17.804688-28.121093 13.867188zm0 0" fill="#a4c9ff"/><g fill="#3762cc"><path d="m246.1875 476.066406c-31.5.003906-61.207031-11.28125-83.832031-31.867187-.109375-.085938-.210938-.179688-.308594-.28125-1.855469-1.699219-3.625-3.425781-5.265625-5.128907l-27.757812-27.902343c-1.296876-1.304688-1.539063-3.324219-.585938-4.894531 10.207031-16.832032 23.671875-30.878907 24.238281-31.46875.023438-.023438.042969-.042969.066407-.066407 6.472656-7.046875 13.855468-13.339843 21.9375-18.703125 21.398437-14.199218 46.46875-21.347656 72.515624-20.703125.183594-.027343.382813-.027343.550782-.039062 24.644531.144531 48.367187 7.316406 68.597656 20.742187 8.082031 5.363282 15.460938 11.65625 21.9375 18.699219.019531.023437.042969.046875.066406.070313.566406.589843 14.03125 14.632812 24.238282 31.464843.953124 1.574219.710937 3.59375-.585938 4.898438l-27.804688 27.949219c-1.59375 1.65625-3.371093 3.386718-5.242187 5.097656-.074219.074218-.152344.144531-.230469.210937-21.664062 19.734375-50.199218 31.039063-80.417968 31.867188-.171876.027343-.351563.042969-.535157.042969-.53125.007812-1.058593.011718-1.582031.011718zm-78.628906-37.949218c.007812.011718.019531.019531.03125.027343 21.40625 19.546875 49.695312 30.128907 79.609375 29.917969.140625-.019531.28125-.03125.425781-.035156 28.515625-.675782 55.4375-11.289063 75.804688-29.886719.019531-.019531.039062-.035156.058593-.050781 1.769531-1.621094 3.449219-3.25 4.988281-4.851563l25.617188-25.75c-9.007812-14.105469-20.09375-25.921875-21.386719-27.285156-.066406-.0625-.132812-.128906-.191406-.199219-6.070313-6.625-13-12.542968-20.59375-17.585937-18.765625-12.449219-40.742187-19.152344-63.605469-19.402344-.234375.039063-.476562.050781-.710937.046875-24.632813-.722656-48.3125 5.957031-68.5 19.355469-7.597657 5.042969-14.527344 10.960937-20.59375 17.585937-.0625.070313-.128907.136719-.195313.199219-1.292968 1.363281-12.386718 13.203125-21.382812 27.285156l25.570312 25.703125c1.597656 1.660156 3.28125 3.296875 5.046875 4.914063 0 .003906.003907.007812.007813.011719zm0 0"/><path d="m71.65625 298.652344h-67.65625c-2.207031 0-4-1.792969-4-4v-50.398438c0-2.207031 1.792969-4 4-4h96.753906c1.425782 0 2.75.761719 3.460938 2 .714844 1.238282.714844 2.761719 0 4l-29.097656 50.398438c-.710938 1.238281-2.03125 2-3.460938 2zm-63.65625-8h61.34375l24.480469-42.398438h-85.824219zm0 0"/><path d="m100.753906 248.253906h-96.753906c-2.207031 0-4-1.792968-4-4v-50.402344c0-2.207031 1.792969-4 4-4h125.851562c1.429688 0 2.75.761719 3.464844 2 .714844 1.238282.714844 2.761719 0 4l-29.097656 50.402344c-.714844 1.234375-2.035156 2-3.464844 2zm-92.753906-8h90.445312l22.121094-38.320312 2.359375-4.082032h-114.925781zm0 0"/><path d="m129.851562 197.851562h-125.851562c-2.207031 0-4-1.789062-4-4v-50.398437c0-2.207031 1.792969-4 4-4h154.949219c1.429687 0 2.75.761719 3.464843 2 .714844 1.238281.714844 2.761719 0 4l-29.097656 50.398437c-.714844 1.238282-2.035156 2-3.464844 2zm-121.851562-8h119.542969l24.480469-42.398437h-144.023438zm0 0"/><path d="m71.65625 298.652344c-1.257812 0-2.460938-.59375-3.226562-1.636719-.9375-1.277344-1.03125-2.992187-.238282-4.363281l87.292969-151.199219c.945313-1.632813 2.898437-2.386719 4.695313-1.804687l209.257812 67.605468c.945312.304688 1.742188.949219 2.234375 1.808594l9.234375 15.992188c.636719 1.105468.710938 2.445312.199219 3.613281-.515625 1.164062-1.554688 2.015625-2.800781 2.292969l-305.785157 67.597656c-.289062.0625-.578125.09375-.863281.09375zm89.140625-150.398438-81.136719 140.53125 291.589844-64.457031-5.734375-9.933594zm0 0"/></g><path d="m484.0625 213.054688c-.78125-.785157-1.214844-1.21875-2-2h-109.238281c-.03125 0-.058594.003906-.089844.003906h-4.527344l1.578125 2.730468 7.65625 13.265626h104.621094c1.101562 0 2-.898438 2-2zm0 0" fill="#f9cfcf"/><path d="m482.0625 231.054688h-104.617188c-1.429687 0-2.75-.765626-3.464843-2l-9.234375-15.996094c-.714844-1.238282-.714844-2.761719 0-4 .714844-1.238282 2.035156-2 3.464844-2h4.351562c.085938-.003906.171875-.007813.261719-.007813h109.242187c1.058594 0 2.078125.421875 2.828125 1.171875l2 2c.75.75 1.171875 1.769532 1.171875 2.828125v12c-.003906 3.308594-2.695312 6.003907-6.003906 6.003907zm-102.308594-8h100.308594v-8h-104.929688zm0 0" fill="#3762cc"/></svg>