<svg id="temp-hot" enable-background="new 0 0 300 300" height="512" viewBox="0 0 300 300" width="512" xmlns="http://www.w3.org/2000/svg"><g><circle cx="166.001" cy="161.998" fill="#efefd2" r="92"/><g><path d="m114.001 75.399v-25.401c0-13.255-10.745-24-24-24-13.255 0-24 10.745-24 24v109.026c-21.83 9.545-36.9 31.678-35.958 57.239 1.133 30.748 26.247 56.177 56.98 57.663 34.491 1.667 62.978-25.804 62.978-59.928 0-24.598-14.817-45.712-36-54.974v-69.026" fill="#fff"/><path d="m90.032 278.002c-1.062 0-2.131-.027-3.203-.078-32.873-1.594-59.572-28.613-60.785-61.512-.941-25.594 13.094-48.84 35.957-59.945v-106.469c0-15.438 12.561-28 28-28s28 12.562 28 28v25.402c0 2.211-1.791 4-4 4s-4-1.789-4-4v-25.402c0-11.027-8.973-20-20-20s-20 8.973-20 20v109.027c0 1.59-.941 3.027-2.398 3.664-21.242 9.289-34.416 30.258-33.562 53.426 1.061 28.785 24.418 52.426 53.176 53.816 15.498.758 30.213-4.715 41.41-15.387 11.205-10.676 17.375-25.078 17.375-40.547 0-22.242-13.189-42.383-33.602-51.309-1.457-.637-2.398-2.074-2.398-3.664v-69.026c0-2.211 1.791-4 4-4s4 1.789 4 4v66.469c21.957 10.691 36 32.988 36 57.531 0 17.68-7.051 34.137-19.855 46.34-12.025 11.457-27.586 17.664-44.115 17.664z" fill="#4c241d"/></g><path d="m98.001 170.76v-92.762c0-4.418-3.582-8-8-8-4.418 0-8 3.582-8 8v92.762c-21.603 3.974-37.695 23.689-35.857 46.833 1.739 21.888 20.181 39.528 42.122 40.372 25.091.964 45.735-19.09 45.735-43.967 0-21.564-15.525-39.471-36-43.238z" fill="#f53e28"/><g fill="#4c241d"><path d="m130.001 93.998h-32c-2.209 0-4-1.789-4-4s1.791-4 4-4h32c2.209 0 4 1.789 4 4s-1.791 4-4 4z"/><path d="m142.001 121.998h-16c-2.209 0-4-1.789-4-4s1.791-4 4-4h16c2.209 0 4 1.789 4 4s-1.791 4-4 4z"/><path d="m142.001 65.998h-16c-2.209 0-4-1.789-4-4s1.791-4 4-4h16c2.209 0 4 1.789 4 4s-1.791 4-4 4z"/><path d="m130.001 149.998h-32c-2.209 0-4-1.789-4-4s1.791-4 4-4h32c2.209 0 4 1.789 4 4s-1.791 4-4 4z"/></g><path d="m87.62 249.912c-.1 0-.197-.004-.299-.012-18.684-1.379-33.32-17.148-33.32-35.902 0-2.211 1.791-4 4-4s4 1.789 4 4c0 14.586 11.381 26.852 25.91 27.926 2.203.16 3.857 2.078 3.693 4.281-.154 2.106-1.908 3.707-3.984 3.707z" fill="#fff"/><g><path d="m238.001 109.998h-8c-16.543 0-30-13.457-30-30s13.457-30 30-30h8c3.314 0 6 2.688 6 6s-2.686 6-6 6h-8c-9.926 0-18 8.074-18 18s8.074 18 18 18h8c3.314 0 6 2.688 6 6s-2.686 6-6 6z" fill="#f53e28"/><path d="m238.001 113.998h-8c-18.748 0-34-15.254-34-34s15.252-34 34-34h8c5.514 0 10 4.484 10 10s-4.486 10-10 10h-8c-7.719 0-14 6.281-14 14s6.281 14 14 14h8c5.514 0 10 4.484 10 10s-4.487 10-10 10zm-8-60c-14.336 0-26 11.664-26 26s11.664 26 26 26h8c1.104 0 2-.898 2-2s-.896-2-2-2h-8c-12.131 0-22-9.871-22-22s9.869-22 22-22h8c1.104 0 2-.898 2-2s-.896-2-2-2z" fill="#4c241d"/></g><path d="m262.001 65.998c-6.617 0-12-5.383-12-12s5.383-12 12-12 12 5.383 12 12-5.383 12-12 12zm0-16c-2.205 0-4 1.793-4 4s1.795 4 4 4 4-1.793 4-4-1.795-4-4-4z" fill="#4c241d"/><g><path d="m184.001 73.998h-4v-4c0-3.314-2.686-6-6-6s-6 2.686-6 6v4h-4c-3.314 0-6 2.686-6 6s2.686 6 6 6h4v4c0 3.314 2.686 6 6 6s6-2.686 6-6v-4h4c3.314 0 6-2.686 6-6s-2.686-6-6-6z" fill="#f53e28"/><path d="m174.001 99.998c-5.514 0-10-4.484-10-10-5.514 0-10-4.484-10-10s4.486-10 10-10c0-5.516 4.486-10 10-10s10 4.484 10 10c5.514 0 10 4.484 10 10s-4.486 10-10 10c0 5.516-4.487 10-10 10zm-10-22c-1.104 0-2 .898-2 2s.896 2 2 2h4c2.209 0 4 1.789 4 4v4c0 1.102.896 2 2 2s2-.898 2-2v-4c0-2.211 1.791-4 4-4h4c1.104 0 2-.898 2-2s-.896-2-2-2h-4c-2.209 0-4-1.789-4-4v-4c0-1.102-.896-2-2-2s-2 .898-2 2v4c0 2.211-1.791 4-4 4z" fill="#4c241d"/></g></g></svg>