<svg height="511pt" viewBox="-24 1 511 511.99975" width="511pt" xmlns="http://www.w3.org/2000/svg"><path d="m171.839844 424.851562h120.722656v65.910157h-120.722656zm0 0" fill="#003c79"/><path d="m331.683594 511.996094h-198.960938c-2.398437 0-4.34375-1.945313-4.34375-4.339844v-14.074219c0-9.542969 7.738282-17.277343 17.28125-17.277343h173.085938c9.542968 0 17.28125 7.734374 17.28125 17.277343v14.074219c-.003906 2.394531-1.945313 4.339844-4.34375 4.339844zm0 0" fill="#83afe4"/><path d="m336.023438 493.578125v14.078125c0 2.398438-1.941407 4.34375-4.339844 4.34375h-15.332032v-18.421875c0-9.535156-7.738281-17.273437-17.273437-17.273437h19.671875c9.539062 0 17.273438 7.734374 17.273438 17.273437zm0 0" fill="#5290d9"/><path d="m441.746094 439.914062h-419.089844c-12.238281 0-22.15625-9.917968-22.15625-22.15625v-357.441406c0-12.234375 9.917969-22.15625 22.15625-22.15625h419.089844c12.234375 0 22.15625 9.921875 22.15625 22.15625v357.441406c0 12.238282-9.917969 22.15625-22.15625 22.15625zm0 0" fill="#efe2dd"/><path d="m463.90625 60.320312v357.4375c0 12.238282-9.917969 22.15625-22.15625 22.15625h-27.0625c12.238281 0 22.15625-9.917968 22.15625-22.15625v-357.4375c0-12.238281-9.917969-22.15625-22.15625-22.15625h27.0625c12.238281 0 22.15625 9.917969 22.15625 22.15625zm0 0" fill="#e1d3ce"/><path d="m463.902344 386.535156h-463.402344v31.222656c0 12.238282 9.921875 22.15625 22.15625 22.15625h419.089844c12.238281 0 22.15625-9.917968 22.15625-22.15625zm0 0" fill="#83afe4"/><path d="m463.90625 386.535156v31.222656c0 12.238282-9.917969 22.15625-22.15625 22.15625h-27.0625c12.238281 0 22.15625-9.917968 22.15625-22.15625v-31.222656zm0 0" fill="#5290d9"/><path d="m464.394531 113.738281h-463.414062v-53.421875c0-12.234375 9.917969-22.15625 22.15625-22.15625h419.105469c12.234374 0 22.15625 9.917969 22.15625 22.15625v53.421875zm0 0" fill="#83afe4"/><path d="m464.398438 60.3125v53.429688h-27.558594v-53.429688c0-12.230469-9.917969-22.148438-22.152344-22.148438h27.554688c12.238281 0 22.15625 9.917969 22.15625 22.148438zm0 0" fill="#5290d9"/><path d="m54.628906 75.765625c0 6.960937-5.644531 12.601563-12.601562 12.601563-6.960938 0-12.601563-5.640626-12.601563-12.601563s5.640625-12.601563 12.601563-12.601563c6.957031 0 12.601562 5.640626 12.601562 12.601563zm0 0" fill="#ff5757"/><path d="m103.296875 75.765625c0 6.960937-5.644531 12.601563-12.601563 12.601563-6.960937 0-12.601562-5.640626-12.601562-12.601563s5.640625-12.601563 12.601562-12.601563c6.957032 0 12.601563 5.640626 12.601563 12.601563zm0 0" fill="#ffc143"/><path d="m151.964844 75.765625c0 6.960937-5.640625 12.601563-12.601563 12.601563-6.960937 0-12.601562-5.640626-12.601562-12.601563s5.640625-12.601563 12.601562-12.601563c6.960938 0 12.601563 5.640626 12.601563 12.601563zm0 0" fill="#5ee2c5"/><path d="m54.621094 75.769531c0 6.957031-5.636719 12.59375-12.59375 12.59375-3.367188 0-6.433594-1.316406-8.691406-3.480469 6.816406-.148437 12.304687-5.722656 12.304687-12.585937 0-3.59375-1.5-6.828125-3.90625-9.117187.09375-.011719.199219-.011719.292969-.011719 6.960937 0 12.59375 5.636719 12.59375 12.601562zm0 0" fill="#ff4343"/><path d="m103.292969 75.769531c0 6.957031-5.636719 12.59375-12.601563 12.59375-3.367187 0-6.425781-1.316406-8.691406-3.480469 6.824219-.148437 12.316406-5.722656 12.316406-12.585937 0-3.59375-1.503906-6.828125-3.910156-9.117187.09375-.011719.191406-.011719.285156-.011719 6.964844 0 12.601563 5.636719 12.601563 12.601562zm0 0" fill="#ffb509"/><path d="m151.964844 75.769531c0 6.957031-5.644532 12.59375-12.601563 12.59375-3.371093 0-6.425781-1.316406-8.691406-3.480469 6.824219-.148437 12.304687-5.722656 12.304687-12.585937 0-3.59375-1.503906-6.828125-3.90625-9.117187.09375-.011719.199219-.011719.292969-.011719 6.957031 0 12.601563 5.636719 12.601563 12.601562zm0 0" fill="#00d3b4"/><path d="m151.53125 386.535156h-48.34375v-107.121094c0-2.847656 2.308594-5.160156 5.160156-5.160156h38.027344c2.847656 0 5.15625 2.308594 5.15625 5.160156zm0 0" fill="#ff5757"/><path d="m361.710938 386.535156h-48.34375v-107.121094c0-2.847656 2.308593-5.160156 5.15625-5.160156h38.03125c2.847656 0 5.15625 2.308594 5.15625 5.160156zm0 0" fill="#ff5757"/><path d="m361.710938 386.535156h-19.171876v-112.28125h14.015626c2.847656 0 5.15625 2.308594 5.15625 5.160156zm0 0" fill="#ff4343"/><path d="m151.53125 386.535156h-19.171875v-112.28125h14.015625c2.847656 0 5.15625 2.308594 5.15625 5.160156zm0 0" fill="#ff4343"/><path d="m256.621094 386.535156h-48.34375v-282.421875c0-2.847656 2.308594-5.15625 5.15625-5.15625h38.03125c2.847656 0 5.15625 2.308594 5.15625 5.15625zm0 0" fill="#5ee2c5"/><path d="m236.617188 2.589844 8.707031 17.636718c.675781 1.371094 1.984375 2.324219 3.5 2.542969l19.460937 2.828125c3.8125.554688 5.335938 5.238282 2.578125 7.929688l-14.085937 13.726562c-1.09375 1.070313-1.59375 2.605469-1.335938 4.113282l3.324219 19.386718c.652344 3.796875-3.332031 6.691406-6.742187 4.898438l-17.410157-9.152344c-1.351562-.710938-2.96875-.710938-4.324219 0l-17.410156 9.152344c-3.410156 1.792968-7.394531-1.101563-6.742187-4.898438l3.324219-19.386718c.257812-1.507813-.242188-3.042969-1.335938-4.113282l-14.085938-13.726562c-2.757812-2.691406-1.234374-7.375 2.578126-7.929688l19.464843-2.828125c1.511719-.21875 2.820313-1.171875 3.5-2.542969l8.703125-17.636718c1.703125-3.453125 6.628906-3.453125 8.332032 0zm0 0" fill="#ffc143"/><path d="m256.777344 47.257812c-1.09375 1.0625-1.597656 2.597657-1.339844 4.113282l3.332031 19.378906c.648438 3.796875-3.34375 6.695312-6.746093 4.898438l-6.691407-3.515626c.277344-.867187.371094-1.824218.195313-2.847656l-4.21875-24.605468c-.328125-1.910157.300781-3.855469 1.691406-5.21875l15.65625-15.261719 9.632812 1.402343c3.804688.554688 5.328126 5.238282 2.578126 7.929688zm0 0" fill="#ffb509"/><path d="m341.121094 180.03125 7.480468 15.152344c.578126 1.179687 1.703126 1.996094 3.003907 2.1875l16.726562 2.429687c3.277344.476563 4.585938 4.503907 2.214844 6.8125l-12.105469 11.796875c-.941406.917969-1.367187 2.238282-1.148437 3.535156l2.859375 16.65625c.558594 3.265626-2.867188 5.753907-5.796875 4.210938l-14.957031-7.863281c-1.164063-.609375-2.554688-.609375-3.71875 0l-14.957032 7.863281c-2.933594 1.542969-6.355468-.945312-5.796875-4.210938l2.855469-16.65625c.222656-1.296874-.207031-2.617187-1.148438-3.535156l-12.101562-11.796875c-2.371094-2.308593-1.0625-6.335937 2.214844-6.8125l16.722656-2.429687c1.300781-.191406 2.425781-1.007813 3.007812-2.1875l7.480469-15.152344c1.464844-2.96875 5.699219-2.96875 7.164063 0zm0 0" fill="#ffc143"/><path d="m358.4375 218.414062c-.9375.917969-1.371094 2.238282-1.144531 3.539063l2.855469 16.65625c.558593 3.257813-2.867188 5.742187-5.796876 4.207031l-7.671874-4.03125-3.496094-20.371094c-.296875-1.699218.269531-3.433593 1.507812-4.640624l15.539063-15.148438 8.097656 1.175781c3.277344.484375 4.585937 4.507813 2.214844 6.816407zm0 0" fill="#ffb509"/><path d="m130.941406 180.03125 7.480469 15.152344c.582031 1.179687 1.707031 1.996094 3.007813 2.1875l16.726562 2.429687c3.273438.476563 4.582031 4.503907 2.210938 6.8125l-12.101563 11.796875c-.941406.917969-1.371094 2.238282-1.148437 3.535156l2.855468 16.65625c.5625 3.265626-2.863281 5.753907-5.792968 4.210938l-14.960938-7.863281c-1.164062-.609375-2.550781-.609375-3.714844 0l-14.960937 7.863281c-2.929688 1.542969-6.351563-.945312-5.792969-4.210938l2.855469-16.65625c.222656-1.296874-.207031-2.617187-1.148438-3.535156l-12.101562-11.796875c-2.371094-2.308593-1.0625-6.335937 2.210937-6.8125l16.726563-2.429687c1.300781-.191406 2.425781-1.007813 3.007812-2.1875l7.480469-15.152344c1.464844-2.96875 5.695312-2.96875 7.160156 0zm0 0" fill="#ffc143"/><path d="m148.265625 218.414062c-.9375.917969-1.371094 2.238282-1.144531 3.535157l2.855468 16.65625c.558594 3.257812-2.867187 5.742187-5.796874 4.207031l-7.671876-4.03125-3.496093-20.367188c-.296875-1.703124.269531-3.433593 1.507812-4.640624l15.539063-15.148438 8.097656 1.175781c3.277344.480469 4.585938 4.503907 2.214844 6.816407zm0 0" fill="#ffb509"/><path d="m256.621094 386.535156h-19.171875v-287.578125h14.015625c2.847656 0 5.15625 2.308594 5.15625 5.15625zm0 0" fill="#00d3b4"/></svg>